STARTFONT 2.1
COMMENT
COMMENT Converted from OpenType font "Vollda-Bold.otf" by "otf2bdf 3.0".
COMMENT
FONT -FreeType-Vollda-Bold-R-Normal--39-280-100-100-P-215-ISO10646-1
SIZE 28 100 100
FONTBOUNDINGBOX 124 54 -7 -12
STARTPROPERTIES 19
FOUNDRY "FreeType"
FAMILY_NAME "Vollda"
WEIGHT_NAME "Bold"
SLANT "R"
SETWIDTH_NAME "Normal"
ADD_STYLE_NAME ""
PIXEL_SIZE 39
POINT_SIZE 280
RESOLUTION_X 100
RESOLUTION_Y 100
SPACING "P"
AVERAGE_WIDTH 215
CHARSET_REGISTRY "ISO10646"
CHARSET_ENCODING "1"
FONT_ASCENT 37
FONT_DESCENT 17
COPYRIGHT "Copyright 2023 Vollda (https://github.com/alexburba/vollda)"
_OTF_FONTFILE "Vollda-Bold.otf"
_OTF_PSNAME "Vollda-Bold"
ENDPROPERTIES
CHARS 1220
STARTCHAR 0000
ENCODING 0
SWIDTH 0 0
DWIDTH 0 0
BBX 0 0 0 0
BITMAP
ENDCHAR
STARTCHAR 000D
ENCODING 13
SWIDTH 180 0
DWIDTH 7 0
BBX 0 0 0 0
BITMAP
ENDCHAR
STARTCHAR 0020
ENCODING 32
SWIDTH 180 0
DWIDTH 7 0
BBX 0 0 0 0
BITMAP
ENDCHAR
STARTCHAR 0021
ENCODING 33
SWIDTH 385 0
DWIDTH 15 0
BBX 6 28 5 0
BITMAP
0C
FC
FC
FC
FC
FC
FC
F8
78
78
78
78
78
78
78
78
78
78
30
00
00
00
38
FC
FC
FC
FC
78
ENDCHAR
STARTCHAR 0022
ENCODING 34
SWIDTH 360 0
DWIDTH 14 0
BBX 10 11 2 17
BITMAP
1040
F3C0
71C0
71C0
71C0
71C0
71C0
71C0
71C0
71C0
20C0
ENDCHAR
STARTCHAR 0023
ENCODING 35
SWIDTH 591 0
DWIDTH 23 0
BBX 22 28 1 0
BITMAP
00C040
00E0E0
00C0E0
01C0E0
01C0C0
01C0C0
01C1C0
0181C0
3FFFFC
3FFFFC
3FFFF8
038380
030380
030380
070300
070300
070700
060700
FFFFF0
FFFFF0
0E0600
0E0E00
0C0E00
0C0E00
1C0E00
1C0C00
1C1C00
181C00
ENDCHAR
STARTCHAR 0024
ENCODING 36
SWIDTH 540 0
DWIDTH 21 0
BBX 18 32 2 -3
BITMAP
00C000
00C000
01E000
0FFE00
3FFF00
3CDF00
78CF00
78C700
F8C700
FCC780
FCC000
FFC000
7FC000
7FF000
3FFC00
1FFE00
0FFF00
07FF80
01FFC0
01FFC0
01DFC0
F1CFC0
F1C7C0
F1C7C0
F9C7C0
F9CF80
FFDF80
7FFE00
1FFC00
01C000
01C000
01C000
ENDCHAR
STARTCHAR 0025
ENCODING 37
SWIDTH 848 0
DWIDTH 33 0
BBX 27 27 3 0
BITMAP
00000100
1FC003C0
3FE00380
78F00700
78F00E00
70781C00
F0783C00
F0787800
70787000
78F0E000
7CF1C000
3FE38000
0F878000
000F0000
000E0000
001C3F00
00387F80
0070F3C0
00F1E1E0
01E1E1E0
01C1E1E0
0381E1E0
0701E1E0
0E01E1E0
1E00F3C0
3C00FF80
18003F00
ENDCHAR
STARTCHAR 0026
ENCODING 38
SWIDTH 771 0
DWIDTH 30 0
BBX 26 28 2 0
BITMAP
007F0000
03FFE000
07FFC000
0FC3C000
0F83C000
0F81C000
0F81C000
0FC00000
0FC00000
07E00000
07E07F80
03F07F80
07F83F00
1FF80E00
3EFC0E00
7CFE0C00
7C7F1C00
FC3F9C00
FC1FD800
FC0FF800
FC0FF000
FC07F000
FC03F800
7E01FC00
7F07FF00
3FFF7FC0
1FFE7FC0
0FFC3FC0
ENDCHAR
STARTCHAR 0027
ENCODING 39
SWIDTH 205 0
DWIDTH 8 0
BBX 4 11 2 17
BITMAP
10
F0
70
70
70
70
70
70
70
70
30
ENDCHAR
STARTCHAR 0028
ENCODING 40
SWIDTH 308 0
DWIDTH 12 0
BBX 10 39 1 -11
BITMAP
0180
0180
0380
0700
0700
0E00
0E00
1E00
1C00
3C00
3C00
7C00
7800
7800
7800
7800
F800
F800
F800
F800
F800
F800
F800
7800
7800
7800
7800
7C00
3C00
3C00
3C00
1E00
1E00
0E00
0F00
0700
0300
0380
01C0
ENDCHAR
STARTCHAR 0029
ENCODING 41
SWIDTH 308 0
DWIDTH 12 0
BBX 9 40 2 -11
BITMAP
C000
E000
7000
7000
3800
3800
1C00
1E00
1E00
0E00
0F00
0F00
0F00
0F80
0F80
0F80
0F80
0780
0780
0780
0780
0780
0F80
0F80
0F80
0F80
0F00
0F00
0F00
0E00
1E00
1E00
1C00
3C00
3800
3800
7000
6000
C000
4000
ENDCHAR
STARTCHAR 002A
ENCODING 42
SWIDTH 462 0
DWIDTH 18 0
BBX 14 14 2 16
BITMAP
0180
01C0
21C0
7180
7984
FD1C
0FFC
07FC
0F84
3D80
79C0
31E0
30F0
00C0
ENDCHAR
STARTCHAR 002B
ENCODING 43
SWIDTH 540 0
DWIDTH 21 0
BBX 18 20 2 0
BITMAP
004000
01C000
01C000
01C000
01C000
01C000
01C000
01C000
01C000
FFFFC0
FFFFC0
01C000
01C000
01C000
01C000
01C000
01C000
01C000
01C000
01C000
ENDCHAR
STARTCHAR 002C
ENCODING 44
SWIDTH 282 0
DWIDTH 11 0
BBX 6 12 3 -7
BITMAP
18
FC
FC
FC
FC
3C
38
38
78
70
E0
C0
ENDCHAR
STARTCHAR 002D
ENCODING 45
SWIDTH 411 0
DWIDTH 16 0
BBX 12 4 2 8
BITMAP
7FF0
7FF0
FFF0
FFE0
ENDCHAR
STARTCHAR 002E
ENCODING 46
SWIDTH 282 0
DWIDTH 11 0
BBX 7 6 2 0
BITMAP
7C
FE
FE
FE
FE
7C
ENDCHAR
STARTCHAR 002F
ENCODING 47
SWIDTH 360 0
DWIDTH 14 0
BBX 13 28 1 0
BITMAP
0030
0038
0030
0070
0070
00E0
00E0
00C0
01C0
01C0
0180
0380
0380
0700
0700
0700
0E00
0E00
0C00
1C00
1C00
3800
3800
3800
7000
7000
6000
E000
ENDCHAR
STARTCHAR 0030
ENCODING 48
SWIDTH 591 0
DWIDTH 23 0
BBX 22 20 1 0
BITMAP
007800
03FF00
0FFFC0
1F0FE0
3E03F0
7E03F8
7C01F8
7C01F8
FC00F8
FC00FC
FC00FC
FC00F8
7C00F8
7E00F8
7E01F8
3F01F0
3F83F0
1FE7E0
07FF80
03FF00
ENDCHAR
STARTCHAR 0031
ENCODING 49
SWIDTH 385 0
DWIDTH 15 0
BBX 11 20 2 0
BITMAP
E060
FFE0
FFE0
3F80
1F80
1F80
1F80
1F80
1F80
1F80
1F80
1F80
1F80
1F80
1F80
1F80
1F80
7FC0
FFE0
FFE0
ENDCHAR
STARTCHAR 0032
ENCODING 50
SWIDTH 514 0
DWIDTH 20 0
BBX 16 20 2 0
BITMAP
03C0
3FFC
7FFE
787E
703E
703E
703E
307E
007C
00F8
01F0
03E0
07C0
0F07
1E07
3FFF
7FFF
FFFF
FFFF
FFFF
ENDCHAR
STARTCHAR 0033
ENCODING 51
SWIDTH 488 0
DWIDTH 19 0
BBX 17 27 1 -7
BITMAP
380F00
3FFF00
3FFF80
7FFF00
7FFE00
7C1C00
703C00
707800
007000
00E000
01E000
03F000
07FE00
07FF00
03FF80
003F80
001F80
001F80
001F80
001F80
001F80
001F80
003F00
60FE00
FFFC00
7FF000
0F8000
ENDCHAR
STARTCHAR 0034
ENCODING 52
SWIDTH 591 0
DWIDTH 23 0
BBX 21 27 1 -7
BITMAP
000700
000F80
001F80
001F80
003F80
007F80
00FF80
00FF80
01DF80
039F80
071F80
0F1F80
0E1F80
1C1F80
3C1F80
7FFFF8
FFFFF8
FFFFF8
FFFFF8
7FFFF8
001F80
001F80
001F80
001F80
001F80
001F80
000800
ENDCHAR
STARTCHAR 0035
ENCODING 53
SWIDTH 462 0
DWIDTH 18 0
BBX 15 29 2 -7
BITMAP
000C
000C
1E3C
3FFC
3FFC
3FFC
3FFC
7F00
7000
6000
6000
7F00
FFC0
FFF0
7FF8
1FFC
03FC
00FE
007E
007E
007E
007E
007E
007C
00FC
03F8
FFF0
FFC0
1E00
ENDCHAR
STARTCHAR 0036
ENCODING 54
SWIDTH 540 0
DWIDTH 21 0
BBX 19 25 1 0
BITMAP
000700
003F00
00FE00
03F000
07E000
0F8000
1F0000
3F0000
3E0000
7E0000
7FFE00
7FFF80
7F3FC0
FC0FC0
FC07E0
FC07E0
FC07E0
FC07E0
7C07E0
7E07E0
7E07C0
3F07C0
3F9F80
1FFF00
07FC00
ENDCHAR
STARTCHAR 0037
ENCODING 55
SWIDTH 462 0
DWIDTH 18 0
BBX 16 27 1 -7
BITMAP
4003
7FFF
7FFF
7FFF
7FFE
7FFE
701C
F038
0038
0070
0070
00E0
01E0
01E0
03C0
03C0
07C0
07C0
0780
0F80
0F80
0F80
0F80
1F80
1F80
1E00
0800
ENDCHAR
STARTCHAR 0038
ENCODING 56
SWIDTH 540 0
DWIDTH 21 0
BBX 17 25 2 0
BITMAP
01E000
1FFC00
3F7E00
7C1F00
7C1F00
7C1F80
7C1F00
7E1F00
7F1F00
3FFE00
3FF800
0FF800
0FFC00
1FFE00
3CFF00
7C3F80
F81F80
F81F80
F80F80
F80F80
F80F80
FC0F80
7E1F00
3FFE00
0FFC00
ENDCHAR
STARTCHAR 0039
ENCODING 57
SWIDTH 540 0
DWIDTH 21 0
BBX 19 26 1 -7
BITMAP
007000
07FE00
1FFF80
3F1F80
7E0FC0
7C07C0
7C07E0
FC07E0
FC03E0
FC03E0
FC03E0
7E03E0
7F03E0
3FDFE0
1FFFE0
0FFFC0
0007C0
000F80
001F80
001F00
003E00
00FC00
01F800
07F000
3FC000
3F0000
ENDCHAR
STARTCHAR 003A
ENCODING 58
SWIDTH 282 0
DWIDTH 11 0
BBX 7 17 2 0
BITMAP
7C
7C
FE
FE
7C
38
00
00
00
00
00
7C
7E
FE
FE
7C
38
ENDCHAR
STARTCHAR 003B
ENCODING 59
SWIDTH 282 0
DWIDTH 11 0
BBX 6 24 3 -7
BITMAP
78
FC
FC
FC
FC
70
00
00
00
00
00
00
18
FC
FC
FC
FC
3C
3C
38
38
70
E0
E0
ENDCHAR
STARTCHAR 003C
ENCODING 60
SWIDTH 540 0
DWIDTH 21 0
BBX 16 20 2 0
BITMAP
0002
000F
001F
007E
01F8
03E0
0F80
3F00
7C00
F000
F800
7E00
1F00
07C0
03F0
00FC
003F
000F
0007
0001
ENDCHAR
STARTCHAR 003D
ENCODING 61
SWIDTH 540 0
DWIDTH 21 0
BBX 17 10 2 5
BITMAP
FFFF80
FFFF80
FFFF80
000000
000000
000000
000000
FFFF80
FFFF80
FFFF80
ENDCHAR
STARTCHAR 003E
ENCODING 62
SWIDTH 540 0
DWIDTH 21 0
BBX 16 20 3 0
BITMAP
6000
F000
FC00
3E00
0F80
07E0
01F0
007C
003E
000F
000F
003E
00FC
03F0
07C0
1F00
7E00
F800
6000
4000
ENDCHAR
STARTCHAR 003F
ENCODING 63
SWIDTH 514 0
DWIDTH 20 0
BBX 14 28 4 0
BITMAP
0FC0
7FF8
FFFC
78FC
707C
707C
F07C
30FC
00F8
01F8
03F0
07E0
07C0
0F80
0F80
0F00
0F00
0700
0780
0300
0000
0000
0780
0FC0
0FE0
0FE0
0FC0
07C0
ENDCHAR
STARTCHAR 0040
ENCODING 64
SWIDTH 977 0
DWIDTH 38 0
BBX 31 34 4 -8
BITMAP
0001F000
003FFF00
00FFFFC0
03E003E0
078000F0
0F000078
1E00003C
1C00001C
380FFE1C
383FFE0E
707C7F0E
70783F0E
F0F83F0E
E0F83F0E
E1F83F0E
E1F03F0E
E1F03F0E
E1F03F0C
E1F07F0C
E1F87F1C
E1F87F18
F1F8FF38
71FDFF70
70FFBFE0
78FF1FC0
387E1F80
3C000000
1E000010
1F000038
0F800078
07E001F0
01FFFFC0
007FFF00
000FF800
ENDCHAR
STARTCHAR 0041
ENCODING 65
SWIDTH 694 0
DWIDTH 27 0
BBX 26 27 1 0
BITMAP
00040000
001C0000
001C0000
003E0000
003E0000
007F0000
007F0000
00FF8000
00DF8000
00DFC000
01CFC000
018FC000
0387E000
0387E000
0307F000
0703F000
0603F800
0FFFF800
0FFFFC00
0FFFFC00
1C00FC00
1C00FE00
38007E00
38007F00
7C00FF80
FE01FFC0
FE01FFC0
ENDCHAR
STARTCHAR 0042
ENCODING 66
SWIDTH 668 0
DWIDTH 26 0
BBX 22 26 2 0
BITMAP
FFFF80
FFFFE0
3F0FF0
3F03F0
3F03F8
1F01F8
1F01F8
1F01F0
1F03F0
1F03E0
1F07C0
1FFF00
1FFFE0
1FFFF0
1F03F8
1F01FC
1F01FC
1F00FC
1F00FC
1F00FC
3F00FC
3F01FC
3F81F8
7FC7F0
FFFFE0
FFFF00
ENDCHAR
STARTCHAR 0043
ENCODING 67
SWIDTH 642 0
DWIDTH 25 0
BBX 23 27 1 0
BITMAP
000F00
00FFF0
03FFFC
07C07C
0F803C
1F003C
3F003C
3E001C
7E001C
7E0000
7E0000
FC0000
FC0000
FC0000
FE0000
FE0000
7E0000
7E0000
7E0000
7F0000
3F0000
3F8000
1FC000
0FF01E
07FFFC
03FFF8
00FFC0
ENDCHAR
STARTCHAR 0044
ENCODING 68
SWIDTH 720 0
DWIDTH 28 0
BBX 25 26 2 0
BITMAP
FFFFC000
FFFFF000
3F03FC00
3F00FE00
3F007E00
1F007F00
1F003F00
1F003F80
1F001F80
1F001F80
1F001F80
1F001F80
1F001F80
1F001F80
1F001F80
1F001F80
1F001F80
1F001F00
1F003F00
1F003F00
3F003E00
3F807C00
3F80F800
7FEFF000
FFFFC000
FFFE0000
ENDCHAR
STARTCHAR 0045
ENCODING 69
SWIDTH 617 0
DWIDTH 24 0
BBX 21 26 2 0
BITMAP
FFFFE0
FFFFE0
3F03E0
3F00E0
3F00E0
3F0070
1F0060
1F0000
1F0100
1F0700
1F0700
1F1F00
1FFF00
1FFF00
1F0F00
1F0700
1F0700
1F0000
1F0000
1F0038
3F0038
3F8078
3F80F8
7FE7F0
FFFFF0
FFFFF0
ENDCHAR
STARTCHAR 0046
ENCODING 70
SWIDTH 565 0
DWIDTH 22 0
BBX 20 26 2 0
BITMAP
FFFFE0
FFFFE0
3F03E0
3F00E0
3F00F0
3F0070
1F0060
1F0000
1F0000
1F0180
1F0380
1F0380
1F0F80
1FFF80
1FFF80
1F0780
1F0380
1F0380
1F0000
1F0000
3F0000
3F8000
3F8000
7FE000
FFF000
FFF000
ENDCHAR
STARTCHAR 0047
ENCODING 71
SWIDTH 694 0
DWIDTH 27 0
BBX 25 27 1 0
BITMAP
000F0000
00FFF800
03FFFE00
07E03E00
0F801E00
1F001E00
3F000E00
3E000E00
7E000C00
7E000000
7E000000
FE000000
FC000000
FC000000
FE01FF80
FE01FF80
7E01FF80
7E003E00
7E003E00
7F003E00
3F003E00
3F803E00
1F803E00
0FC03E00
07F0FF00
03FFFC00
00FFE000
ENDCHAR
STARTCHAR 0048
ENCODING 72
SWIDTH 771 0
DWIDTH 30 0
BBX 27 26 2 0
BITMAP
FFE1FFE0
FFE1FFC0
3F807F80
3F803F00
3F003F00
3F003F00
1F003F00
1F003F00
1F003F00
1F003F00
1F003F00
1FFFFF00
1FFFFF00
1FFFFF00
1F003F00
1F003F00
1F003F00
1F003F00
1F003F00
1F003F00
3F003F00
3F003F00
3F803F00
7FC07F80
FFE1FFE0
FFE1FFE0
ENDCHAR
STARTCHAR 0049
ENCODING 73
SWIDTH 360 0
DWIDTH 14 0
BBX 11 26 2 0
BITMAP
FFE0
FFE0
3F80
3F80
3F00
3F00
1F00
1F00
1F00
1F00
1F00
1F00
1F00
1F00
1F00
1F00
1F00
1F00
1F00
1F00
3F00
3F00
3F80
7FC0
FFE0
FFE0
ENDCHAR
STARTCHAR 004A
ENCODING 74
SWIDTH 360 0
DWIDTH 14 0
BBX 13 35 0 -10
BITMAP
7FF8
7FF8
1FE0
0FC0
0FC0
0FC0
0FC0
0FC0
0FC0
0FC0
0FC0
0FC0
0FC0
0FC0
0FC0
0FC0
0FC0
0FC0
0FC0
0FC0
0FC0
0FC0
0FC0
0FC0
0FC0
0FC0
0F80
0F80
0F80
1F00
1F00
3E00
7C00
F800
E000
ENDCHAR
STARTCHAR 004B
ENCODING 75
SWIDTH 720 0
DWIDTH 28 0
BBX 26 26 2 0
BITMAP
FFE1FF00
FFE1FF00
3F80FC00
3F80F000
3F01E000
3F03C000
1F038000
1F070000
1F0E0000
1F1C0000
1F380000
1F7C0000
1FFE0000
1FFE0000
1F7F0000
1F3F8000
1F1FC000
1F1FC000
1F0FE000
1F07F000
3F03F800
3F03F800
3F81FC00
7FC0FF80
FFE0FFC0
FFE07F80
ENDCHAR
STARTCHAR 004C
ENCODING 76
SWIDTH 591 0
DWIDTH 23 0
BBX 21 26 2 0
BITMAP
FFE000
FFE000
3F8000
3F8000
3F0000
1F0000
1F0000
1F0000
1F0000
1F0000
1F0000
1F0000
1F0000
1F0000
1F0000
1F0000
1F0000
1F0000
1F0000
1F0038
3F0078
3F8070
3F80F0
7FE7F0
FFFFF0
FFFFF0
ENDCHAR
STARTCHAR 004D
ENCODING 77
SWIDTH 951 0
DWIDTH 37 0
BBX 36 26 1 0
BITMAP
3FC0007FC0
3FE0007FC0
0FE000FF00
0FF000FE00
0FF000FE00
0FF801FE00
0FF801FE00
0FFC01FE00
0EFC03BF00
0EFC033F00
0EFE073F00
0C7E073F00
0C7F063F00
0C3F0E3F00
0C3F8C3F00
0C1F8C3F00
1C1F9C3F00
1C0FD81F00
1C0FF81F80
1C0FF01F80
1C07F01F80
1C07F01F80
3C03E01F80
7E03E03FE0
FF01C0FFF0
FF01C0FFF0
ENDCHAR
STARTCHAR 004E
ENCODING 78
SWIDTH 720 0
DWIDTH 28 0
BBX 26 26 1 0
BITMAP
FF803FC0
FF803FC0
1FC00F00
1FE00F00
0FF00600
0FF00600
0FF80600
0FFC0600
0DFE0600
0CFE0600
0C7F0600
0C7F8600
0C3FC600
0C1FC600
0C0FE600
0C0FF600
0C07FE00
0C03FE00
1C01FE00
1C01FE00
1C00FE00
1C007E00
1E003E00
3F003E00
FF801E00
FF800E00
ENDCHAR
STARTCHAR 004F
ENCODING 79
SWIDTH 745 0
DWIDTH 29 0
BBX 27 27 1 0
BITMAP
001E0000
00FFE000
03FFF800
07C0FE00
0F807E00
1F003F00
3F001F80
3E001F80
7E000FC0
7E000FC0
7E000FC0
FC000FE0
FC000FE0
FC0007E0
FC0007E0
FE0007E0
7E000FC0
7E000FC0
7E000FC0
7F000FC0
3F000F80
3F801F80
1F803F00
0FC03E00
07F0FC00
03FFF800
007FC000
ENDCHAR
STARTCHAR 0050
ENCODING 80
SWIDTH 617 0
DWIDTH 24 0
BBX 21 26 2 0
BITMAP
FFFF80
FFFFE0
3F0FF0
3F03F8
3F01F8
3F01F8
1F01F8
1F01F8
1F01F8
1F01F8
1F01F8
1F01F8
1F01F0
1F03F0
1F3FE0
1F7F80
1F7E00
1F0000
1F0000
1F0000
3F0000
3F8000
3F8000
7FE000
FFF000
FFF000
ENDCHAR
STARTCHAR 0051
ENCODING 81
SWIDTH 745 0
DWIDTH 29 0
BBX 29 35 1 -8
BITMAP
001E0000
00FFE000
03FFF800
07C0FE00
0F807E00
1F003F00
3F001F80
3E001F80
7E000FC0
7E000FC0
7E000FC0
FC000FE0
FC000FE0
FC0007E0
FC0007E0
FE0007E0
7E000FC0
7E000FC0
7E000FC0
7F000FC0
3F000F80
3F801F80
1F803F00
0FC03E00
07F0FC00
03FFF800
007FE000
0003F800
0000FE00
00007F00
00003FE0
00001FF8
00000FF8
000007E0
00000300
ENDCHAR
STARTCHAR 0052
ENCODING 82
SWIDTH 694 0
DWIDTH 27 0
BBX 25 26 2 0
BITMAP
FFFFC000
FFFFE000
3F07F000
3F01F800
3F01F800
3F00FC00
1F00FC00
1F00FC00
1F00FC00
1F01F800
1F01F800
1F03F000
1F1FE000
1FFFC000
1FFF0000
1F1F8000
1F0FC000
1F07E000
1F07E000
1F03F000
3F03F800
3F01F800
3F81FC00
7F81FF00
FFE0FF80
FFE0FF00
ENDCHAR
STARTCHAR 0053
ENCODING 83
SWIDTH 540 0
DWIDTH 21 0
BBX 18 27 2 0
BITMAP
00E000
0FFE00
1FFF00
3C1F00
780F00
780700
F80700
FC0780
FC0000
FF0000
7FC000
7FF000
3FFC00
1FFE00
0FFF00
07FF80
01FFC0
003FC0
001FC0
F00FC0
F007C0
F007C0
F807C0
F80F80
FE1F80
7FFE00
1FFC00
ENDCHAR
STARTCHAR 0054
ENCODING 84
SWIDTH 642 0
DWIDTH 25 0
BBX 23 26 1 0
BITMAP
7FFFFE
7FFFFE
7C7E3E
F07E1E
F07E0E
E07E0E
E07E0E
007E00
007E00
007E00
007E00
007E00
007E00
007E00
007E00
007E00
007E00
007E00
007E00
007E00
007E00
007E00
00FE00
01FF00
07FFC0
07FFC0
ENDCHAR
STARTCHAR 0055
ENCODING 85
SWIDTH 668 0
DWIDTH 26 0
BBX 24 26 1 0
BITMAP
FFE0FF
FFE0FF
3F803E
1F801C
1F801C
1F801C
1F801C
1F801C
1F801C
1F801C
1F801C
1F801C
1F801C
1F801C
1F801C
1F801C
1F801C
1F801C
1F801C
1F8018
1F8018
1FC038
0FE078
07F9F0
03FFE0
01FFC0
ENDCHAR
STARTCHAR 0056
ENCODING 86
SWIDTH 694 0
DWIDTH 27 0
BBX 25 26 1 0
BITMAP
FFE03F80
FFE03F80
7F801F00
3F800E00
3F800E00
1F801C00
1FC01C00
0FC01800
0FC03800
07E03800
07E03000
07F07000
03F06000
03F0E000
01F8E000
01F8C000
01F9C000
00FD8000
00FF8000
007F8000
007F0000
007F0000
003E0000
003E0000
001C0000
001C0000
ENDCHAR
STARTCHAR 0057
ENCODING 87
SWIDTH 977 0
DWIDTH 38 0
BBX 37 27 1 0
BITMAP
0000080000
FFE03C07F8
FFE03C07F8
7F803C01F0
3F007E01E0
3F007E00C0
3F807E01C0
1F80FF01C0
1F80FF0180
1FC1FF8180
0FC1DF8380
0FC19F8380
0FE39FC300
07E38FC700
07E30FC700
07F70FE600
03F707E600
03F607EE00
03FE03FC00
01FE03FC00
01FC03FC00
01FC01F800
00FC01F800
00F801F800
00F800F800
007800F000
007000F000
ENDCHAR
STARTCHAR 0058
ENCODING 88
SWIDTH 694 0
DWIDTH 27 0
BBX 25 26 1 0
BITMAP
7FF0FF00
7FF0FF00
3FE03E00
1FE03C00
0FE07800
07F07000
07F0E000
03F8E000
01FDC000
01FF8000
00FF8000
007F0000
007F0000
003F8000
007F8000
00FFC000
00EFE000
01CFE000
0387F000
0387F000
0703F800
0F01FC00
1E01FE00
7F03FF00
FF87FF80
FF87FF80
ENDCHAR
STARTCHAR 0059
ENCODING 89
SWIDTH 617 0
DWIDTH 24 0
BBX 23 26 1 0
BITMAP
FFE0FE
FFE0FE
7F807C
3F8078
1FC070
1FC060
0FC0E0
0FE0C0
07E1C0
07F1C0
03F180
03FB80
01FB00
01FF00
00FE00
00FE00
007C00
007C00
007C00
007C00
00FC00
00FE00
00FE00
01FF00
07FFC0
07FFC0
ENDCHAR
STARTCHAR 005A
ENCODING 90
SWIDTH 591 0
DWIDTH 23 0
BBX 20 26 2 0
BITMAP
7FFFE0
7FFFE0
7C0FE0
781FC0
701FC0
703F80
F03F80
007F00
007F00
00FE00
00FE00
01FC00
03F800
03F800
07F000
07F000
0FE000
0FE000
1FC000
3F80F0
3F80F0
7F00E0
7F01E0
FE07E0
FFFFE0
FFFFE0
ENDCHAR
STARTCHAR 005B
ENCODING 91
SWIDTH 282 0
DWIDTH 11 0
BBX 9 39 1 -10
BITMAP
FF80
FF80
FF80
F800
F000
F000
F000
F000
F000
F000
F000
F000
F000
F000
F000
F000
F000
F000
F000
F000
F000
F000
F000
F000
F000
F000
F000
F000
F000
F000
F000
F000
F000
F000
F000
F000
FC00
FF80
FF80
ENDCHAR
STARTCHAR 005C
ENCODING 92
SWIDTH 385 0
DWIDTH 15 0
BBX 13 28 1 0
BITMAP
E000
E000
7000
7000
3000
3800
3800
1C00
1C00
1C00
0E00
0E00
0600
0700
0700
0300
0380
0380
01C0
01C0
00C0
00E0
00E0
0060
0070
0070
0038
0038
ENDCHAR
STARTCHAR 005D
ENCODING 93
SWIDTH 282 0
DWIDTH 11 0
BBX 8 39 2 -10
BITMAP
FF
FF
FF
1F
0F
0F
0F
0F
0F
0F
0F
0F
0F
0F
0F
0F
0F
0F
0F
0F
0F
0F
0F
0F
0F
0F
0F
0F
0F
0F
0F
0F
0F
0F
0F
0F
1F
FF
FF
ENDCHAR
STARTCHAR 005E
ENCODING 94
SWIDTH 540 0
DWIDTH 21 0
BBX 18 12 2 15
BITMAP
01C000
03E000
03F000
077000
0E3800
1C1C00
3C1C00
380E00
700700
E00380
C00380
C001C0
ENDCHAR
STARTCHAR 005F
ENCODING 95
SWIDTH 540 0
DWIDTH 21 0
BBX 19 3 1 -6
BITMAP
FFFFE0
FFFFE0
FFFFE0
ENDCHAR
STARTCHAR 0060
ENCODING 96
SWIDTH 282 0
DWIDTH 11 0
BBX 8 7 2 21
BITMAP
78
F8
7C
3C
1E
0E
0F
ENDCHAR
STARTCHAR 0061
ENCODING 97
SWIDTH 488 0
DWIDTH 19 0
BBX 18 18 1 0
BITMAP
03F800
0FFC00
1FFE00
3C7E00
7C3F00
FC3F00
FC3F00
007F00
01FF00
07BF00
3E3F00
7C3E00
FC3F00
FC3F00
FC3F80
FE7FC0
7FFFC0
3F1F80
ENDCHAR
STARTCHAR 0062
ENCODING 98
SWIDTH 591 0
DWIDTH 23 0
BBX 22 28 0 0
BITMAP
030000
FF0000
FF8000
FF8000
1F8000
1F8000
1F8000
1F8000
1F8000
1F8000
1F8FC0
1FBFE0
1F7FF0
1FC3F8
1F81F8
1F80FC
1F80FC
1F80FC
1F80FC
1F80FC
1F80FC
1F80F8
1F80F8
1F81F8
1F81F0
3F83E0
1FFFC0
03FF00
ENDCHAR
STARTCHAR 0063
ENCODING 99
SWIDTH 462 0
DWIDTH 18 0
BBX 16 18 1 0
BITMAP
03FC
0FFF
1F1F
3E0F
7E0E
7C0E
7C0E
FC00
FC00
FC00
FC00
7C00
7E00
7E00
3F03
3FFF
0FFE
07FC
ENDCHAR
STARTCHAR 0064
ENCODING 100
SWIDTH 591 0
DWIDTH 23 0
BBX 22 28 1 0
BITMAP
000060
001FE0
001FE0
001FE0
0007E0
0003E0
0003E0
0003E0
0003E0
0003E0
01FFE0
07FFE0
1F87E0
1F03E0
3E03E0
7E03E0
7C03E0
7C03E0
FC03E0
FC03E0
FC03E0
FE03E0
7E03E0
7E03F0
7F03F8
3FFFFC
1FFBF8
0FF380
ENDCHAR
STARTCHAR 0065
ENCODING 101
SWIDTH 488 0
DWIDTH 19 0
BBX 17 18 1 0
BITMAP
03F800
0FFE00
1F3F00
3E1F00
7C0F80
7C0F80
7C0F80
FC0F80
FFFF80
FFFF80
FC0000
7C0000
7E0000
7E0000
3F0180
3FFF80
1FFF00
07FC00
ENDCHAR
STARTCHAR 0066
ENCODING 102
SWIDTH 385 0
DWIDTH 15 0
BBX 17 28 1 0
BITMAP
003E00
01FF80
03FF80
07C780
0F8780
0F8780
0F8600
1F8000
1F8000
1F8000
1F8000
FFF800
FFF800
1F8000
1F8000
1F8000
1F8000
1F8000
1F8000
1F8000
1F8000
1F8000
1F8000
1F8000
1F8000
3FE000
FFF800
FFF800
ENDCHAR
STARTCHAR 0067
ENCODING 103
SWIDTH 540 0
DWIDTH 21 0
BBX 19 28 1 -10
BITMAP
07FFE0
1FFFE0
3E3FE0
7E1F00
7C0F80
7C0F80
7C0F80
7C0F80
7E0F80
3E1F00
3FFF00
1FFC00
3C8000
380000
7C0000
7FFF00
7FFFC0
3FFFC0
3FFFE0
3FFFE0
7807E0
F803E0
F803C0
F807C0
FC0F80
7FFF00
3FFC00
03C000
ENDCHAR
STARTCHAR 0068
ENCODING 104
SWIDTH 642 0
DWIDTH 25 0
BBX 23 28 1 0
BITMAP
030000
FF0000
FF0000
FF0000
3F0000
1F0000
1F0000
1F0000
1F0000
1F0000
1F0F80
1F3FE0
1F7FF0
1FFFF0
1F03F8
1F01F8
1F01F8
1F01F8
1F01F8
1F01F8
1F01F8
1F01F8
1F01F8
1F81F8
1F81F8
3FC3FC
FFE7FE
FFE7FE
ENDCHAR
STARTCHAR 0069
ENCODING 105
SWIDTH 334 0
DWIDTH 13 0
BBX 11 27 1 0
BITMAP
0F00
1F80
3F80
3F80
1F00
0E00
0000
0000
0000
0300
7F80
FF80
7F80
1F80
1F80
1F80
1F80
1F80
1F80
1F80
1F80
1F80
1F80
1F80
3FC0
FFE0
FFE0
ENDCHAR
STARTCHAR 006A
ENCODING 106
SWIDTH 308 0
DWIDTH 12 0
BBX 9 36 1 -10
BITMAP
0E00
1F00
3F80
3F80
1F00
0E00
0000
0000
0000
0700
FF80
FF80
7F80
1F80
1F80
1F80
1F80
1F80
1F80
1F80
1F80
1F80
1F80
1F80
1F80
1F80
1F00
1F00
1F00
1F00
3E00
3E00
7C00
7800
F000
E000
ENDCHAR
STARTCHAR 006B
ENCODING 107
SWIDTH 617 0
DWIDTH 24 0
BBX 23 28 1 0
BITMAP
030000
FF0000
FF0000
FF0000
1F0000
1F0000
1F0000
1F0000
1F0000
1F0000
1F07FC
1F07FC
1F03F8
1F03C0
1F0780
1F0F00
1F1E00
1F3C00
1F7E00
1F7F00
1F3F80
1F1FC0
1F0FC0
1F87E0
1F87F0
3F83FC
FFE1FE
FFE0FC
ENDCHAR
STARTCHAR 006C
ENCODING 108
SWIDTH 334 0
DWIDTH 13 0
BBX 11 28 1 0
BITMAP
0300
FF00
FF00
FF00
1F00
1F00
1F00
1F00
1F00
1F00
1F00
1F00
1F00
1F00
1F00
1F00
1F00
1F00
1F00
1F00
1F00
1F00
1F00
1F80
1F80
3FC0
FFE0
FFE0
ENDCHAR
STARTCHAR 006D
ENCODING 109
SWIDTH 951 0
DWIDTH 37 0
BBX 35 18 1 0
BITMAP
030FC07C00
7FBFE1FE00
FF7FF3FF00
7FF7FFFF80
1F81F81F80
1F81F81F80
1F81F81F80
1F81F81F80
1F81F81F80
1F81F81F80
1F81F81F80
1F81F81F80
1F81F81F80
1F81F81F80
1F81F81F80
3FC3FC3FC0
FFE7FE7FE0
FFE7FE7FE0
ENDCHAR
STARTCHAR 006E
ENCODING 110
SWIDTH 642 0
DWIDTH 25 0
BBX 23 18 1 0
BITMAP
030FC0
7FBFE0
FFFFF0
7FFFF8
1F81F8
1F81F8
1F81F8
1F80F8
1F80F8
1F80F8
1F80F8
1F80F8
1F80F8
1F81F8
1F81F8
3FC3FC
FFE7FE
FFE7FE
ENDCHAR
STARTCHAR 006F
ENCODING 111
SWIDTH 565 0
DWIDTH 22 0
BBX 20 18 1 0
BITMAP
03FC00
0FFF00
1F9FC0
3E0FC0
7E07E0
7C07E0
7C03F0
FC03F0
FC03F0
FC03F0
FC03F0
7C03F0
7E03E0
7E03E0
3F07C0
3F8FC0
0FFF00
07FE00
ENDCHAR
STARTCHAR 0070
ENCODING 112
SWIDTH 617 0
DWIDTH 24 0
BBX 22 28 1 -10
BITMAP
030FC0
7FBFF0
FFFFF8
7FC3F8
1F81FC
1F80FC
1F80FC
1F80FC
1F80FC
1F80FC
1F80FC
1F80FC
1F80F8
1F80F8
1F81F0
1FC3E0
1FFFC0
1FFF00
1F8000
1F8000
1F8000
1F8000
1F8000
1F8000
3FC000
FFF800
FFF800
C00800
ENDCHAR
STARTCHAR 0071
ENCODING 113
SWIDTH 591 0
DWIDTH 23 0
BBX 22 28 1 -10
BITMAP
01FF00
07FFE0
1F8FF0
3F03F0
3E03F0
7E03E0
7C03E0
7C03E0
FC03E0
FC03E0
FC03E0
FC03E0
7C03E0
7E03E0
7F03E0
3FFFE0
1FFBE0
07E3E0
0003E0
0003E0
0003E0
0003E0
0003E0
0007F0
0007F0
003FFC
003FFC
002004
ENDCHAR
STARTCHAR 0072
ENCODING 114
SWIDTH 462 0
DWIDTH 18 0
BBX 17 18 1 0
BITMAP
030F00
7F9F80
FF3F80
7F7F80
1FEF00
1F8700
1F8700
1F8000
1F8000
1F8000
1F8000
1F8000
1F8000
1F8000
1F8000
3FE000
FFF800
FFF800
ENDCHAR
STARTCHAR 0073
ENCODING 115
SWIDTH 437 0
DWIDTH 17 0
BBX 15 18 2 0
BITMAP
1FF0
7FF8
FCF8
F878
F838
FC38
FE00
FFC0
7FF0
3FF8
0FFC
21FC
E0FE
E07E
F07C
F8FC
FFF8
7FE0
ENDCHAR
STARTCHAR 0074
ENCODING 116
SWIDTH 360 0
DWIDTH 14 0
BBX 14 24 0 0
BITMAP
0180
0780
1F80
1F80
1F80
1F80
1F80
7FFC
FFF8
1F80
1F80
1F80
1F80
1F80
1F80
1F80
1F80
1F80
1F80
1F80
0F80
0FCC
0FFC
07F8
ENDCHAR
STARTCHAR 0075
ENCODING 117
SWIDTH 591 0
DWIDTH 23 0
BBX 22 18 1 0
BITMAP
0600E0
FF1FE0
FF1FE0
7F07E0
3F03E0
3F03E0
3F03E0
3F03E0
3F03E0
3F03E0
3F03E0
3F03E0
3F03E0
3F03F0
3F83F8
1FFFFC
1FFBFC
0FE380
ENDCHAR
STARTCHAR 0076
ENCODING 118
SWIDTH 540 0
DWIDTH 21 0
BBX 21 18 0 0
BITMAP
FFE3F8
7FE3F8
7FE3F8
3F80E0
1F80C0
0FC1C0
0FC1C0
0FE180
07E380
07E300
03F700
03F600
01FE00
01FC00
00FC00
00FC00
007800
007800
ENDCHAR
STARTCHAR 0077
ENCODING 119
SWIDTH 771 0
DWIDTH 30 0
BBX 30 18 0 0
BITMAP
FFE0C1FC
7FE1E1FC
7FC1E1FC
3F83F070
1F83F070
1F83F060
0FC7F860
0FC7F8E0
0FCEFCC0
07EEFCC0
07EC7DC0
03FC7F80
03F83F80
03F83F80
01F83F00
01F01F00
01F01F00
00E00E00
ENDCHAR
STARTCHAR 0078
ENCODING 120
SWIDTH 565 0
DWIDTH 22 0
BBX 20 18 1 0
BITMAP
FFEFF0
FFE7E0
7FC7E0
1FC380
1FC700
0FE700
07EE00
03FC00
03FC00
03FC00
03FE00
077F00
0F3F00
1E3F80
1C1FC0
7E3FE0
FE7FF0
FF7FF0
ENDCHAR
STARTCHAR 0079
ENCODING 121
SWIDTH 540 0
DWIDTH 21 0
BBX 21 28 0 -10
BITMAP
FFF3F8
7FE3F8
7FE3F8
3F80E0
1F80E0
0FC0C0
0FC1C0
07E180
07E380
03F380
03F300
01F700
01FE00
01FE00
00FC00
00FC00
007C00
007800
003800
003000
007000
006000
00E000
3FC000
7FC000
7F8000
3F0000
0C0000
ENDCHAR
STARTCHAR 007A
ENCODING 122
SWIDTH 488 0
DWIDTH 19 0
BBX 16 18 2 0
BITMAP
FFFF
FFFF
FFFF
F0FE
F0FC
E1FC
03F8
03F0
07F0
0FE0
0FC0
1FC7
3F87
7F07
7E07
FE1F
FFFF
FFFF
ENDCHAR
STARTCHAR 007B
ENCODING 123
SWIDTH 360 0
DWIDTH 14 0
BBX 12 40 1 -11
BITMAP
0070
01F0
03C0
0780
0F80
0F00
0F00
0F80
0F80
0F80
0F80
0F80
0F80
0F80
0F80
0F80
0F80
1F00
7E00
F000
7E00
3F00
1F80
0F80
0F80
0F80
0F80
0F80
0F80
0F80
0F80
0F80
0F80
0F80
0F80
0780
07C0
03F0
00F0
0010
ENDCHAR
STARTCHAR 007C
ENCODING 124
SWIDTH 180 0
DWIDTH 7 0
BBX 3 38 2 -10
BITMAP
60
E0
E0
E0
E0
E0
E0
E0
E0
E0
E0
E0
E0
E0
E0
E0
E0
E0
E0
E0
E0
E0
E0
E0
E0
E0
E0
E0
E0
E0
E0
E0
E0
E0
E0
E0
E0
80
ENDCHAR
STARTCHAR 007D
ENCODING 125
SWIDTH 360 0
DWIDTH 14 0
BBX 11 40 2 -11
BITMAP
C000
F800
7C00
3E00
1E00
1F00
1F00
1F00
1F00
1F00
1F00
1E00
3E00
3E00
3E00
3F00
1F00
1F80
07E0
01E0
07E0
1F80
1F00
3F00
3F00
3F00
3E00
3E00
1F00
1F00
1F00
1F00
1F00
1F00
1E00
3E00
3C00
F800
F000
8000
ENDCHAR
STARTCHAR 007E
ENCODING 126
SWIDTH 540 0
DWIDTH 21 0
BBX 18 6 2 7
BITMAP
1E0000
3F81C0
7FF780
F3FF00
C07F00
803C00
ENDCHAR
STARTCHAR 00A0
ENCODING 160
SWIDTH 180 0
DWIDTH 7 0
BBX 0 0 0 0
BITMAP
ENDCHAR
STARTCHAR 00A1
ENCODING 161
SWIDTH 385 0
DWIDTH 15 0
BBX 6 28 5 -10
BITMAP
78
FC
FC
FC
FC
78
00
00
00
10
70
78
78
78
78
78
78
78
78
78
78
FC
FC
FC
FC
FC
FC
C0
ENDCHAR
STARTCHAR 00A2
ENCODING 162
SWIDTH 462 0
DWIDTH 18 0
BBX 16 29 1 -5
BITMAP
00C0
00E0
00E0
00E0
00E0
00E0
03FC
0FFF
1FFF
3EEF
7EEE
7CEE
7CEE
FCE0
FCE0
FCE0
FCE0
7CE0
7EE0
7EE0
3FE3
3FFF
1FFE
07FC
00E0
00E0
00E0
00E0
00E0
ENDCHAR
STARTCHAR 00A3
ENCODING 163
SWIDTH 565 0
DWIDTH 22 0
BBX 19 27 2 0
BITMAP
00F000
07FF80
0FFF80
1F0F80
3E0780
3E0780
7E0780
7E0300
7F0000
7F0000
3F8000
3F8000
3FC000
FFFC00
FFFC00
FFFC00
0F8000
0F8000
0F8000
0F0000
0E7800
1DFFE0
1FFFE0
3FFFC0
7FFF80
F07F80
C00F00
ENDCHAR
STARTCHAR 00A4
ENCODING 164
SWIDTH 540 0
DWIDTH 21 0
BBX 17 15 2 3
BITMAP
E3E380
7FFF00
3E3E00
180E00
380E00
300700
300700
300700
380700
380600
1C0E00
1F1E00
3FFF00
73E380
600180
ENDCHAR
STARTCHAR 00A5
ENCODING 165
SWIDTH 617 0
DWIDTH 24 0
BBX 23 26 1 0
BITMAP
FFE0FE
FFE0FE
7F807C
3F8078
1FC070
1FC060
0FC0E0
0FE0C0
07E1C0
07F1C0
03F180
1FFBF0
1FFBF0
1FFFF0
00FE00
00FE00
1FFFF0
1FFFF0
1FFFF0
007C00
00FC00
00FE00
00FE00
01FF00
07FFC0
07FFC0
ENDCHAR
STARTCHAR 00A6
ENCODING 166
SWIDTH 180 0
DWIDTH 7 0
BBX 3 38 2 -10
BITMAP
60
E0
E0
E0
E0
E0
E0
E0
E0
E0
E0
E0
E0
E0
E0
C0
00
00
00
00
00
E0
E0
E0
E0
E0
E0
E0
E0
E0
E0
E0
E0
E0
E0
E0
E0
80
ENDCHAR
STARTCHAR 00A7
ENCODING 167
SWIDTH 565 0
DWIDTH 22 0
BBX 18 37 2 -9
BITMAP
01E000
0FFE00
1FFE00
3C1C00
3C1E00
3C0E00
3C0C00
3E0000
3F0000
3FC000
1FF000
1FFC00
0FFE00
1FFF00
7DFF80
787F80
F01FC0
F00FC0
F007C0
F807C0
FC07C0
FE0780
FF8F80
7FFF00
3FFC00
1FF800
0FFC00
03FE00
00FE00
003F00
081F00
180F00
1C0F00
1C0E00
1E1E00
1FFC00
0FF800
ENDCHAR
STARTCHAR 00A8
ENCODING 168
SWIDTH 282 0
DWIDTH 11 0
BBX 15 6 -2 20
BITMAP
1018
7C3E
7C7E
FC7E
7C3E
381C
ENDCHAR
STARTCHAR 00A9
ENCODING 169
SWIDTH 797 0
DWIDTH 31 0
BBX 27 26 2 -4
BITMAP
007FC000
01FFF000
07C03C00
0F000E00
1C060700
183FE380
38FFF180
71F0E1C0
61E060C0
63E060E0
63E06060
E3E00060
E3E00060
E3E00060
E3E00060
E3E00060
63E000E0
61F000C0
71F830C0
38FFE180
387FC380
1C1F0700
0F000E00
07C03C00
01FFF800
007FE000
ENDCHAR
STARTCHAR 00AA
ENCODING 170
SWIDTH 437 0
DWIDTH 17 0
BBX 13 14 2 14
BITMAP
1F80
7FE0
71E0
71F0
61F0
01F0
1FF0
7DF0
F1F0
F1F0
F1F0
FFF8
FFF8
7CC0
ENDCHAR
STARTCHAR 00AB
ENCODING 171
SWIDTH 488 0
DWIDTH 19 0
BBX 15 13 2 3
BITMAP
0306
070E
1E1C
3C3C
7878
78F0
F8F0
7CF8
3C7C
1E3C
0E1E
070E
0304
ENDCHAR
STARTCHAR 00AC
ENCODING 172
SWIDTH 540 0
DWIDTH 21 0
BBX 17 10 2 4
BITMAP
FFFF80
FFFF80
FFFF80
000180
000180
000180
000180
000180
000180
000180
ENDCHAR
STARTCHAR 00AD
ENCODING 173
SWIDTH 411 0
DWIDTH 16 0
BBX 12 4 2 8
BITMAP
7FF0
7FF0
FFF0
FFE0
ENDCHAR
STARTCHAR 00AE
ENCODING 174
SWIDTH 514 0
DWIDTH 20 0
BBX 16 16 2 15
BITMAP
03C0
0FF8
1C1C
300E
63C7
6363
4333
C321
C3E1
C3C3
6363
6333
7006
380E
1FFC
07F0
ENDCHAR
STARTCHAR 00AF
ENCODING 175
SWIDTH 282 0
DWIDTH 11 0
BBX 14 3 -1 22
BITMAP
FFFC
FFFC
FFC0
ENDCHAR
STARTCHAR 00B0
ENCODING 176
SWIDTH 385 0
DWIDTH 15 0
BBX 12 10 2 17
BITMAP
1F80
3FC0
71E0
F0E0
F0F0
F0F0
F0E0
78E0
3FC0
1F80
ENDCHAR
STARTCHAR 00B1
ENCODING 177
SWIDTH 540 0
DWIDTH 21 0
BBX 17 17 2 2
BITMAP
01C000
01C000
01C000
01C000
01C000
3FFF00
3FFF00
7FFF00
01C000
01C000
01C000
01C000
01C000
010000
000000
FFFF80
FFFF80
ENDCHAR
STARTCHAR 00B2
ENCODING 178
SWIDTH 360 0
DWIDTH 14 0
BBX 12 14 1 16
BITMAP
1F80
7FE0
7BE0
71E0
71E0
71E0
03E0
03C0
0700
0E30
1CF0
7FF0
FFF0
7FF0
ENDCHAR
STARTCHAR 00B3
ENCODING 179
SWIDTH 385 0
DWIDTH 15 0
BBX 12 19 1 11
BITMAP
4020
7FE0
7FE0
7FC0
71C0
2380
0700
0E00
0FC0
0FE0
01F0
00F0
00F0
00F0
00F0
01F0
77E0
FFC0
1E00
ENDCHAR
STARTCHAR 00B4
ENCODING 180
SWIDTH 282 0
DWIDTH 11 0
BBX 7 7 2 21
BITMAP
3E
3E
3C
78
70
70
E0
ENDCHAR
STARTCHAR 00B5
ENCODING 181
SWIDTH 617 0
DWIDTH 24 0
BBX 23 28 1 -10
BITMAP
070070
7F0FF0
FF0FF0
7F07F0
1F03F0
1F01F0
1F01F0
1F01F0
1F01F0
1F01F0
1F03F0
1F03F0
1F03F0
1F83F0
1F87F8
1FFFFE
1FFDFE
1FF0E0
1E0000
1E0000
1E0000
1F0000
1F0000
1F0000
1F0000
1E0000
180000
100000
ENDCHAR
STARTCHAR 00B6
ENCODING 182
SWIDTH 565 0
DWIDTH 22 0
BBX 21 36 1 -10
BITMAP
07FFF8
1FFFF8
3F1DE0
7E1DC0
7C1DC0
7C1DC0
FC1DC0
FC1DC0
FC1DC0
7E1DC0
7E1DC0
3F9DC0
3FFDC0
0FFDC0
001DC0
001DC0
001DC0
001DC0
001DC0
001DC0
001DC0
001DC0
001DC0
001DC0
001DC0
001DC0
001DC0
001DC0
001DC0
001DC0
001DC0
001DC0
001DC0
001DC0
001DC0
001180
ENDCHAR
STARTCHAR 00B7
ENCODING 183
SWIDTH 282 0
DWIDTH 11 0
BBX 7 6 2 7
BITMAP
3C
7C
FE
FE
7C
38
ENDCHAR
STARTCHAR 00B8
ENCODING 184
SWIDTH 282 0
DWIDTH 11 0
BBX 6 10 3 -9
BITMAP
30
70
E0
F0
F8
3C
1C
1C
78
F0
ENDCHAR
STARTCHAR 00B9
ENCODING 185
SWIDTH 308 0
DWIDTH 12 0
BBX 9 14 2 16
BITMAP
F780
FF80
FF80
3E00
3E00
3E00
3E00
3E00
3E00
3E00
3E00
3E00
FF80
FF80
ENDCHAR
STARTCHAR 00BA
ENCODING 186
SWIDTH 411 0
DWIDTH 16 0
BBX 15 14 1 14
BITMAP
07C0
1FF0
3CF8
787C
787C
783C
F83E
F83E
F83C
783C
7C3C
7C78
3FF0
0FE0
ENDCHAR
STARTCHAR 00BB
ENCODING 187
SWIDTH 488 0
DWIDTH 19 0
BBX 15 13 3 3
BITMAP
C180
E1C0
F0F0
78F8
7C7C
3E3C
1E3E
3C3C
7C78
78F0
F0E0
E1C0
4180
ENDCHAR
STARTCHAR 00BC
ENCODING 188
SWIDTH 848 0
DWIDTH 33 0
BBX 31 28 2 0
BITMAP
0F000040
FF0000E0
FF0001E0
3F0003C0
1F000380
1F000700
1F000F00
1F000E00
1F001C00
1F003800
1F007840
1F0070F0
1F00E1F0
1F01C1F0
1F83C3F0
FFE386F0
FFE70EF0
000E1CF0
001E18F0
001C30F0
00387FFC
00787FFE
00707FFC
00E07FFC
01C000F0
03C001F0
038007FC
070007FC
ENDCHAR
STARTCHAR 00BD
ENCODING 189
SWIDTH 977 0
DWIDTH 38 0
BBX 35 28 2 0
BITMAP
0F00004000
FF0000E000
FF0001E000
3F0003C000
1F00038000
1F00070000
1F000F0000
1F000E0000
1F001C0000
1F00380000
1F00780000
1F0073FF80
1F00E3FFC0
1F01C3C7C0
1F83C387C0
FFE38387C0
FFE70387C0
000E0007C0
001E000F80
001C001F00
0038003E00
00780078E0
007000F0E0
00E001FFE0
01C003FFE0
03C003FFE0
038003FFE0
070003FFE0
ENDCHAR
STARTCHAR 00BE
ENCODING 190
SWIDTH 848 0
DWIDTH 33 0
BBX 31 28 1 0
BITMAP
7FF00060
7FF000F0
7FE000E0
7FC001C0
E1C00380
63800780
07000700
0FC00E00
1FE01E00
0FF01C00
01F03840
01F870F0
00F0F0F0
01F0E1F0
03F1C3F0
FFE387F0
7F8786F0
00070CF0
000E1CF0
001C38F0
003C7FFE
00387FFE
00707FFE
00F03FFE
01E000F0
01C001F8
038007FC
038007FC
ENDCHAR
STARTCHAR 00BF
ENCODING 191
SWIDTH 514 0
DWIDTH 20 0
BBX 13 28 3 -10
BITMAP
0780
0FC0
1FC0
1FC0
1FC0
0F80
0000
0000
0300
0780
0780
0380
03C0
07C0
07C0
0F80
1F80
3F00
3E00
7C00
FC00
F838
F838
F838
FC78
FEF8
7FF8
1FE0
ENDCHAR
STARTCHAR 00C0
ENCODING 192
SWIDTH 694 0
DWIDTH 27 0
BBX 26 34 1 0
BITMAP
00F00000
00F80000
00780000
003C0000
001C0000
00000000
00000000
00040000
001C0000
001C0000
003E0000
003E0000
007F0000
007F0000
00FF8000
00DF8000
00DFC000
01CFC000
018FC000
0387E000
0387E000
0307F000
0703F000
0603F800
0FFFF800
0FFFFC00
0FFFFC00
1C00FC00
1C00FE00
38007E00
38007F00
7C00FF80
FE01FFC0
FE01FFC0
ENDCHAR
STARTCHAR 00C1
ENCODING 193
SWIDTH 694 0
DWIDTH 27 0
BBX 26 34 1 0
BITMAP
000F8000
000F0000
000F0000
001E0000
001C0000
00000000
00000000
00040000
001C0000
001C0000
003E0000
003E0000
007F0000
007F0000
00FF8000
00DF8000
00DFC000
01CFC000
018FC000
0387E000
0387E000
0307F000
0703F000
0603F800
0FFFF800
0FFFFC00
0FFFFC00
1C00FC00
1C00FE00
38007E00
38007F00
7C00FF80
FE01FFC0
FE01FFC0
ENDCHAR
STARTCHAR 00C2
ENCODING 194
SWIDTH 694 0
DWIDTH 27 0
BBX 26 34 1 0
BITMAP
001E0000
007F0000
00FF8000
03F7C000
03C3E000
01008000
00000000
00040000
001C0000
001C0000
003E0000
003E0000
007F0000
007F0000
00FF8000
00DF8000
00DFC000
01CFC000
018FC000
0387E000
0387E000
0307F000
0703F000
0603F800
0FFFF800
0FFFFC00
0FFFFC00
1C00FC00
1C00FE00
38007E00
38007F00
7C00FF80
FE01FFC0
FE01FFC0
ENDCHAR
STARTCHAR 00C3
ENCODING 195
SWIDTH 694 0
DWIDTH 27 0
BBX 26 34 1 0
BITMAP
00700000
01FC7000
03FFE000
07FFC000
020F8000
00000000
00000000
00040000
001C0000
001C0000
003E0000
003E0000
007F0000
007F0000
00FF8000
00DF8000
00DFC000
01CFC000
018FC000
0387E000
0387E000
0307F000
0703F000
0603F800
0FFFF800
0FFFFC00
0FFFFC00
1C00FC00
1C00FE00
38007E00
38007F00
7C00FF80
FE01FFC0
FE01FFC0
ENDCHAR
STARTCHAR 00C4
ENCODING 196
SWIDTH 694 0
DWIDTH 27 0
BBX 26 34 1 0
BITMAP
0180C000
03E3E000
07E3F000
07E3F000
07E3E000
0181C000
00000000
00040000
001C0000
001C0000
003E0000
003E0000
007F0000
007F0000
00FF8000
00DF8000
00DFC000
01CFC000
018FC000
0387E000
0387E000
0307F000
0703F000
0603F800
0FFFF800
0FFFFC00
0FFFFC00
1C00FC00
1C00FE00
38007E00
38007F00
7C00FF80
FE01FFC0
FE01FFC0
ENDCHAR
STARTCHAR 00C5
ENCODING 197
SWIDTH 694 0
DWIDTH 27 0
BBX 26 35 1 0
BITMAP
00080000
007F0000
00E38000
00E38000
00E38000
00F70000
003E0000
00000000
00040000
001C0000
001C0000
003E0000
003E0000
007F0000
007F0000
00FF8000
00DF8000
00DFC000
01CFC000
018FC000
0387E000
0387E000
0307F000
0703F000
0603F800
0FFFF800
0FFFFC00
0FFFFC00
1C00FC00
1C00FE00
38007E00
38007F00
7C00FF80
FE01FFC0
FE01FFC0
ENDCHAR
STARTCHAR 00C6
ENCODING 198
SWIDTH 951 0
DWIDTH 37 0
BBX 35 26 1 0
BITMAP
001FFFFF80
001FFFFF80
0007FE0F80
00077E0380
00077E0380
000E7E01C0
000E7E0180
001C7E0000
001C7E0000
00387E1C00
00307E1C00
00707E1C00
00FFFFFC00
00FFFFFC00
01FFFFFC00
01C07E1C00
03807E1C00
03007E1C00
07007E0000
0E007E00E0
0E007E00E0
1C007E01E0
3C007E03C0
7E01FF1FC0
FF03FFFFC0
FF03FFFFC0
ENDCHAR
STARTCHAR 00C7
ENCODING 199
SWIDTH 642 0
DWIDTH 25 0
BBX 23 36 1 -9
BITMAP
000F00
00FFF0
03FFFC
07C07C
0F803C
1F003C
3F003C
3E001C
7E001C
7E0000
7E0000
FC0000
FC0000
FC0000
FE0000
FE0000
7E0000
7E0000
7E0000
7F0000
3F0000
3F8000
1FC000
0FF01E
07FFFC
03FFF8
00FFC0
000C00
001800
003E00
003F00
000F00
000700
000700
000F00
003E00
ENDCHAR
STARTCHAR 00C8
ENCODING 200
SWIDTH 617 0
DWIDTH 24 0
BBX 21 34 2 0
BITMAP
07C000
03C000
03C000
01E000
00F000
000000
000000
000000
FFFFE0
FFFFE0
3F03E0
3F00E0
3F00E0
3F0070
1F0060
1F0000
1F0100
1F0700
1F0700
1F1F00
1FFF00
1FFF00
1F0F00
1F0700
1F0700
1F0000
1F0000
1F0038
3F0038
3F8078
3F80F8
7FE7F0
FFFFF0
FFFFF0
ENDCHAR
STARTCHAR 00C9
ENCODING 201
SWIDTH 617 0
DWIDTH 24 0
BBX 21 34 2 0
BITMAP
003E00
007C00
007800
00F000
00E000
000000
000000
000000
FFFFE0
FFFFE0
3F03E0
3F00E0
3F00E0
3F0070
1F0060
1F0000
1F0100
1F0700
1F0700
1F1F00
1FFF00
1FFF00
1F0F00
1F0700
1F0700
1F0000
1F0000
1F0038
3F0038
3F8078
3F80F8
7FE7F0
FFFFF0
FFFFF0
ENDCHAR
STARTCHAR 00CA
ENCODING 202
SWIDTH 617 0
DWIDTH 24 0
BBX 21 34 2 0
BITMAP
00F000
01F800
07FC00
0FBF00
1E0F00
080200
000000
000000
FFFFE0
FFFFE0
3F03E0
3F00E0
3F00E0
3F0070
1F0060
1F0000
1F0100
1F0700
1F0700
1F1F00
1FFF00
1FFF00
1F0F00
1F0700
1F0700
1F0000
1F0000
1F0038
3F0038
3F8078
3F80F8
7FE7F0
FFFFF0
FFFFF0
ENDCHAR
STARTCHAR 00CB
ENCODING 203
SWIDTH 617 0
DWIDTH 24 0
BBX 21 34 2 0
BITMAP
0C0600
1F1F80
3F1F80
3F1F80
1F0F80
0E0700
000000
000000
FFFFE0
FFFFE0
3F03E0
3F00E0
3F00E0
3F0070
1F0060
1F0000
1F0100
1F0700
1F0700
1F1F00
1FFF00
1FFF00
1F0F00
1F0700
1F0700
1F0000
1F0000
1F0038
3F0038
3F8078
3F80F8
7FE7F0
FFFFF0
FFFFF0
ENDCHAR
STARTCHAR 00CC
ENCODING 204
SWIDTH 360 0
DWIDTH 14 0
BBX 11 34 2 0
BITMAP
7800
7C00
3C00
1E00
0E00
0000
0000
0000
FFE0
FFE0
3F80
3F80
3F00
3F00
1F00
1F00
1F00
1F00
1F00
1F00
1F00
1F00
1F00
1F00
1F00
1F00
1F00
1F00
3F00
3F00
3F80
7FC0
FFE0
FFE0
ENDCHAR
STARTCHAR 00CD
ENCODING 205
SWIDTH 360 0
DWIDTH 14 0
BBX 11 34 2 0
BITMAP
07C0
0780
0780
0F00
0E00
0000
0000
0000
FFE0
FFE0
3F80
3F80
3F00
3F00
1F00
1F00
1F00
1F00
1F00
1F00
1F00
1F00
1F00
1F00
1F00
1F00
1F00
1F00
3F00
3F00
3F80
7FC0
FFE0
FFE0
ENDCHAR
STARTCHAR 00CE
ENCODING 206
SWIDTH 360 0
DWIDTH 14 0
BBX 11 34 2 0
BITMAP
0E00
1F00
3F80
7FC0
F3E0
C1E0
0000
0000
FFE0
FFE0
3F80
3F80
3F00
3F00
1F00
1F00
1F00
1F00
1F00
1F00
1F00
1F00
1F00
1F00
1F00
1F00
1F00
1F00
3F00
3F00
3F80
7FC0
FFE0
FFE0
ENDCHAR
STARTCHAR 00CF
ENCODING 207
SWIDTH 360 0
DWIDTH 14 0
BBX 13 33 1 0
BITMAP
F8F0
FDF8
FDF8
F9F8
70F0
0000
0000
7FF0
7FF0
1FC0
1FC0
1F80
1F80
0F80
0F80
0F80
0F80
0F80
0F80
0F80
0F80
0F80
0F80
0F80
0F80
0F80
0F80
1F80
1F80
1FC0
3FE0
7FF0
7FF0
ENDCHAR
STARTCHAR 00D0
ENCODING 208
SWIDTH 720 0
DWIDTH 28 0
BBX 26 26 1 0
BITMAP
7FFFE000
7FFFF800
1F81FE00
1F807F00
1F803F00
0F803F80
0F801F80
0F801FC0
0F800FC0
0F800FC0
0F800FC0
FFFE0FC0
FFFC0FC0
FFFC0FC0
0F800FC0
0F800FC0
0F800FC0
0F800F80
0F801F80
0F801F80
1F801F00
1FC03E00
1FC07C00
3FF7F800
7FFFE000
7FFF0000
ENDCHAR
STARTCHAR 00D1
ENCODING 209
SWIDTH 720 0
DWIDTH 28 0
BBX 26 34 1 0
BITMAP
00780000
01FE3800
03FFF000
03FFE000
0107C000
00000000
00000000
00000000
FF803FC0
FF803FC0
1FC00F00
1FE00F00
0FF00600
0FF00600
0FF80600
0FFC0600
0DFE0600
0CFE0600
0C7F0600
0C7F8600
0C3FC600
0C1FC600
0C0FE600
0C0FF600
0C07FE00
0C03FE00
1C01FE00
1C01FE00
1C00FE00
1C007E00
1E003E00
3F003E00
FF801E00
FF800E00
ENDCHAR
STARTCHAR 00D2
ENCODING 210
SWIDTH 745 0
DWIDTH 29 0
BBX 27 34 1 0
BITMAP
00780000
007C0000
003C0000
001E0000
000E0000
00000000
00000000
001E0000
00FFE000
03FFF800
07C0FE00
0F807E00
1F003F00
3F001F80
3E001F80
7E000FC0
7E000FC0
7E000FC0
FC000FE0
FC000FE0
FC0007E0
FC0007E0
FE0007E0
7E000FC0
7E000FC0
7E000FC0
7F000FC0
3F000F80
3F801F80
1F803F00
0FC03E00
07F0FC00
03FFF800
007FC000
ENDCHAR
STARTCHAR 00D3
ENCODING 211
SWIDTH 745 0
DWIDTH 29 0
BBX 27 34 1 0
BITMAP
0003C000
00078000
00078000
000F0000
000E0000
00000000
00000000
001E0000
00FFE000
03FFF800
07C0FE00
0F807E00
1F003F00
3F001F80
3E001F80
7E000FC0
7E000FC0
7E000FC0
FC000FE0
FC000FE0
FC0007E0
FC0007E0
FE0007E0
7E000FC0
7E000FC0
7E000FC0
7F000FC0
3F000F80
3F801F80
1F803F00
0FC03E00
07F0FC00
03FFF800
007FC000
ENDCHAR
STARTCHAR 00D4
ENCODING 212
SWIDTH 745 0
DWIDTH 29 0
BBX 27 34 1 0
BITMAP
000F0000
003F8000
007FC000
01FBE000
01E0F000
00804000
00000000
001E0000
00FFE000
03FFF800
07C0FE00
0F807E00
1F003F00
3F001F80
3E001F80
7E000FC0
7E000FC0
7E000FC0
FC000FE0
FC000FE0
FC0007E0
FC0007E0
FE0007E0
7E000FC0
7E000FC0
7E000FC0
7F000FC0
3F000F80
3F801F80
1F803F00
0FC03E00
07F0FC00
03FFF800
007FC000
ENDCHAR
STARTCHAR 00D5
ENCODING 213
SWIDTH 745 0
DWIDTH 29 0
BBX 27 34 1 0
BITMAP
00380000
00FE3800
01FFF000
03FFE000
0107C000
00000000
00000000
001E0000
00FFE000
03FFF800
07C0FE00
0F807E00
1F003F00
3F001F80
3E001F80
7E000FC0
7E000FC0
7E000FC0
FC000FE0
FC000FE0
FC0007E0
FC0007E0
FE0007E0
7E000FC0
7E000FC0
7E000FC0
7F000FC0
3F000F80
3F801F80
1F803F00
0FC03E00
07F0FC00
03FFF800
007FC000
ENDCHAR
STARTCHAR 00D6
ENCODING 214
SWIDTH 745 0
DWIDTH 29 0
BBX 27 34 1 0
BITMAP
00C06000
01F1F000
03F1F800
03F1F800
01F1F800
00E07000
00000000
001E0000
00FFE000
03FFF800
07C0FE00
0F807E00
1F003F00
3F001F80
3E001F80
7E000FC0
7E000FC0
7E000FC0
FC000FE0
FC000FE0
FC0007E0
FC0007E0
FE0007E0
7E000FC0
7E000FC0
7E000FC0
7F000FC0
3F000F80
3F801F80
1F803F00
0FC03E00
07F0FC00
03FFF800
007FC000
ENDCHAR
STARTCHAR 00D7
ENCODING 215
SWIDTH 540 0
DWIDTH 21 0
BBX 18 18 2 1
BITMAP
E003C0
F00380
700700
380E00
1C1C00
0E3800
077800
07F000
03E000
03E000
07F000
077800
0E3C00
1C1E00
380F00
780780
F00380
E00180
ENDCHAR
STARTCHAR 00D8
ENCODING 216
SWIDTH 745 0
DWIDTH 29 0
BBX 27 28 1 -1
BITMAP
001E03C0
00FFE380
03FFFF00
07C0FF00
0F807F00
1F003F00
3F003F80
3E007F80
7E00FFC0
7E01EFC0
7E03CFC0
FC038FE0
FC070FE0
FC0F07E0
FC1E07E0
FE1C07E0
7E380FC0
7E780FC0
7EF00FC0
7FE00FC0
3FC00F80
3FC01F80
1F803F00
0FC03E00
1FF0FC00
1FFFF800
38FFC000
38000000
ENDCHAR
STARTCHAR 00D9
ENCODING 217
SWIDTH 668 0
DWIDTH 26 0
BBX 24 34 1 0
BITMAP
007C00
003C00
001E00
000E00
000F00
000000
000000
000000
FFE0FF
FFE0FF
3F803E
1F801C
1F801C
1F801C
1F801C
1F801C
1F801C
1F801C
1F801C
1F801C
1F801C
1F801C
1F801C
1F801C
1F801C
1F801C
1F801C
1F8018
1F8018
1FC038
0FE078
07F9F0
03FFE0
01FFC0
ENDCHAR
STARTCHAR 00DA
ENCODING 218
SWIDTH 668 0
DWIDTH 26 0
BBX 24 34 1 0
BITMAP
0003E0
0003C0
000780
000700
000E00
000000
000000
000000
FFE0FF
FFE0FF
3F803E
1F801C
1F801C
1F801C
1F801C
1F801C
1F801C
1F801C
1F801C
1F801C
1F801C
1F801C
1F801C
1F801C
1F801C
1F801C
1F801C
1F8018
1F8018
1FC038
0FE078
07F9F0
03FFE0
01FFC0
ENDCHAR
STARTCHAR 00DB
ENCODING 219
SWIDTH 668 0
DWIDTH 26 0
BBX 24 34 1 0
BITMAP
000F00
001F80
007FE0
00FBF0
01E0F0
008020
000000
000000
FFE0FF
FFE0FF
3F803E
1F801C
1F801C
1F801C
1F801C
1F801C
1F801C
1F801C
1F801C
1F801C
1F801C
1F801C
1F801C
1F801C
1F801C
1F801C
1F801C
1F8018
1F8018
1FC038
0FE078
07F9F0
03FFE0
01FFC0
ENDCHAR
STARTCHAR 00DC
ENCODING 220
SWIDTH 668 0
DWIDTH 26 0
BBX 24 34 1 0
BITMAP
00E060
01F0F8
01F1F8
01F1F8
01F0F8
00E070
000000
000000
FFE0FF
FFE0FF
3F803E
1F801C
1F801C
1F801C
1F801C
1F801C
1F801C
1F801C
1F801C
1F801C
1F801C
1F801C
1F801C
1F801C
1F801C
1F801C
1F801C
1F8018
1F8018
1FC038
0FE078
07F9F0
03FFE0
01FFC0
ENDCHAR
STARTCHAR 00DD
ENCODING 221
SWIDTH 617 0
DWIDTH 24 0
BBX 23 34 1 0
BITMAP
0007C0
000780
000F00
000E00
001E00
000000
000000
000000
FFE0FE
FFE0FE
7F807C
3F8078
1FC070
1FC060
0FC0E0
0FE0C0
07E1C0
07F1C0
03F180
03FB80
01FB00
01FF00
00FE00
00FE00
007C00
007C00
007C00
007C00
00FC00
00FE00
00FE00
01FF00
07FFC0
07FFC0
ENDCHAR
STARTCHAR 00DE
ENCODING 222
SWIDTH 617 0
DWIDTH 24 0
BBX 21 26 2 0
BITMAP
FFE000
FFE000
3F8000
3F8000
3F0000
3FFF80
1FFFE0
1F0FF0
1F03F8
1F01F8
1F01F8
1F00F8
1F00F8
1F00F8
1F00F8
1F01F8
1F01F0
1F07E0
1F3FC0
1F3F00
3F0000
3F8000
3F8000
7FE000
FFF000
FFF000
ENDCHAR
STARTCHAR 00DF
ENCODING 223
SWIDTH 668 0
DWIDTH 26 0
BBX 24 28 1 0
BITMAP
003F00
01FFC0
03FFF0
07C1F0
0F80F8
0F80F8
0F80F0
1F80F0
1F81E0
1F83C0
1F8780
FF8F00
FF9F00
1F9F80
1F9FC0
1F9FF0
1F9FF8
1F8FFE
1F87FE
1F81FF
1F807F
1F803F
1F9C1F
1F9C1F
1F9C1F
3F9E3E
FF9FFC
FF8FF0
ENDCHAR
STARTCHAR 00E0
ENCODING 224
SWIDTH 540 0
DWIDTH 21 0
BBX 18 28 3 0
BITMAP
1C0000
3E0000
1E0000
0F0000
0F0000
070000
038000
000000
000000
000000
03F000
0FFC00
3FFC00
78FE00
F87E00
F87E00
F87E00
007E00
03FE00
0FFE00
3E7E00
F87E00
F87E00
F87E00
F87F00
FEFFC0
FFBFC0
7F3F00
ENDCHAR
STARTCHAR 00E1
ENCODING 225
SWIDTH 540 0
DWIDTH 21 0
BBX 18 28 3 0
BITMAP
00F800
01F000
01E000
01C000
03C000
038000
070000
000000
000000
000000
03F000
0FFC00
3FFC00
78FE00
F87E00
F87E00
F87E00
007E00
03FE00
0FFE00
3E7E00
F87E00
F87E00
F87E00
F87F00
FEFFC0
FFBFC0
7F3F00
ENDCHAR
STARTCHAR 00E2
ENCODING 226
SWIDTH 540 0
DWIDTH 21 0
BBX 18 28 3 0
BITMAP
038000
07C000
0FE000
1FF000
3FF800
787C00
E03E00
400800
000000
000000
03F000
0FFC00
3FFC00
78FE00
F87E00
F87E00
F87E00
007E00
03FE00
0FFE00
3E7E00
F87E00
F87E00
F87E00
F87F00
FEFFC0
FFBFC0
7F3F00
ENDCHAR
STARTCHAR 00E3
ENCODING 227
SWIDTH 540 0
DWIDTH 21 0
BBX 18 26 3 0
BITMAP
3E0C00
7FFC00
FFF800
C3F000
80E000
000000
000000
000000
03F000
0FFC00
3FFC00
78FE00
F87E00
F87E00
F87E00
007E00
03FE00
0FFE00
3E7E00
F87E00
F87E00
F87E00
F87F00
FEFFC0
FFBFC0
7F3F00
ENDCHAR
STARTCHAR 00E4
ENCODING 228
SWIDTH 540 0
DWIDTH 21 0
BBX 18 26 3 0
BITMAP
303000
F87C00
FCFC00
FCFC00
F87C00
703800
000000
000000
03F000
0FFC00
3FFC00
78FE00
F87E00
F87E00
F87E00
007E00
03FE00
0FFE00
3E7E00
F87E00
F87E00
F87E00
F87F00
FEFFC0
FFBFC0
7F3F00
ENDCHAR
STARTCHAR 00E5
ENCODING 229
SWIDTH 540 0
DWIDTH 21 0
BBX 18 28 3 0
BITMAP
078000
1FE000
1CE000
38F000
3CF000
1CE000
1FC000
070000
000000
000000
03F000
0FFC00
3FFC00
78FE00
F87E00
F87E00
F87E00
007E00
03FE00
0FFE00
3E7E00
F87E00
F87E00
F87E00
F87F00
FEFFC0
FFBFC0
7F3F00
ENDCHAR
STARTCHAR 00E6
ENCODING 230
SWIDTH 720 0
DWIDTH 28 0
BBX 26 18 1 0
BITMAP
0FF0FC00
3FFBFE00
3E7F9F00
3C3F0F80
383F0780
383F07C0
003F07C0
003FFFC0
07FFFF80
1FFFFE00
3E3F0000
7C3F0000
783F0000
F83F8000
FC7FC180
7FEFFFC0
7FE7FF80
3F81FE00
ENDCHAR
STARTCHAR 00E7
ENCODING 231
SWIDTH 462 0
DWIDTH 18 0
BBX 16 27 1 -9
BITMAP
03FC
0FFF
1F1F
3E0F
7E0E
7C0E
7C0E
FC00
FC00
FC00
FC00
7C00
7E00
7E00
3F03
3FFF
1FFE
07FC
00E0
01C0
01E0
01F0
0078
0038
0038
00F0
01E0
ENDCHAR
STARTCHAR 00E8
ENCODING 232
SWIDTH 488 0
DWIDTH 19 0
BBX 17 28 1 0
BITMAP
078000
0F8000
078000
03C000
01C000
01E000
00E000
000000
000000
000000
03F800
0FFE00
1F3F00
3E1F00
7C0F80
7C0F80
7C0F80
FC0F80
FFFF80
FFFF80
FC0000
7C0000
7E0000
7E0000
3F0180
3FFF80
1FFF00
07FC00
ENDCHAR
STARTCHAR 00E9
ENCODING 233
SWIDTH 488 0
DWIDTH 19 0
BBX 17 28 1 0
BITMAP
003E00
003C00
007C00
007800
007000
00E000
00E000
000000
000000
000000
03F800
0FFE00
1F3F00
3E1F00
7C0F80
7C0F80
7C0F80
FC0F80
FFFF80
FFFF80
FC0000
7C0000
7E0000
7E0000
3F0180
3FFF80
1FFF00
07FC00
ENDCHAR
STARTCHAR 00EA
ENCODING 234
SWIDTH 488 0
DWIDTH 19 0
BBX 17 28 1 0
BITMAP
006000
00F000
01F800
03FC00
0FFE00
1E1F00
3C0780
100300
000000
000000
03F800
0FFE00
1F3F00
3E1F00
7C0F80
7C0F80
7C0F80
FC0F80
FFFF80
FFFF80
FC0000
7C0000
7E0000
7E0000
3F0180
3FFF80
1FFF00
07FC00
ENDCHAR
STARTCHAR 00EB
ENCODING 235
SWIDTH 488 0
DWIDTH 19 0
BBX 17 26 1 0
BITMAP
0C0400
3E1F00
3F1F80
3F1F80
3E1F00
1C0E00
000000
000000
03F800
0FFE00
1F3F00
3E1F00
7C0F80
7C0F80
7C0F80
FC0F80
FFFF80
FFFF80
FC0000
7C0000
7E0000
7E0000
3F0180
3FFF80
1FFF00
07FC00
ENDCHAR
STARTCHAR 00EC
ENCODING 236
SWIDTH 334 0
DWIDTH 13 0
BBX 11 28 1 0
BITMAP
7800
F800
7C00
3C00
1E00
0E00
0F00
0000
0000
0000
0300
7F80
FF80
7F80
1F80
1F80
1F80
1F80
1F80
1F80
1F80
1F80
1F80
1F80
1F80
3FC0
FFE0
FFE0
ENDCHAR
STARTCHAR 00ED
ENCODING 237
SWIDTH 334 0
DWIDTH 13 0
BBX 11 28 1 0
BITMAP
03E0
03E0
03C0
0780
0700
0700
0E00
0000
0000
0000
0300
7F80
FF80
7F80
1F80
1F80
1F80
1F80
1F80
1F80
1F80
1F80
1F80
1F80
1F80
3FC0
FFE0
FFE0
ENDCHAR
STARTCHAR 00EE
ENCODING 238
SWIDTH 334 0
DWIDTH 13 0
BBX 12 28 1 0
BITMAP
0600
0F00
1F80
3F80
7FC0
F1E0
E0F0
4040
0000
0000
0300
7F80
FF80
7F80
1F80
1F80
1F80
1F80
1F80
1F80
1F80
1F80
1F80
1F80
1F80
3FC0
FFE0
FFE0
ENDCHAR
STARTCHAR 00EF
ENCODING 239
SWIDTH 334 0
DWIDTH 13 0
BBX 13 26 0 0
BITMAP
3060
F8F8
FDF8
FDF8
FCF8
7870
0000
0000
0180
3FC0
7FC0
3FC0
0FC0
0FC0
0FC0
0FC0
0FC0
0FC0
0FC0
0FC0
0FC0
0FC0
0FC0
1FE0
7FF0
7FF0
ENDCHAR
STARTCHAR 00F0
ENCODING 240
SWIDTH 540 0
DWIDTH 21 0
BBX 20 28 1 0
BITMAP
00C000
0FF000
0FF9C0
07FFC0
01FF80
007F00
01FF80
03FF80
038FC0
020FC0
03F7E0
0FFFE0
1FDFE0
3E03E0
7E03E0
7C03F0
7C03F0
FC03F0
FC03F0
FC03E0
FC03E0
FC03E0
7C07E0
7E07C0
3E07C0
3F9F80
1FFF00
07FC00
ENDCHAR
STARTCHAR 00F1
ENCODING 241
SWIDTH 642 0
DWIDTH 25 0
BBX 23 26 1 0
BITMAP
01F060
07FFE0
07FFC0
061F80
040700
000000
000000
000000
030FC0
7FBFE0
FFFFF0
7FFFF8
1F81F8
1F81F8
1F81F8
1F80F8
1F80F8
1F80F8
1F80F8
1F80F8
1F80F8
1F81F8
1F81F8
3FC3FC
FFE7FE
FFE7FE
ENDCHAR
STARTCHAR 00F2
ENCODING 242
SWIDTH 565 0
DWIDTH 22 0
BBX 20 28 1 0
BITMAP
038000
07C000
03C000
01E000
01E000
00E000
007000
000000
000000
000000
03FC00
0FFF00
1F9FC0
3E0FC0
7E07E0
7C07E0
7C03F0
FC03F0
FC03F0
FC03F0
FC03F0
7C03F0
7E03E0
7E03E0
3F07C0
3F8FC0
0FFF00
07FE00
ENDCHAR
STARTCHAR 00F3
ENCODING 243
SWIDTH 565 0
DWIDTH 22 0
BBX 20 28 1 0
BITMAP
001F00
003E00
003C00
003800
007800
007000
00E000
000000
000000
000000
03FC00
0FFF00
1F9FC0
3E0FC0
7E07E0
7C07E0
7C03F0
FC03F0
FC03F0
FC03F0
FC03F0
7C03F0
7E03E0
7E03E0
3F07C0
3F8FC0
0FFF00
07FE00
ENDCHAR
STARTCHAR 00F4
ENCODING 244
SWIDTH 565 0
DWIDTH 22 0
BBX 20 28 1 0
BITMAP
007000
00F800
01FC00
03FE00
07FF00
0F0F80
1C07C0
080100
000000
000000
03FC00
0FFF00
1F9FC0
3E0FC0
7E07E0
7C07E0
7C03F0
FC03F0
FC03F0
FC03F0
FC03F0
7C03F0
7E03E0
7E03E0
3F07C0
3F8FC0
0FFF00
07FE00
ENDCHAR
STARTCHAR 00F5
ENCODING 245
SWIDTH 565 0
DWIDTH 22 0
BBX 20 26 1 0
BITMAP
07C180
0FFF80
1FFF00
187E00
101C00
000000
000000
000000
03FC00
0FFF00
1F9FC0
3E0FC0
7E07E0
7C07E0
7C03F0
FC03F0
FC03F0
FC03F0
FC03F0
7C03F0
7E03E0
7E03E0
3F07C0
3F8FC0
0FFF00
07FE00
ENDCHAR
STARTCHAR 00F6
ENCODING 246
SWIDTH 565 0
DWIDTH 22 0
BBX 20 26 1 0
BITMAP
060600
1F0F80
1F1F80
1F1F80
1F0F80
0E0700
000000
000000
03FC00
0FFF00
1F9FC0
3E0FC0
7E07E0
7C07E0
7C03F0
FC03F0
FC03F0
FC03F0
FC03F0
7C03F0
7E03E0
7E03E0
3F07C0
3F8FC0
0FFF00
07FE00
ENDCHAR
STARTCHAR 00F7
ENCODING 247
SWIDTH 540 0
DWIDTH 21 0
BBX 19 18 1 1
BITMAP
00F000
01F000
01F000
01F000
00E000
000000
000000
7FFFE0
7FFFE0
FFFFE0
000000
000000
000000
00F000
01F000
01F000
01F000
00E000
ENDCHAR
STARTCHAR 00F8
ENCODING 248
SWIDTH 565 0
DWIDTH 22 0
BBX 20 20 1 -1
BITMAP
000070
03FCF0
0FFFE0
1F9FC0
3E0FC0
7E0FE0
7C1FE0
7C3FF0
FC3BF0
FC73F0
FCE3F0
FDE3F0
7FC3F0
7F83E0
7F03E0
3F07C0
3F8FC0
3FFF00
77FE00
E00000
ENDCHAR
STARTCHAR 00F9
ENCODING 249
SWIDTH 591 0
DWIDTH 23 0
BBX 22 28 1 0
BITMAP
03C000
07C000
03E000
01E000
00F000
007000
007800
000000
000000
000000
0600E0
FF1FE0
FF1FE0
7F07E0
3F03E0
3F03E0
3F03E0
3F03E0
3F03E0
3F03E0
3F03E0
3F03E0
3F03E0
3F03F0
3F83F8
1FFFFC
1FFBFC
0FE380
ENDCHAR
STARTCHAR 00FA
ENCODING 250
SWIDTH 591 0
DWIDTH 23 0
BBX 22 28 1 0
BITMAP
001F00
001F00
001E00
003C00
003800
003800
007000
000000
000000
000000
0600E0
FF1FE0
FF1FE0
7F07E0
3F03E0
3F03E0
3F03E0
3F03E0
3F03E0
3F03E0
3F03E0
3F03E0
3F03E0
3F03F0
3F83F8
1FFFFC
1FFBFC
0FE380
ENDCHAR
STARTCHAR 00FB
ENCODING 251
SWIDTH 591 0
DWIDTH 23 0
BBX 22 28 1 0
BITMAP
003800
007800
00FC00
01FE00
03DF00
0F8780
0E03C0
0C0180
000000
000000
0600E0
FF1FE0
FF1FE0
7F07E0
3F03E0
3F03E0
3F03E0
3F03E0
3F03E0
3F03E0
3F03E0
3F03E0
3F03E0
3F03F0
3F83F8
1FFFFC
1FFBFC
0FE380
ENDCHAR
STARTCHAR 00FC
ENCODING 252
SWIDTH 591 0
DWIDTH 23 0
BBX 22 26 1 0
BITMAP
060300
0F8FC0
1F8FC0
1F8FC0
0F8FC0
070780
000000
000000
0600E0
FF1FE0
FF1FE0
7F07E0
3F03E0
3F03E0
3F03E0
3F03E0
3F03E0
3F03E0
3F03E0
3F03E0
3F03E0
3F03F0
3F83F8
1FFFFC
1FFBFC
0FE380
ENDCHAR
STARTCHAR 00FD
ENCODING 253
SWIDTH 540 0
DWIDTH 21 0
BBX 21 38 0 -10
BITMAP
0007C0
000780
000780
000F00
000E00
001E00
001C00
000000
000000
000000
FFF3F8
7FE3F8
7FE3F8
3F80E0
1F80E0
0FC0C0
0FC1C0
07E180
07E380
03F380
03F300
01F700
01FE00
01FE00
00FC00
00FC00
007C00
007800
003800
003000
007000
006000
00E000
3FC000
7FC000
7F8000
3F0000
0C0000
ENDCHAR
STARTCHAR 00FE
ENCODING 254
SWIDTH 617 0
DWIDTH 24 0
BBX 22 38 1 -10
BITMAP
030000
FF0000
FF0000
FF0000
1F0000
1F0000
1F0000
1F0000
1F0000
1F0000
1F1FC0
1F3FE0
1F7FF0
1FE3F8
1FC1F8
1F80FC
1F80FC
1F80FC
1F80FC
1F00FC
1F00FC
1F00F8
1F00F8
1F01F8
1F01F0
1F87E0
1FFFC0
1FFF00
1F0000
1F0000
1F0000
1F8000
1F8000
1F8000
3FC000
FFF000
FFF800
801800
ENDCHAR
STARTCHAR 00FF
ENCODING 255
SWIDTH 540 0
DWIDTH 21 0
BBX 21 36 0 -10
BITMAP
0180C0
03E3E0
07E3F0
07E3F0
07E3E0
01C1E0
000000
000000
FFF3F8
7FE3F8
7FE3F8
3F80E0
1F80E0
0FC0C0
0FC1C0
07E180
07E380
03F380
03F300
01F700
01FE00
01FE00
00FC00
00FC00
007C00
007800
003800
003000
007000
006000
00E000
3FC000
7FC000
7F8000
3F0000
0C0000
ENDCHAR
STARTCHAR 0100
ENCODING 256
SWIDTH 694 0
DWIDTH 27 0
BBX 26 32 1 0
BITMAP
07FFF000
07FFF000
07F00000
00000000
00000000
00040000
001C0000
001C0000
003E0000
003E0000
007F0000
007F0000
00FF8000
00DF8000
00DFC000
01CFC000
018FC000
0387E000
0387E000
0307F000
0703F000
0603F800
0FFFF800
0FFFFC00
0FFFFC00
1C00FC00
1C00FE00
38007E00
38007F00
7C00FF80
FE01FFC0
FE01FFC0
ENDCHAR
STARTCHAR 0101
ENCODING 257
SWIDTH 540 0
DWIDTH 21 0
BBX 18 25 3 0
BITMAP
FFFC00
FFFC00
FFC000
000000
000000
000000
000000
03F000
0FFC00
3FFC00
78FE00
F87E00
F87E00
F87E00
007E00
03FE00
0FFE00
3E7E00
F87E00
F87E00
F87E00
F87F00
FEFFC0
FFBFC0
7F3F00
ENDCHAR
STARTCHAR 0102
ENCODING 258
SWIDTH 694 0
DWIDTH 27 0
BBX 26 34 1 0
BITMAP
0380E000
03C0E000
03F7C000
01FFC000
00FF8000
003E0000
00000000
00040000
001C0000
001C0000
003E0000
003E0000
007F0000
007F0000
00FF8000
00DF8000
00DFC000
01CFC000
018FC000
0387E000
0387E000
0307F000
0703F000
0603F800
0FFFF800
0FFFFC00
0FFFFC00
1C00FC00
1C00FE00
38007E00
38007F00
7C00FF80
FE01FFC0
FE01FFC0
ENDCHAR
STARTCHAR 0103
ENCODING 259
SWIDTH 540 0
DWIDTH 21 0
BBX 18 28 3 0
BITMAP
200800
E00C00
E01C00
F83C00
FFF800
7FF800
3FF000
030000
000000
000000
03F000
0FFC00
3FFC00
78FE00
F87E00
F87E00
F87E00
007E00
03FE00
0FFE00
3E7E00
F87E00
F87E00
F87E00
F87F00
FEFFC0
FFBFC0
7F3F00
ENDCHAR
STARTCHAR 0104
ENCODING 260
SWIDTH 694 0
DWIDTH 27 0
BBX 26 37 1 -10
BITMAP
00040000
001C0000
001C0000
003E0000
003E0000
007F0000
007F0000
00FF8000
00DF8000
00DFC000
01CFC000
018FC000
0387E000
0387E000
0307F000
0703F000
0603F800
0FFFF800
0FFFFC00
0FFFFC00
1C00FC00
1C00FE00
38007E00
38007F00
7C00FF80
FE01FFC0
FE01FFC0
00003C00
0000F000
0001E000
0001E000
0003E000
0003FA00
0003FF00
0001FF00
0001FC00
00007000
ENDCHAR
STARTCHAR 0105
ENCODING 261
SWIDTH 540 0
DWIDTH 21 0
BBX 18 28 3 -10
BITMAP
03F000
0FFC00
3FFC00
78FE00
F87E00
F87E00
F87E00
007E00
03FE00
0FFE00
3E7E00
F87E00
F87E00
F87E00
F87F00
FEFFC0
FFBFC0
7F3F00
001C00
007800
00F000
00F000
00F800
00FE80
00FF80
00FF80
007E00
001800
ENDCHAR
STARTCHAR 0106
ENCODING 262
SWIDTH 642 0
DWIDTH 25 0
BBX 23 34 1 0
BITMAP
0003C0
0007C0
000780
000F00
000E00
000000
000000
000F00
00FFF0
03FFFC
07C07C
0F803C
1F003C
3F003C
3E001C
7E001C
7E0000
7E0000
FC0000
FC0000
FC0000
FE0000
FE0000
7E0000
7E0000
7E0000
7F0000
3F0000
3F8000
1FC000
0FF01E
07FFFC
03FFF8
00FFC0
ENDCHAR
STARTCHAR 0107
ENCODING 263
SWIDTH 462 0
DWIDTH 18 0
BBX 16 28 1 0
BITMAP
003E
003C
0078
0078
0070
00E0
00E0
0000
0000
0000
03FC
0FFF
1F1F
3E0F
7E0E
7C0E
7C0E
FC00
FC00
FC00
FC00
7C00
7E00
7E00
3F03
3FFF
0FFE
07FC
ENDCHAR
STARTCHAR 0108
ENCODING 264
SWIDTH 642 0
DWIDTH 25 0
BBX 23 34 1 0
BITMAP
000F00
003F80
007FC0
00FBF0
01E0F0
008060
000000
000F00
00FFF0
03FFFC
07C07C
0F803C
1F003C
3F003C
3E001C
7E001C
7E0000
7E0000
FC0000
FC0000
FC0000
FE0000
FE0000
7E0000
7E0000
7E0000
7F0000
3F0000
3F8000
1FC000
0FF01E
07FFFC
03FFF8
00FFC0
ENDCHAR
STARTCHAR 0109
ENCODING 265
SWIDTH 462 0
DWIDTH 18 0
BBX 17 28 1 0
BITMAP
006000
00F000
01F800
07FC00
0FFE00
1E1F00
3C0780
100200
000000
000000
03FC00
0FFF00
1F1F00
3E0F00
7E0E00
7C0E00
7C0E00
FC0000
FC0000
FC0000
FC0000
7C0000
7E0000
7E0000
3F0300
3FFF00
0FFE00
07FC00
ENDCHAR
STARTCHAR 010A
ENCODING 266
SWIDTH 642 0
DWIDTH 25 0
BBX 23 34 1 0
BITMAP
000400
001F00
003F80
003F80
003F80
001F00
000000
000F00
00FFF0
03FFFC
07C07C
0F803C
1F003C
3F003C
3E001C
7E001C
7E0000
7E0000
FC0000
FC0000
FC0000
FE0000
FE0000
7E0000
7E0000
7E0000
7F0000
3F0000
3F8000
1FC000
0FF01E
07FFFC
03FFF8
00FFC0
ENDCHAR
STARTCHAR 010B
ENCODING 267
SWIDTH 462 0
DWIDTH 18 0
BBX 16 26 1 0
BITMAP
01E0
03F0
03F8
03F0
03F0
00E0
0000
0000
03FC
0FFF
1F1F
3E0F
7E0E
7C0E
7C0E
FC00
FC00
FC00
FC00
7C00
7E00
7E00
3F03
3FFF
0FFE
07FC
ENDCHAR
STARTCHAR 010C
ENCODING 268
SWIDTH 642 0
DWIDTH 25 0
BBX 23 34 1 0
BITMAP
01E070
01F9F0
00FFC0
003F80
001E00
000800
000000
000F00
00FFF0
03FFFC
07C07C
0F803C
1F003C
3F003C
3E001C
7E001C
7E0000
7E0000
FC0000
FC0000
FC0000
FE0000
FE0000
7E0000
7E0000
7E0000
7F0000
3F0000
3F8000
1FC000
0FF01E
07FFFC
03FFF8
00FFC0
ENDCHAR
STARTCHAR 010D
ENCODING 269
SWIDTH 462 0
DWIDTH 18 0
BBX 16 28 1 0
BITMAP
0002
3C07
1E1F
0FBC
07F8
03F0
01E0
01C0
0000
0000
03FC
0FFF
1F1F
3E0F
7E0E
7C0E
7C0E
FC00
FC00
FC00
FC00
7C00
7E00
7E00
3F03
3FFF
0FFE
07FC
ENDCHAR
STARTCHAR 010E
ENCODING 270
SWIDTH 720 0
DWIDTH 28 0
BBX 25 34 2 0
BITMAP
0781C000
07E7C000
03FF0000
00FE0000
00780000
00200000
00000000
00000000
FFFFC000
FFFFF000
3F03FC00
3F00FE00
3F007E00
1F007F00
1F003F00
1F003F80
1F001F80
1F001F80
1F001F80
1F001F80
1F001F80
1F001F80
1F001F80
1F001F80
1F001F80
1F001F00
1F003F00
1F003F00
3F003E00
3F807C00
3F80F800
7FEFF000
FFFFC000
FFFE0000
ENDCHAR
STARTCHAR 010F
ENCODING 271
SWIDTH 745 0
DWIDTH 29 0
BBX 27 28 1 0
BITMAP
000060E0
001FE7E0
001FE7E0
001FE7E0
0007E7E0
0003E1E0
0003E1E0
0003E1C0
0003E1C0
0003E380
01FFE300
07FFE000
1F87E000
1F03E000
3E03E000
7E03E000
7C03E000
7C03E000
FC03E000
FC03E000
FC03E000
FC07E000
7E07E000
7E07F000
7F0FF800
3FFFFC00
1FFBF800
0FE1C000
ENDCHAR
STARTCHAR 0110
ENCODING 272
SWIDTH 720 0
DWIDTH 28 0
BBX 26 26 1 0
BITMAP
7FFFE000
7FFFF800
1F81FE00
1F807F00
1F803F00
0F803F80
0F801F80
0F801FC0
0F800FC0
0F800FC0
0F800FC0
FFFE0FC0
FFFC0FC0
FFFC0FC0
0F800FC0
0F800FC0
0F800FC0
0F800F80
0F801F80
0F801F80
1F801F00
1FC03E00
1FC07C00
3FF7F800
7FFFE000
7FFF0000
ENDCHAR
STARTCHAR 0111
ENCODING 273
SWIDTH 591 0
DWIDTH 23 0
BBX 22 28 1 0
BITMAP
000060
001FE0
001FE0
001FE0
0007E0
0003E0
007FF8
007FF8
0003E0
0003E0
01FFE0
07FFE0
1F87E0
1F03E0
3E03E0
7E03E0
7C03E0
7C03E0
FC03E0
FC03E0
FC03E0
FE03E0
7E03E0
7E03F0
7F03F8
3FFFFC
1FFBF8
0FF380
ENDCHAR
STARTCHAR 0112
ENCODING 274
SWIDTH 617 0
DWIDTH 24 0
BBX 21 32 2 0
BITMAP
1FFF80
3FFF80
3FC000
000000
000000
000000
FFFFE0
FFFFE0
3F03E0
3F00E0
3F00E0
3F0070
1F0060
1F0000
1F0100
1F0700
1F0700
1F1F00
1FFF00
1FFF00
1F0F00
1F0700
1F0700
1F0000
1F0000
1F0038
3F0038
3F8078
3F80F8
7FE7F0
FFFFF0
FFFFF0
ENDCHAR
STARTCHAR 0113
ENCODING 275
SWIDTH 488 0
DWIDTH 19 0
BBX 17 25 1 0
BITMAP
3FFF80
3FFF00
3FF000
000000
000000
000000
000000
03F800
0FFE00
1F3F00
3E1F00
7C0F80
7C0F80
7C0F80
FC0F80
FFFF80
FFFF80
FC0000
7C0000
7E0000
7E0000
3F0180
3FFF80
1FFF00
07FC00
ENDCHAR
STARTCHAR 0114
ENCODING 276
SWIDTH 617 0
DWIDTH 24 0
BBX 21 34 2 0
BITMAP
1C0300
1E0700
0FFF00
0FFE00
07FC00
01F000
000000
000000
FFFFE0
FFFFE0
3F03E0
3F00E0
3F00E0
3F0070
1F0060
1F0000
1F0100
1F0700
1F0700
1F1F00
1FFF00
1FFF00
1F0F00
1F0700
1F0700
1F0000
1F0000
1F0038
3F0038
3F8078
3F80F8
7FE7F0
FFFFF0
FFFFF0
ENDCHAR
STARTCHAR 0115
ENCODING 277
SWIDTH 488 0
DWIDTH 19 0
BBX 17 28 1 0
BITMAP
180300
380380
3C0700
3E0F00
1FFF00
1FFE00
07FC00
00E000
000000
000000
03F800
0FFE00
1F3F00
3E1F00
7C0F80
7C0F80
7C0F80
FC0F80
FFFF80
FFFF80
FC0000
7C0000
7E0000
7E0000
3F0180
3FFF80
1FFF00
07FC00
ENDCHAR
STARTCHAR 0116
ENCODING 278
SWIDTH 617 0
DWIDTH 24 0
BBX 21 34 2 0
BITMAP
004000
01F000
01F800
03F800
01F800
01F000
000000
000000
FFFFE0
FFFFE0
3F03E0
3F00E0
3F00E0
3F0070
1F0060
1F0000
1F0100
1F0700
1F0700
1F1F00
1FFF00
1FFF00
1F0F00
1F0700
1F0700
1F0000
1F0000
1F0038
3F0038
3F8078
3F80F8
7FE7F0
FFFFF0
FFFFF0
ENDCHAR
STARTCHAR 0117
ENCODING 279
SWIDTH 488 0
DWIDTH 19 0
BBX 17 26 1 0
BITMAP
01E000
03F000
03F800
03F800
03F000
00E000
000000
000000
03F800
0FFE00
1F3F00
3E1F00
7C0F80
7C0F80
7C0F80
FC0F80
FFFF80
FFFF80
FC0000
7C0000
7E0000
7E0000
3F0180
3FFF80
1FFF00
07FC00
ENDCHAR
STARTCHAR 0118
ENCODING 280
SWIDTH 617 0
DWIDTH 24 0
BBX 21 36 2 -10
BITMAP
FFFFE0
FFFFE0
3F03E0
3F00E0
3F00E0
3F0070
1F0060
1F0000
1F0100
1F0700
1F0700
1F1F00
1FFF00
1FFF00
1F0F00
1F0700
1F0700
1F0000
1F0000
1F0038
3F0038
3F8078
3F80F8
7FE7F0
FFFFF0
FFFFF0
000780
000E00
001C00
003C00
007C00
007F00
007FE0
003FE0
001F80
000600
ENDCHAR
STARTCHAR 0119
ENCODING 281
SWIDTH 488 0
DWIDTH 19 0
BBX 17 28 1 -10
BITMAP
03F800
0FFE00
1F3F00
3E1F00
7C0F80
7C0F80
7C0F80
FC0F80
FFFF80
FFFF80
FC0000
7C0000
7E0000
7E0000
3F0180
3FFF80
1FFF00
07FE00
001C00
007800
00F000
00F000
01F000
01FC00
00FF80
00FF80
007E00
001800
ENDCHAR
STARTCHAR 011A
ENCODING 282
SWIDTH 617 0
DWIDTH 24 0
BBX 21 34 2 0
BITMAP
1E0700
1F9F00
0FFC00
03F800
01F000
008000
000000
000000
FFFFE0
FFFFE0
3F03E0
3F00E0
3F00E0
3F0070
1F0060
1F0000
1F0100
1F0700
1F0700
1F1F00
1FFF00
1FFF00
1F0F00
1F0700
1F0700
1F0000
1F0000
1F0038
3F0038
3F8078
3F80F8
7FE7F0
FFFFF0
FFFFF0
ENDCHAR
STARTCHAR 011B
ENCODING 283
SWIDTH 488 0
DWIDTH 19 0
BBX 17 28 1 0
BITMAP
000200
3C0700
1E1F00
0FBE00
07F800
03F000
01E000
00C000
000000
000000
03F800
0FFE00
1F3F00
3E1F00
7C0F80
7C0F80
7C0F80
FC0F80
FFFF80
FFFF80
FC0000
7C0000
7E0000
7E0000
3F0180
3FFF80
1FFF00
07FC00
ENDCHAR
STARTCHAR 011C
ENCODING 284
SWIDTH 694 0
DWIDTH 27 0
BBX 25 34 1 0
BITMAP
000F0000
001F8000
007FE000
00FBF000
01E0F000
00802000
00000000
000F0000
00FFF800
03FFFE00
07E03E00
0F801E00
1F001E00
3F000E00
3E000E00
7E000C00
7E000000
7E000000
FE000000
FC000000
FC000000
FE01FF80
FE01FF80
7E01FF80
7E003E00
7E003E00
7F003E00
3F003E00
3F803E00
1F803E00
0FC03E00
07F0FF00
03FFFC00
00FFE000
ENDCHAR
STARTCHAR 011D
ENCODING 285
SWIDTH 540 0
DWIDTH 21 0
BBX 19 38 1 -10
BITMAP
00E000
01F000
03F800
07F800
0FFC00
1E1E00
380F00
100200
000000
000000
07FFE0
1FFFE0
3E3FE0
7E1F00
7C0F80
7C0F80
7C0F80
7C0F80
7E0F80
3E1F00
3FFF00
1FFC00
3C8000
380000
7C0000
7FFF00
7FFFC0
3FFFC0
3FFFE0
3FFFE0
7807E0
F803E0
F803C0
F807C0
FC0F80
7FFF00
3FFC00
03C000
ENDCHAR
STARTCHAR 011E
ENCODING 286
SWIDTH 694 0
DWIDTH 27 0
BBX 25 34 1 0
BITMAP
01C03000
01E07000
00FFF000
00FFE000
007FE000
001F0000
00000000
000F0000
00FFF800
03FFFE00
07E03E00
0F801E00
1F001E00
3F000E00
3E000E00
7E000C00
7E000000
7E000000
FE000000
FC000000
FC000000
FE01FF80
FE01FF80
7E01FF80
7E003E00
7E003E00
7F003E00
3F003E00
3F803E00
1F803E00
0FC03E00
07F0FF00
03FFFC00
00FFE000
ENDCHAR
STARTCHAR 011F
ENCODING 287
SWIDTH 540 0
DWIDTH 21 0
BBX 19 38 1 -10
BITMAP
100200
380700
380700
3E0F00
3FFE00
1FFE00
0FFC00
03C000
000000
000000
07FFE0
1FFFE0
3E3FE0
7E1F00
7C0F80
7C0F80
7C0F80
7C0F80
7E0F80
3E1F00
3FFF00
1FFC00
3C8000
380000
7C0000
7FFF00
7FFFC0
3FFFC0
3FFFE0
3FFFE0
7807E0
F803E0
F803C0
F807C0
FC0F80
7FFF00
3FFC00
03C000
ENDCHAR
STARTCHAR 0120
ENCODING 288
SWIDTH 694 0
DWIDTH 27 0
BBX 25 34 1 0
BITMAP
00040000
001F8000
001F8000
001F8000
001F8000
000F0000
00000000
000F0000
00FFF800
03FFFE00
07E03E00
0F801E00
1F001E00
3F000E00
3E000E00
7E000C00
7E000000
7E000000
FE000000
FC000000
FC000000
FE01FF80
FE01FF80
7E01FF80
7E003E00
7E003E00
7F003E00
3F003E00
3F803E00
1F803E00
0FC03E00
07F0FF00
03FFFC00
00FFE000
ENDCHAR
STARTCHAR 0121
ENCODING 289
SWIDTH 540 0
DWIDTH 21 0
BBX 19 36 1 -10
BITMAP
01E000
03F000
03F000
03F000
03F000
01C000
000000
000000
07FFE0
1FFFE0
3E3FE0
7E1F00
7C0F80
7C0F80
7C0F80
7C0F80
7E0F80
3E1F00
3FFF00
1FFC00
3C8000
380000
7C0000
7FFF00
7FFFC0
3FFFC0
3FFFE0
3FFFE0
7807E0
F803E0
F803C0
F807C0
FC0F80
7FFF00
3FFC00
03C000
ENDCHAR
STARTCHAR 0122
ENCODING 290
SWIDTH 694 0
DWIDTH 27 0
BBX 25 39 1 -12
BITMAP
000F0000
00FFF800
03FFFE00
07E03E00
0F801E00
1F001E00
3F000E00
3E000E00
7E000C00
7E000000
7E000000
FE000000
FC000000
FC000000
FE01FF80
FE01FF80
7E01FF80
7E003E00
7E003E00
7F003E00
3F003E00
3F803E00
1F803E00
0FC03E00
07F0FF00
03FFFC00
00FFE000
00000000
00000000
000F0000
001F8000
001F8000
001F8000
000F8000
00070000
000F0000
000E0000
001C0000
00080000
ENDCHAR
STARTCHAR 0123
ENCODING 291
SWIDTH 540 0
DWIDTH 21 0
BBX 19 38 1 -10
BITMAP
00E000
01E000
01C000
03C000
03F000
03F000
03F000
03C000
000000
000000
07FFE0
1FFFE0
3E3FE0
7E1F00
7C0F80
7C0F80
7C0F80
7C0F80
7E0F80
3E1F00
3FFF00
1FFC00
3C8000
380000
7C0000
7FFF00
7FFFC0
3FFFC0
3FFFE0
3FFFE0
7807E0
F803E0
F803C0
F807C0
FC0F80
7FFF00
3FFC00
03C000
ENDCHAR
STARTCHAR 0124
ENCODING 292
SWIDTH 771 0
DWIDTH 30 0
BBX 27 34 2 0
BITMAP
001E0000
003F8000
007FC000
01F7E000
01C1F000
00004000
00000000
00000000
FFE1FFE0
FFE1FFC0
3F807F80
3F803F00
3F003F00
3F003F00
1F003F00
1F003F00
1F003F00
1F003F00
1F003F00
1FFFFF00
1FFFFF00
1FFFFF00
1F003F00
1F003F00
1F003F00
1F003F00
1F003F00
1F003F00
3F003F00
3F003F00
3F803F00
7FC07F80
FFE1FFE0
FFE1FFE0
ENDCHAR
STARTCHAR 0125
ENCODING 293
SWIDTH 642 0
DWIDTH 25 0
BBX 23 34 1 0
BITMAP
007800
00FC00
03FE00
07DF80
0F0780
040100
030000
FF0000
FF0000
FF0000
3F0000
1F0000
1F0000
1F0000
1F0000
1F0000
1F0F80
1F3FE0
1F7FF0
1FFFF0
1F03F8
1F01F8
1F01F8
1F01F8
1F01F8
1F01F8
1F01F8
1F01F8
1F01F8
1F81F8
1F81F8
3FC3FC
FFE7FE
FFE7FE
ENDCHAR
STARTCHAR 0126
ENCODING 294
SWIDTH 771 0
DWIDTH 30 0
BBX 27 26 2 0
BITMAP
FFE1FFE0
FFE1FFC0
3F807F80
3F803F00
3F003F00
3F003F00
FFFFFFC0
FFFFFFC0
FFC03F00
3F003F00
3F003F00
3FFFFF00
3FFFFF00
3FFFFF00
3F003F00
3F003F00
3F003F00
3F003F00
3F003F00
3F003F00
3F003F00
3F003F00
3F803F00
7FC07F80
FFE1FFE0
FFE1FFE0
ENDCHAR
STARTCHAR 0127
ENCODING 295
SWIDTH 642 0
DWIDTH 25 0
BBX 24 28 0 0
BITMAP
018000
7F8000
7F8000
7F8000
1F8000
0F8000
7FF800
FFF800
FFF800
0F8000
0F87C0
0F9FF0
0FBFF8
0FFFF8
0F81FC
0F80FC
0F80FC
0F80FC
0F80FC
0F80FC
0F80FC
0F80FC
0F80FC
0FC0FC
0FC0FC
1FE1FE
7FF3FF
7FF3FF
ENDCHAR
STARTCHAR 0128
ENCODING 296
SWIDTH 360 0
DWIDTH 14 0
BBX 13 34 1 0
BITMAP
0800
3E30
7FF8
FFF0
E7E0
0180
0000
0000
7FF0
7FF0
1FC0
1FC0
1F80
1F80
0F80
0F80
0F80
0F80
0F80
0F80
0F80
0F80
0F80
0F80
0F80
0F80
0F80
0F80
1F80
1F80
1FC0
3FE0
7FF0
7FF0
ENDCHAR
STARTCHAR 0129
ENCODING 297
SWIDTH 334 0
DWIDTH 13 0
BBX 13 26 0 0
BITMAP
1E08
3FB8
7FF8
FFF0
E3F0
01C0
0000
0000
0180
3FC0
7FC0
3FC0
0FC0
0FC0
0FC0
0FC0
0FC0
0FC0
0FC0
0FC0
0FC0
0FC0
0FC0
1FE0
7FF0
7FF0
ENDCHAR
STARTCHAR 012A
ENCODING 298
SWIDTH 360 0
DWIDTH 14 0
BBX 13 32 1 0
BITMAP
7FF8
FFF0
FFF0
0000
0000
0000
7FF0
7FF0
1FC0
1FC0
1F80
1F80
0F80
0F80
0F80
0F80
0F80
0F80
0F80
0F80
0F80
0F80
0F80
0F80
0F80
0F80
1F80
1F80
1FC0
3FE0
7FF0
7FF0
ENDCHAR
STARTCHAR 012B
ENCODING 299
SWIDTH 334 0
DWIDTH 13 0
BBX 11 25 1 0
BITMAP
FFE0
FFE0
FFE0
0000
0000
0000
0000
0300
7F80
FF80
7F80
1F80
1F80
1F80
1F80
1F80
1F80
1F80
1F80
1F80
1F80
1F80
3FC0
FFE0
FFE0
ENDCHAR
STARTCHAR 012C
ENCODING 300
SWIDTH 360 0
DWIDTH 14 0
BBX 12 34 1 0
BITMAP
E030
E030
7870
7FF0
3FE0
1FC0
0000
0000
7FF0
7FF0
1FC0
1FC0
1F80
1F80
0F80
0F80
0F80
0F80
0F80
0F80
0F80
0F80
0F80
0F80
0F80
0F80
0F80
0F80
1F80
1F80
1FC0
3FE0
7FF0
7FF0
ENDCHAR
STARTCHAR 012D
ENCODING 301
SWIDTH 334 0
DWIDTH 13 0
BBX 13 28 0 0
BITMAP
2030
E038
F038
7878
7FF0
7FF0
3FE0
0700
0000
0000
0180
3FC0
7FC0
3FC0
0FC0
0FC0
0FC0
0FC0
0FC0
0FC0
0FC0
0FC0
0FC0
0FC0
0FC0
1FE0
7FF0
7FF0
ENDCHAR
STARTCHAR 012E
ENCODING 302
SWIDTH 360 0
DWIDTH 14 0
BBX 11 36 2 -10
BITMAP
FFE0
FFE0
3F80
3F80
3F00
3F00
1F00
1F00
1F00
1F00
1F00
1F00
1F00
1F00
1F00
1F00
1F00
1F00
1F00
1F00
3F00
3F00
3F80
7FC0
FFE0
FFE0
0E00
3C00
7800
7800
F800
FE80
FFC0
7FC0
3F00
0C00
ENDCHAR
STARTCHAR 012F
ENCODING 303
SWIDTH 334 0
DWIDTH 13 0
BBX 11 37 1 -10
BITMAP
0F00
1F80
3F80
3F80
1F00
0E00
0000
0000
0000
0300
7F80
FF80
7F80
1F80
1F80
1F80
1F80
1F80
1F80
1F80
1F80
1F80
1F80
1F80
3FC0
FFE0
FFE0
0F00
1E00
3C00
7C00
7C00
7F40
7FC0
7FC0
3F80
0C00
ENDCHAR
STARTCHAR 0130
ENCODING 304
SWIDTH 360 0
DWIDTH 14 0
BBX 11 34 2 0
BITMAP
0400
1F00
3F80
3F80
3F00
1F00
0000
0000
FFE0
FFE0
3F80
3F80
3F00
3F00
1F00
1F00
1F00
1F00
1F00
1F00
1F00
1F00
1F00
1F00
1F00
1F00
1F00
1F00
3F00
3F00
3F80
7FC0
FFE0
FFE0
ENDCHAR
STARTCHAR 0131
ENCODING 305
SWIDTH 334 0
DWIDTH 13 0
BBX 11 18 1 0
BITMAP
0300
7F80
FF80
7F80
1F80
1F80
1F80
1F80
1F80
1F80
1F80
1F80
1F80
1F80
1F80
3FC0
FFE0
FFE0
ENDCHAR
STARTCHAR 0132
ENCODING 306
SWIDTH 668 0
DWIDTH 26 0
BBX 23 36 2 -10
BITMAP
FFEFFE
FFEFFE
3F83FC
3F81F8
3F01F8
3F01F8
1F01F8
1F01F8
1F01F8
1F01F8
1F01F8
1F01F8
1F01F8
1F01F8
1F01F8
1F01F8
1F01F8
1F01F8
1F01F8
1F01F8
3F01F8
3F01F8
3F81F8
7FC1F8
FFE1F0
FFE1F0
0001F0
0001F0
0003F0
0003E0
0007E0
0007C0
000F80
001F00
001C00
001000
ENDCHAR
STARTCHAR 0133
ENCODING 307
SWIDTH 591 0
DWIDTH 23 0
BBX 20 36 1 -10
BITMAP
0F01E0
1F83F0
3F87F0
3F87F0
1F03F0
0E01C0
000000
000000
000000
030070
7F8FF0
FF9FF0
7F8FF0
1F83F0
1F83F0
1F83F0
1F83F0
1F83F0
1F83F0
1F83F0
1F83F0
1F83F0
1F83F0
1F83F0
3FC3F0
FFE3F0
FFE3F0
0003F0
0003E0
0003E0
0003C0
0007C0
000F80
000F00
001E00
001C00
ENDCHAR
STARTCHAR 0134
ENCODING 308
SWIDTH 360 0
DWIDTH 14 0
BBX 13 43 0 -10
BITMAP
0780
0FC0
1FE0
3FE0
79F0
7070
0000
0000
7FF8
7FF8
1FE0
0FC0
0FC0
0FC0
0FC0
0FC0
0FC0
0FC0
0FC0
0FC0
0FC0
0FC0
0FC0
0FC0
0FC0
0FC0
0FC0
0FC0
0FC0
0FC0
0FC0
0FC0
0FC0
0FC0
0F80
0F80
0F80
1F00
1F00
3E00
7C00
F800
E000
ENDCHAR
STARTCHAR 0135
ENCODING 309
SWIDTH 308 0
DWIDTH 12 0
BBX 11 37 1 -10
BITMAP
0E00
0F00
1F80
3F80
7FC0
F3E0
E1E0
40C0
0000
0000
0700
FF80
FF80
7F80
1F80
1F80
1F80
1F80
1F80
1F80
1F80
1F80
1F80
1F80
1F80
1F80
1F80
1F00
1F00
1F00
1F00
3E00
3E00
7C00
7800
F000
E000
ENDCHAR
STARTCHAR 0136
ENCODING 310
SWIDTH 720 0
DWIDTH 28 0
BBX 26 38 2 -12
BITMAP
FFE1FF00
FFE1FF00
3F80FC00
3F80F000
3F01E000
3F03C000
1F038000
1F070000
1F0E0000
1F1C0000
1F380000
1F7C0000
1FFE0000
1FFE0000
1F7F0000
1F3F8000
1F1FC000
1F1FC000
1F0FE000
1F07F000
3F03F800
3F03F800
3F81FC00
7FC0FF80
FFE0FFC0
FFE07F80
00000000
00000000
001E0000
007E0000
007E0000
007E0000
001E0000
001C0000
001C0000
00380000
00700000
00200000
ENDCHAR
STARTCHAR 0137
ENCODING 311
SWIDTH 591 0
DWIDTH 23 0
BBX 23 40 1 -12
BITMAP
030000
FF0000
FF0000
FF0000
1F0000
1F0000
1F0000
1F0000
1F0000
1F0000
1F07FC
1F07FC
1F03F8
1F03C0
1F0780
1F0F00
1F1E00
1F3C00
1F7E00
1F7F00
1F3F80
1F1FC0
1F0FC0
1F87E0
1F87F0
3F83FC
FFE1FE
FFE0FC
000000
000000
007800
00FC00
00FC00
00FC00
007C00
003800
007800
007000
00E000
004000
ENDCHAR
STARTCHAR 0138
ENCODING 312
SWIDTH 591 0
DWIDTH 23 0
BBX 22 18 1 0
BITMAP
030FF8
7F8FF8
FF87F0
7F8780
1F8F00
1F9E00
1FBC00
1FFC00
1FFE00
1FFF00
1FFF00
1FBF80
1F9FC0
1F8FE0
1F87F0
3FC7F8
FFE3FC
FFE1FC
ENDCHAR
STARTCHAR 0139
ENCODING 313
SWIDTH 591 0
DWIDTH 23 0
BBX 21 34 2 0
BITMAP
07C000
078000
078000
0F0000
0E0000
000000
000000
000000
FFE000
FFE000
3F8000
3F8000
3F0000
1F0000
1F0000
1F0000
1F0000
1F0000
1F0000
1F0000
1F0000
1F0000
1F0000
1F0000
1F0000
1F0000
1F0000
1F0038
3F0078
3F8070
3F80F0
7FE7F0
FFFFF0
FFFFF0
ENDCHAR
STARTCHAR 013A
ENCODING 314
SWIDTH 334 0
DWIDTH 13 0
BBX 11 35 1 0
BITMAP
03C0
0780
0780
0F00
0E00
0000
0000
0300
FF00
FF00
FF00
1F00
1F00
1F00
1F00
1F00
1F00
1F00
1F00
1F00
1F00
1F00
1F00
1F00
1F00
1F00
1F00
1F00
1F00
1F00
1F80
1F80
3FC0
FFE0
FFE0
ENDCHAR
STARTCHAR 013B
ENCODING 315
SWIDTH 591 0
DWIDTH 23 0
BBX 21 38 2 -12
BITMAP
FFE000
FFE000
3F8000
3F8000
3F0000
1F0000
1F0000
1F0000
1F0000
1F0000
1F0000
1F0000
1F0000
1F0000
1F0000
1F0000
1F0000
1F0000
1F0000
1F0038
3F0078
3F8070
3F80F0
7FE7F0
FFFFF0
FFFFF0
000000
000000
00F000
01F800
01F800
01F800
00F800
007000
00F000
00E000
01C000
008000
ENDCHAR
STARTCHAR 013C
ENCODING 316
SWIDTH 334 0
DWIDTH 13 0
BBX 11 40 1 -12
BITMAP
0300
FF00
FF00
FF00
1F00
1F00
1F00
1F00
1F00
1F00
1F00
1F00
1F00
1F00
1F00
1F00
1F00
1F00
1F00
1F00
1F00
1F00
1F00
1F80
1F80
3FC0
FFE0
FFE0
0000
0000
0F00
1F80
3F80
3F80
0F00
0F00
0E00
1E00
1C00
1800
ENDCHAR
STARTCHAR 013D
ENCODING 317
SWIDTH 591 0
DWIDTH 23 0
BBX 21 28 2 0
BITMAP
000070
0001F0
FFE3F0
FFE3F0
3F83F0
3F80F0
3F0070
1F00F0
1F00E0
1F01C0
1F0180
1F0000
1F0000
1F0000
1F0000
1F0000
1F0000
1F0000
1F0000
1F0000
1F0000
1F0038
3F0078
3F8070
3F80F0
7FE7F0
FFFFF0
FFFFF0
ENDCHAR
STARTCHAR 013E
ENCODING 318
SWIDTH 488 0
DWIDTH 19 0
BBX 17 28 1 0
BITMAP
030300
FF1F80
FF1F80
FF1F80
1F1F80
1F0780
1F0780
1F0700
1F0700
1F0E00
1F0C00
1F0000
1F0000
1F0000
1F0000
1F0000
1F0000
1F0000
1F0000
1F0000
1F0000
1F0000
1F0000
1F8000
1F8000
3FC000
FFE000
FFE000
ENDCHAR
STARTCHAR 013F
ENCODING 319
SWIDTH 591 0
DWIDTH 23 0
BBX 21 26 2 0
BITMAP
FFE000
FFE000
3F8000
3F8000
3F0000
1F0000
1F0000
1F0000
1F0000
1F0000
1F01E0
1F01F0
1F01F0
1F01E0
1F0000
1F0000
1F0000
1F0000
1F0000
1F0038
3F0078
3F8070
3F80F0
7FE7F0
FFFFF0
FFFFF0
ENDCHAR
STARTCHAR 0140
ENCODING 320
SWIDTH 334 0
DWIDTH 13 0
BBX 15 28 1 0
BITMAP
0300
FF00
FF00
FF00
1F00
1F00
1F00
1F00
1F00
1F00
1F00
1F00
1F1C
1F3E
1F3E
1F3E
1F1C
1F00
1F00
1F00
1F00
1F00
1F00
1F80
1F80
3FC0
FFE0
FFE0
ENDCHAR
STARTCHAR 0141
ENCODING 321
SWIDTH 591 0
DWIDTH 23 0
BBX 22 26 1 0
BITMAP
7FF000
7FF000
1FC000
1FC000
1F8000
0F8000
0F8000
0F8000
0F8800
0FB800
0FF800
0FF000
0FE000
1F8000
7F8000
FF8000
EF8000
CF8000
0F8000
0F801C
1F803C
1FC038
1FC078
3FF3F8
7FFFF8
7FFFF8
ENDCHAR
STARTCHAR 0142
ENCODING 322
SWIDTH 334 0
DWIDTH 13 0
BBX 14 28 0 0
BITMAP
0180
7F80
7F80
7F80
0F80
0F80
0F80
0F80
0F80
0F80
0F88
0F98
0FFC
0FF0
0FE0
1F80
3F80
FF80
FF80
4F80
0F80
0F80
0F80
0FC0
0FC0
1FE0
7FF0
7FF0
ENDCHAR
STARTCHAR 0143
ENCODING 323
SWIDTH 720 0
DWIDTH 28 0
BBX 26 34 1 0
BITMAP
0007C000
00078000
000F0000
000F0000
001E0000
00000000
00000000
00000000
FF803FC0
FF803FC0
1FC00F00
1FE00F00
0FF00600
0FF00600
0FF80600
0FFC0600
0DFE0600
0CFE0600
0C7F0600
0C7F8600
0C3FC600
0C1FC600
0C0FE600
0C0FF600
0C07FE00
0C03FE00
1C01FE00
1C01FE00
1C00FE00
1C007E00
1E003E00
3F003E00
FF801E00
FF800E00
ENDCHAR
STARTCHAR 0144
ENCODING 324
SWIDTH 642 0
DWIDTH 25 0
BBX 23 28 1 0
BITMAP
0007C0
000F80
000F00
000E00
001E00
001C00
003800
000000
000000
000000
030FC0
7FBFE0
FFFFF0
7FFFF8
1F81F8
1F81F8
1F81F8
1F80F8
1F80F8
1F80F8
1F80F8
1F80F8
1F80F8
1F81F8
1F81F8
3FC3FC
FFE7FE
FFE7FE
ENDCHAR
STARTCHAR 0145
ENCODING 325
SWIDTH 720 0
DWIDTH 28 0
BBX 26 37 1 -12
BITMAP
FF803FC0
FF803FC0
1FC00F00
1FE00F00
0FF00600
0FF00600
0FF80600
0FFC0600
0DFE0600
0CFE0600
0C7F0600
0C7F8600
0C3FC600
0C1FC600
0C0FE600
0C0FF600
0C07FE00
0C03FE00
1C01FE00
1C01FE00
1C00FE00
1C007E00
1E003E00
3F003E00
FF801E00
FF800E00
00000000
00000000
00078000
001F8000
001F8000
001F8000
00078000
00078000
00070000
000E0000
001C0000
ENDCHAR
STARTCHAR 0146
ENCODING 326
SWIDTH 642 0
DWIDTH 25 0
BBX 23 30 1 -12
BITMAP
030FC0
7FBFE0
FFFFF0
7FFFF8
1F81F8
1F81F8
1F81F8
1F80F8
1F80F8
1F80F8
1F80F8
1F80F8
1F80F8
1F81F8
1F81F8
3FC3FC
FFE7FE
FFE7FE
000000
000000
001E00
007E00
007E00
007E00
003E00
001C00
003C00
003800
007000
002000
ENDCHAR
STARTCHAR 0147
ENCODING 327
SWIDTH 720 0
DWIDTH 28 0
BBX 26 34 1 0
BITMAP
01C0E000
01F3E000
00FFC000
007F0000
003E0000
00180000
00000000
00000000
FF803FC0
FF803FC0
1FC00F00
1FE00F00
0FF00600
0FF00600
0FF80600
0FFC0600
0DFE0600
0CFE0600
0C7F0600
0C7F8600
0C3FC600
0C1FC600
0C0FE600
0C0FF600
0C07FE00
0C03FE00
1C01FE00
1C01FE00
1C00FE00
1C007E00
1E003E00
3F003E00
FF801E00
FF800E00
ENDCHAR
STARTCHAR 0148
ENCODING 328
SWIDTH 642 0
DWIDTH 25 0
BBX 23 28 1 0
BITMAP
020040
0701E0
07C3C0
03FF80
01FF00
00FE00
007C00
003800
000000
000000
030FC0
7FBFE0
FFFFF0
7FFFF8
1F81F8
1F81F8
1F81F8
1F80F8
1F80F8
1F80F8
1F80F8
1F80F8
1F80F8
1F81F8
1F81F8
3FC3FC
FFE7FE
FFE7FE
ENDCHAR
STARTCHAR 0149
ENCODING 329
SWIDTH 822 0
DWIDTH 32 0
BBX 29 28 3 0
BITMAP
18000000
FC000000
FC000000
FC000000
FC000000
3C000000
38000000
38000000
70000000
70000000
E01C3E00
C3FCFF80
03FFFF80
01FFFFC0
00FC0FC0
00FC07C0
00FC07C0
00FC07C0
00FC07C0
00FC07C0
00FC07C0
00FC07C0
00FC07C0
00FC07C0
00FC0FE0
01FE1FE0
03FF3FF0
03FFBFF8
ENDCHAR
STARTCHAR 014A
ENCODING 330
SWIDTH 668 0
DWIDTH 26 0
BBX 23 36 2 -9
BITMAP
3F0FF0
FF3FF8
FF7FFC
3FF1FE
3FC0FE
1FC07E
1F807E
1F807E
1F807E
1F807E
1F007E
1F007E
1F007E
1F007E
1F007E
1F007E
1F007E
1F007E
1F007E
1F007E
1F007E
3F007E
3F807E
7FC07E
FFE07E
FFE07E
00007E
00007C
00007C
00007C
0000F8
001FF8
003FF0
003FE0
001FC0
000600
ENDCHAR
STARTCHAR 014B
ENCODING 331
SWIDTH 617 0
DWIDTH 24 0
BBX 21 28 1 -10
BITMAP
030FC0
7FBFE0
FFFFF0
7FFFF8
1FC1F8
1FC1F8
1F81F8
1F81F8
1F80F8
1F80F8
1F80F8
1F80F8
1F80F8
1F80F8
1F80F8
3FC0F8
FFE0F8
FFE0F8
0001F8
0001F0
0001F0
0001F0
0003E0
00FFC0
00FFC0
00FF80
007F00
001800
ENDCHAR
STARTCHAR 014C
ENCODING 332
SWIDTH 745 0
DWIDTH 29 0
BBX 27 32 1 0
BITMAP
03FFF800
03FFF800
03F80000
00000000
00000000
001E0000
00FFE000
03FFF800
07C0FE00
0F807E00
1F003F00
3F001F80
3E001F80
7E000FC0
7E000FC0
7E000FC0
FC000FE0
FC000FE0
FC0007E0
FC0007E0
FE0007E0
7E000FC0
7E000FC0
7E000FC0
7F000FC0
3F000F80
3F801F80
1F803F00
0FC03E00
07F0FC00
03FFF800
007FC000
ENDCHAR
STARTCHAR 014D
ENCODING 333
SWIDTH 565 0
DWIDTH 22 0
BBX 20 25 1 0
BITMAP
1FFF80
1FFF80
1FF800
000000
000000
000000
000000
03FC00
0FFF00
1F9FC0
3E0FC0
7E07E0
7C07E0
7C03F0
FC03F0
FC03F0
FC03F0
FC03F0
7C03F0
7E03E0
7E03E0
3F07C0
3F8FC0
0FFF00
07FE00
ENDCHAR
STARTCHAR 014E
ENCODING 334
SWIDTH 745 0
DWIDTH 29 0
BBX 27 34 1 0
BITMAP
01C07000
01E07000
01FFF000
00FFE000
007FC000
001F0000
00000000
001E0000
00FFE000
03FFF800
07C0FE00
0F807E00
1F003F00
3F001F80
3E001F80
7E000FC0
7E000FC0
7E000FC0
FC000FE0
FC000FE0
FC0007E0
FC0007E0
FE0007E0
7E000FC0
7E000FC0
7E000FC0
7F000FC0
3F000F80
3F801F80
1F803F00
0FC03E00
07F0FC00
03FFF800
007FC000
ENDCHAR
STARTCHAR 014F
ENCODING 335
SWIDTH 565 0
DWIDTH 22 0
BBX 20 28 1 0
BITMAP
040180
1C0180
1C0380
1F0780
1FFF00
0FFF00
07FE00
00E000
000000
000000
03FC00
0FFF00
1F9FC0
3E0FC0
7E07E0
7C07E0
7C03F0
FC03F0
FC03F0
FC03F0
FC03F0
7C03F0
7E03E0
7E03E0
3F07C0
3F8FC0
0FFF00
07FE00
ENDCHAR
STARTCHAR 0150
ENCODING 336
SWIDTH 745 0
DWIDTH 29 0
BBX 27 34 1 0
BITMAP
003E7C00
007CF800
0078F000
0070E000
00E1C000
00000000
00000000
001E0000
00FFE000
03FFF800
07C0FE00
0F807E00
1F003F00
3F001F80
3E001F80
7E000FC0
7E000FC0
7E000FC0
FC000FE0
FC000FE0
FC0007E0
FC0007E0
FE0007E0
7E000FC0
7E000FC0
7E000FC0
7F000FC0
3F000F80
3F801F80
1F803F00
0FC03E00
07F0FC00
03FFF800
007FC000
ENDCHAR
STARTCHAR 0151
ENCODING 337
SWIDTH 565 0
DWIDTH 22 0
BBX 20 28 1 0
BITMAP
01F3E0
01E3C0
03C780
03C780
038700
070E00
070E00
000000
000000
000000
03FC00
0FFF00
1F9FC0
3E0FC0
7E07E0
7C07E0
7C03F0
FC03F0
FC03F0
FC03F0
FC03F0
7C03F0
7E03E0
7E03E0
3F07C0
3F8FC0
0FFF00
07FE00
ENDCHAR
STARTCHAR 0152
ENCODING 338
SWIDTH 977 0
DWIDTH 38 0
BBX 36 27 1 0
BITMAP
000F800000
01FFFFFFE0
03FFFFFFE0
0FC1FC03E0
1F80FE01E0
1F007E00E0
3E003F00E0
3E003F00C0
7E001F8000
7E001F8000
7C001F8700
FC001F8700
FC001F8F00
FC001FFF00
FC001FFF00
FC001F8F00
7E001F8700
7E001F8700
7E001F8000
7E001F0000
3F001F0070
3F003E0070
1F803E00F0
0FC07C00F0
07F1F807F0
03FFFFFFF0
00FFFFFFE0
ENDCHAR
STARTCHAR 0153
ENCODING 339
SWIDTH 822 0
DWIDTH 32 0
BBX 30 18 1 0
BITMAP
03FC3F80
0FFE7FE0
1F1FFBF0
3E0FF0F8
7E0FE0F8
7C07E0F8
7C07E0FC
FC07E0FC
FC07FFFC
FC07FFF8
FC07E000
7C07E000
7E07F000
7E07F000
3F0FF818
3F9FFFFC
0FFF7FF0
07FC3FE0
ENDCHAR
STARTCHAR 0154
ENCODING 340
SWIDTH 694 0
DWIDTH 27 0
BBX 25 34 2 0
BITMAP
001E0000
003E0000
003C0000
00780000
00700000
00000000
00000000
00000000
FFFFC000
FFFFE000
3F07F000
3F01F800
3F01F800
3F00FC00
1F00FC00
1F00FC00
1F00FC00
1F01F800
1F01F800
1F03F000
1F1FE000
1FFFC000
1FFF0000
1F1F8000
1F0FC000
1F07E000
1F07E000
1F03F000
3F03F800
3F01F800
3F81FC00
7F81FF00
FFE0FF80
FFE0FF00
ENDCHAR
STARTCHAR 0155
ENCODING 341
SWIDTH 462 0
DWIDTH 18 0
BBX 17 28 1 0
BITMAP
003E00
007C00
007800
007000
00F000
00E000
01C000
000000
000000
000000
030F00
7F9F80
FF3F80
7F7F80
1FEF00
1F8700
1F8700
1F8000
1F8000
1F8000
1F8000
1F8000
1F8000
1F8000
1F8000
3FE000
FFF800
FFF800
ENDCHAR
STARTCHAR 0156
ENCODING 342
SWIDTH 694 0
DWIDTH 27 0
BBX 25 38 2 -12
BITMAP
FFFFC000
FFFFE000
3F07F000
3F01F800
3F01F800
3F00FC00
1F00FC00
1F00FC00
1F00FC00
1F01F800
1F01F800
1F03F000
1F1FE000
1FFFC000
1FFF0000
1F1F8000
1F0FC000
1F07E000
1F07E000
1F03F000
3F03F800
3F01F800
3F81FC00
7F81FF00
FFE0FF80
FFE0FF00
00000000
00000000
001E0000
003E0000
007F0000
007E0000
001E0000
001E0000
001C0000
003C0000
00780000
00200000
ENDCHAR
STARTCHAR 0157
ENCODING 343
SWIDTH 462 0
DWIDTH 18 0
BBX 17 30 1 -12
BITMAP
030F00
7F9F80
FF3F80
7F7F80
1FEF00
1F8700
1F8700
1F8000
1F8000
1F8000
1F8000
1F8000
1F8000
1F8000
1F8000
3FE000
FFF800
FFF800
000000
000000
078000
0FC000
1FC000
1FC000
078000
078000
070000
0F0000
0E0000
040000
ENDCHAR
STARTCHAR 0158
ENCODING 344
SWIDTH 694 0
DWIDTH 27 0
BBX 25 34 2 0
BITMAP
0F038000
0FCF8000
07FE0000
01FC0000
00F00000
00400000
00000000
00000000
FFFFC000
FFFFE000
3F07F000
3F01F800
3F01F800
3F00FC00
1F00FC00
1F00FC00
1F00FC00
1F01F800
1F01F800
1F03F000
1F1FE000
1FFFC000
1FFF0000
1F1F8000
1F0FC000
1F07E000
1F07E000
1F03F000
3F03F800
3F01F800
3F81FC00
7F81FF00
FFE0FF80
FFE0FF00
ENDCHAR
STARTCHAR 0159
ENCODING 345
SWIDTH 462 0
DWIDTH 18 0
BBX 17 28 1 0
BITMAP
100200
380F00
3E1E00
1FFC00
0FF800
07F000
03E000
01C000
000000
000000
030F00
7F9F80
FF3F80
7F7F80
1FEF00
1F8700
1F8700
1F8000
1F8000
1F8000
1F8000
1F8000
1F8000
1F8000
1F8000
3FE000
FFF800
FFF800
ENDCHAR
STARTCHAR 015A
ENCODING 346
SWIDTH 540 0
DWIDTH 21 0
BBX 18 34 2 0
BITMAP
007C00
007800
00F000
00E000
01E000
000000
000000
00E000
0FFE00
1FFF00
3C1F00
780F00
780700
F80700
FC0780
FC0000
FF0000
7FC000
7FF000
3FFC00
1FFE00
0FFF00
07FF80
01FFC0
003FC0
001FC0
F00FC0
F007C0
F007C0
F807C0
F80F80
FE1F80
7FFE00
1FFC00
ENDCHAR
STARTCHAR 015B
ENCODING 347
SWIDTH 437 0
DWIDTH 17 0
BBX 15 28 2 0
BITMAP
00F8
01F0
01E0
01C0
03C0
0380
0700
0000
0000
0000
1FF0
7FF8
FCF8
F878
F838
FC38
FE00
FFC0
7FF0
3FF8
0FFC
21FC
E0FE
E07E
F07C
F8FC
FFF8
7FE0
ENDCHAR
STARTCHAR 015C
ENCODING 348
SWIDTH 540 0
DWIDTH 21 0
BBX 18 34 2 0
BITMAP
01E000
03F000
0FFC00
1F7E00
3C1E00
100400
000000
00E000
0FFE00
1FFF00
3C1F00
780F00
780700
F80700
FC0780
FC0000
FF0000
7FC000
7FF000
3FFC00
1FFE00
0FFF00
07FF80
01FFC0
003FC0
001FC0
F00FC0
F007C0
F007C0
F807C0
F80F80
FE1F80
7FFE00
1FFC00
ENDCHAR
STARTCHAR 015D
ENCODING 349
SWIDTH 437 0
DWIDTH 17 0
BBX 15 28 2 0
BITMAP
0380
07C0
0FC0
1FE0
3FF0
7878
E03C
4008
0000
0000
1FF0
7FF8
FCF8
F878
F838
FC38
FE00
FFC0
7FF0
3FF8
0FFC
21FC
E0FE
E07E
F07C
F8FC
FFF8
7FE0
ENDCHAR
STARTCHAR 015E
ENCODING 350
SWIDTH 540 0
DWIDTH 21 0
BBX 18 36 2 -9
BITMAP
00E000
0FFE00
1FFF00
3C1F00
780F00
780700
F80700
FC0780
FC0000
FF0000
7FC000
7FF000
3FFC00
1FFE00
0FFF00
07FF80
01FFC0
003FC0
001FC0
F00FC0
F007C0
F007C0
F807C0
F80F80
FE1F80
7FFE00
1FFC00
01C000
018000
03E000
03F000
00F000
007000
007000
00F000
03C000
ENDCHAR
STARTCHAR 015F
ENCODING 351
SWIDTH 437 0
DWIDTH 17 0
BBX 15 27 2 -9
BITMAP
1FF0
7FF8
FCF8
F878
F838
FC38
FE00
FFC0
7FF0
3FF8
0FFC
21FC
E0FE
E07E
F07C
F8FC
FFF8
7FE0
0700
0E00
0F00
0F80
03C0
01C0
01C0
0780
0F00
ENDCHAR
STARTCHAR 0160
ENCODING 352
SWIDTH 540 0
DWIDTH 21 0
BBX 18 34 2 0
BITMAP
1C0E00
3F3E00
0FFC00
07F000
03E000
01C000
000000
00E000
0FFE00
1FFF00
3C1F00
780F00
780700
F80700
FC0780
FC0000
FF0000
7FC000
7FF000
3FFC00
1FFE00
0FFF00
07FF80
01FFC0
003FC0
001FC0
F00FC0
F007C0
F007C0
F807C0
F80F80
FE1F80
7FFE00
1FFC00
ENDCHAR
STARTCHAR 0161
ENCODING 353
SWIDTH 437 0
DWIDTH 17 0
BBX 15 28 2 0
BITMAP
4008
E03C
F878
7FF0
3FE0
1FC0
0F80
0700
0000
0000
1FF0
7FF8
FCF8
F878
F838
FC38
FE00
FFC0
7FF0
3FF8
0FFC
21FC
E0FE
E07E
F07C
F8FC
FFF8
7FE0
ENDCHAR
STARTCHAR 0162
ENCODING 354
SWIDTH 642 0
DWIDTH 25 0
BBX 23 35 1 -9
BITMAP
7FFFFE
7FFFFE
7C7E3E
F07E1E
F07E0E
E07E0E
E07E0E
007E00
007E00
007E00
007E00
007E00
007E00
007E00
007E00
007E00
007E00
007E00
007E00
007E00
007E00
007E00
00FE00
01FF00
07FFC0
07FFC0
003000
007000
00F800
007C00
001E00
001E00
001E00
003C00
007800
ENDCHAR
STARTCHAR 0163
ENCODING 355
SWIDTH 360 0
DWIDTH 14 0
BBX 14 33 0 -9
BITMAP
0180
0780
1F80
1F80
1F80
1F80
1F80
7FFC
FFF8
1F80
1F80
1F80
1F80
1F80
1F80
1F80
1F80
1F80
1F80
1F80
0F80
0FCC
0FFC
07F8
0180
0300
07C0
03E0
01F0
00F0
00E0
01E0
07C0
ENDCHAR
STARTCHAR 0164
ENCODING 356
SWIDTH 642 0
DWIDTH 25 0
BBX 23 34 1 0
BITMAP
0781C0
07E7C0
01FF00
00FE00
007C00
003000
000000
000000
7FFFFE
7FFFFE
7C7E3E
F07E1E
F07E0E
E07E0E
E07E0E
007E00
007E00
007E00
007E00
007E00
007E00
007E00
007E00
007E00
007E00
007E00
007E00
007E00
007E00
007E00
00FE00
01FF00
07FFC0
07FFC0
ENDCHAR
STARTCHAR 0165
ENCODING 357
SWIDTH 514 0
DWIDTH 20 0
BBX 21 28 0 0
BITMAP
000030
0001F0
0001F8
0003F8
0183F8
0780F0
1F8070
1F8070
1F80E0
1F80E0
1F81C0
7FFC00
FFF800
1F8000
1F8000
1F8000
1F8000
1F8000
1F8000
1F8000
1F8000
1F8000
1F8000
1F8000
0F8000
0FCC00
0FFC00
07F800
ENDCHAR
STARTCHAR 0166
ENCODING 358
SWIDTH 642 0
DWIDTH 25 0
BBX 23 26 1 0
BITMAP
7FFFFE
7FFFFE
7C7E3E
F07E1E
F07E0E
E07E0E
E07E0E
007E00
007E00
007E00
007E00
0FFFF0
0FFFE0
0FFFE0
007E00
007E00
007E00
007E00
007E00
007E00
007E00
007E00
00FE00
01FF00
07FFC0
07FFC0
ENDCHAR
STARTCHAR 0167
ENCODING 359
SWIDTH 360 0
DWIDTH 14 0
BBX 14 24 0 0
BITMAP
0180
0780
1F80
1F80
1F80
1F80
1F80
7FFC
FFF8
1F80
1F80
1F80
1F80
FFF0
FFF0
1F80
1F80
1F80
1F80
1F80
0F80
0FCC
0FFC
07F8
ENDCHAR
STARTCHAR 0168
ENCODING 360
SWIDTH 668 0
DWIDTH 26 0
BBX 24 34 1 0
BITMAP
003800
00FF38
01FFF8
01FFF0
0107E0
000000
000000
000000
FFE0FF
FFE0FF
3F803E
1F801C
1F801C
1F801C
1F801C
1F801C
1F801C
1F801C
1F801C
1F801C
1F801C
1F801C
1F801C
1F801C
1F801C
1F801C
1F801C
1F8018
1F8018
1FC038
0FE078
07F9F0
03FFE0
01FFC0
ENDCHAR
STARTCHAR 0169
ENCODING 361
SWIDTH 591 0
DWIDTH 23 0
BBX 22 26 1 0
BITMAP
07E0C0
0FFFC0
1FFF80
1C7F00
001E00
000000
000000
000000
0600E0
FF1FE0
FF1FE0
7F07E0
3F03E0
3F03E0
3F03E0
3F03E0
3F03E0
3F03E0
3F03E0
3F03E0
3F03E0
3F03F0
3F83F8
1FFFFC
1FFBFC
0FE380
ENDCHAR
STARTCHAR 016A
ENCODING 362
SWIDTH 668 0
DWIDTH 26 0
BBX 24 32 1 0
BITMAP
01FFF8
01FFF8
01FC00
000000
000000
000000
FFE0FF
FFE0FF
3F803E
1F801C
1F801C
1F801C
1F801C
1F801C
1F801C
1F801C
1F801C
1F801C
1F801C
1F801C
1F801C
1F801C
1F801C
1F801C
1F801C
1F8018
1F8018
1FC038
0FE078
07F9F0
03FFE0
01FFC0
ENDCHAR
STARTCHAR 016B
ENCODING 363
SWIDTH 591 0
DWIDTH 23 0
BBX 22 25 1 0
BITMAP
0FFFC0
1FFFC0
1FFC00
000000
000000
000000
000000
0600E0
FF1FE0
FF1FE0
7F07E0
3F03E0
3F03E0
3F03E0
3F03E0
3F03E0
3F03E0
3F03E0
3F03E0
3F03E0
3F03F0
3F83F8
1FFFFC
1FFBFC
0FE380
ENDCHAR
STARTCHAR 016C
ENCODING 364
SWIDTH 668 0
DWIDTH 26 0
BBX 24 34 1 0
BITMAP
01E030
00E070
00FDF0
00FFF0
007FE0
001F80
000000
000000
FFE0FF
FFE0FF
3F803E
1F801C
1F801C
1F801C
1F801C
1F801C
1F801C
1F801C
1F801C
1F801C
1F801C
1F801C
1F801C
1F801C
1F801C
1F801C
1F801C
1F8018
1F8018
1FC038
0FE078
07F9F0
03FFE0
01FFC0
ENDCHAR
STARTCHAR 016D
ENCODING 365
SWIDTH 591 0
DWIDTH 23 0
BBX 22 28 1 0
BITMAP
040180
1C01C0
1E01C0
0F0780
0FFF80
07FF00
03FE00
007000
000000
000000
0600E0
FF1FE0
FF1FE0
7F07E0
3F03E0
3F03E0
3F03E0
3F03E0
3F03E0
3F03E0
3F03E0
3F03E0
3F03E0
3F03F0
3F83F8
1FFFFC
1FFBFC
0FE380
ENDCHAR
STARTCHAR 016E
ENCODING 366
SWIDTH 668 0
DWIDTH 26 0
BBX 24 34 1 1
BITMAP
001F80
0039C0
0031C0
0039C0
003FC0
001F00
000000
000000
FFE0FF
FFE0FF
3F803E
1F801C
1F801C
1F801C
1F801C
1F801C
1F801C
1F801C
1F801C
1F801C
1F801C
1F801C
1F801C
1F801C
1F801C
1F801C
1F801C
1F8018
1F8018
1FC038
0FE078
07F9F0
03FFE0
01FFC0
ENDCHAR
STARTCHAR 016F
ENCODING 367
SWIDTH 591 0
DWIDTH 23 0
BBX 22 28 1 0
BITMAP
00F800
01FE00
038E00
038E00
038E00
03DE00
01FC00
007000
000000
000000
0600E0
FF1FE0
FF1FE0
7F07E0
3F03E0
3F03E0
3F03E0
3F03E0
3F03E0
3F03E0
3F03E0
3F03E0
3F03E0
3F03F0
3F83F8
1FFFFC
1FFBFC
0FE380
ENDCHAR
STARTCHAR 0170
ENCODING 368
SWIDTH 668 0
DWIDTH 26 0
BBX 24 34 1 0
BITMAP
003E7C
003C78
0078F0
0078F0
0070E0
000000
000000
000000
FFE0FF
FFE0FF
3F803E
1F801C
1F801C
1F801C
1F801C
1F801C
1F801C
1F801C
1F801C
1F801C
1F801C
1F801C
1F801C
1F801C
1F801C
1F801C
1F801C
1F8018
1F8018
1FC038
0FE078
07F9F0
03FFE0
01FFC0
ENDCHAR
STARTCHAR 0171
ENCODING 369
SWIDTH 591 0
DWIDTH 23 0
BBX 22 28 1 0
BITMAP
00F9F0
01F3E0
01E3C0
01C380
03C780
038700
070E00
000000
000000
000000
0600E0
FF1FE0
FF1FE0
7F07E0
3F03E0
3F03E0
3F03E0
3F03E0
3F03E0
3F03E0
3F03E0
3F03E0
3F03E0
3F03F0
3F83F8
1FFFFC
1FFBFC
0FE380
ENDCHAR
STARTCHAR 0172
ENCODING 370
SWIDTH 668 0
DWIDTH 26 0
BBX 24 36 1 -10
BITMAP
FFE0FF
FFE0FF
3F803E
1F801C
1F801C
1F801C
1F801C
1F801C
1F801C
1F801C
1F801C
1F801C
1F801C
1F801C
1F801C
1F801C
1F801C
1F801C
1F801C
1F8018
1F8018
1FC038
0FE078
07F9F0
03FFE0
01FFC0
000380
000F00
001E00
001E00
003E00
003F80
001FF0
001FF0
000FC0
000300
ENDCHAR
STARTCHAR 0173
ENCODING 371
SWIDTH 591 0
DWIDTH 23 0
BBX 22 28 1 -10
BITMAP
0600E0
FF1FE0
FF1FE0
7F07E0
3F03E0
3F03E0
3F03E0
3F03E0
3F03E0
3F03E0
3F03E0
3F03E0
3F03E0
3F03F0
3F83F8
1FFFFC
1FFBFC
0FE3F0
0001C0
000380
000780
000F80
000F80
000FE8
000FF8
0007FC
0007F0
0001C0
ENDCHAR
STARTCHAR 0174
ENCODING 372
SWIDTH 977 0
DWIDTH 38 0
BBX 37 34 1 0
BITMAP
00003C0000
00007E0000
0001FF0000
0003EFC000
000783C000
0002008000
0000000000
0000080000
FFE03C07F8
FFE03C07F8
7F803C01F0
3F007E01E0
3F007E00C0
3F807E01C0
1F80FF01C0
1F80FF0180
1FC1FF8180
0FC1DF8380
0FC19F8380
0FE39FC300
07E38FC700
07E30FC700
07F70FE600
03F707E600
03F607EE00
03FE03FC00
01FE03FC00
01FC03FC00
01FC01F800
00FC01F800
00F801F800
00F800F800
007800F000
007000F000
ENDCHAR
STARTCHAR 0175
ENCODING 373
SWIDTH 771 0
DWIDTH 30 0
BBX 30 28 0 0
BITMAP
0000E000
0001F000
0003F000
0007F800
000FFC00
001E1E00
00380F00
00100200
00000000
00000000
FFE0C1FC
7FE1E1FC
7FC1E1FC
3F83F070
1F83F070
1F83F060
0FC7F860
0FC7F8E0
0FCEFCC0
07EEFCC0
07EC7DC0
03FC7F80
03F83F80
03F83F80
01F83F00
01F01F00
01F01F00
00E00E00
ENDCHAR
STARTCHAR 0176
ENCODING 374
SWIDTH 617 0
DWIDTH 24 0
BBX 23 34 1 0
BITMAP
001E00
003F00
007FC0
01F7E0
03C1E0
000040
000000
000000
FFE0FE
FFE0FE
7F807C
3F8078
1FC070
1FC060
0FC0E0
0FE0C0
07E1C0
07F1C0
03F180
03FB80
01FB00
01FF00
00FE00
00FE00
007C00
007C00
007C00
007C00
00FC00
00FE00
00FE00
01FF00
07FFC0
07FFC0
ENDCHAR
STARTCHAR 0177
ENCODING 375
SWIDTH 540 0
DWIDTH 21 0
BBX 21 38 0 -10
BITMAP
000C00
001E00
003F00
007F80
01F7C0
03C3E0
0380F0
030060
000000
000000
FFF3F8
7FE3F8
7FE3F8
3F80E0
1F80E0
0FC0C0
0FC1C0
07E180
07E380
03F380
03F300
01F700
01FE00
01FE00
00FC00
00FC00
007C00
007800
003800
003000
007000
006000
00E000
3FC000
7FC000
7F8000
3F0000
0C0000
ENDCHAR
STARTCHAR 0178
ENCODING 376
SWIDTH 617 0
DWIDTH 24 0
BBX 23 34 1 0
BITMAP
00C0E0
03E1F0
03F3F0
03F3F0
03E1F0
01C0E0
000000
000000
FFE0FE
FFE0FE
7F807C
3F8078
1FC070
1FC060
0FC0E0
0FE0C0
07E1C0
07F1C0
03F180
03FB80
01FB00
01FF00
00FE00
00FE00
007C00
007C00
007C00
007C00
00FC00
00FE00
00FE00
01FF00
07FFC0
07FFC0
ENDCHAR
STARTCHAR 0179
ENCODING 377
SWIDTH 591 0
DWIDTH 23 0
BBX 20 34 2 0
BITMAP
003E00
003C00
007800
007800
00F000
000000
000000
000000
7FFFE0
7FFFE0
7C0FE0
781FC0
701FC0
703F80
F03F80
007F00
007F00
00FE00
00FE00
01FC00
03F800
03F800
07F000
07F000
0FE000
0FE000
1FC000
3F80F0
3F80F0
7F00E0
7F01E0
FE07E0
FFFFE0
FFFFE0
ENDCHAR
STARTCHAR 017A
ENCODING 378
SWIDTH 488 0
DWIDTH 19 0
BBX 16 28 2 0
BITMAP
007C
00F8
00F0
00E0
01E0
01C0
0380
0000
0000
0000
FFFF
FFFF
FFFF
F0FE
F0FC
E1FC
03F8
03F0
07F0
0FE0
0FC0
1FC7
3F87
7F07
7E07
FE1F
FFFF
FFFF
ENDCHAR
STARTCHAR 017B
ENCODING 379
SWIDTH 591 0
DWIDTH 23 0
BBX 20 34 2 0
BITMAP
002000
00F800
01F800
01FC00
01F800
00F000
000000
000000
7FFFE0
7FFFE0
7C0FE0
781FC0
701FC0
703F80
F03F80
007F00
007F00
00FE00
00FE00
01FC00
03F800
03F800
07F000
07F000
0FE000
0FE000
1FC000
3F80F0
3F80F0
7F00E0
7F01E0
FE07E0
FFFFE0
FFFFE0
ENDCHAR
STARTCHAR 017C
ENCODING 380
SWIDTH 488 0
DWIDTH 19 0
BBX 16 26 2 0
BITMAP
03C0
07E0
07E0
07E0
07E0
0380
0000
0000
FFFF
FFFF
FFFF
F0FE
F0FC
E1FC
03F8
03F0
07F0
0FE0
0FC0
1FC7
3F87
7F07
7E07
FE1F
FFFF
FFFF
ENDCHAR
STARTCHAR 017D
ENCODING 381
SWIDTH 591 0
DWIDTH 23 0
BBX 20 34 2 0
BITMAP
0E0700
0F9F00
07FE00
03F800
01F000
00C000
000000
000000
7FFFE0
7FFFE0
7C0FE0
781FC0
701FC0
703F80
F03F80
007F00
007F00
00FE00
00FE00
01FC00
03F800
03F800
07F000
07F000
0FE000
0FE000
1FC000
3F80F0
3F80F0
7F00E0
7F01E0
FE07E0
FFFFE0
FFFFE0
ENDCHAR
STARTCHAR 017E
ENCODING 382
SWIDTH 488 0
DWIDTH 19 0
BBX 16 28 2 0
BITMAP
2004
701E
7C3C
3FF8
1FF0
0FE0
07C0
0380
0000
0000
FFFF
FFFF
FFFF
F0FE
F0FC
E1FC
03F8
03F0
07F0
0FE0
0FC0
1FC7
3F87
7F07
7E07
FE1F
FFFF
FFFF
ENDCHAR
STARTCHAR 017F
ENCODING 383
SWIDTH 360 0
DWIDTH 14 0
BBX 17 28 1 0
BITMAP
003E00
01FF80
03FF80
07C780
0F8780
0F8780
0F8600
1F8000
1F8000
1F8000
1F8000
FF8000
FF8000
1F8000
1F8000
1F8000
1F8000
1F8000
1F8000
1F8000
1F8000
1F8000
1F8000
1F8000
1F8000
3FE000
FFF800
FFF800
ENDCHAR
STARTCHAR 018E
ENCODING 398
SWIDTH 617 0
DWIDTH 24 0
BBX 22 26 1 0
BITMAP
3FFFFC
3FFFF8
3E07F0
3C07E0
3807E0
3807E0
3007E0
0007E0
0407E0
0707E0
0707E0
07C7E0
07FFE0
07FFE0
0787E0
0707E0
0707E0
0007E0
0007E0
E007E0
F007E0
7007E0
780FE0
7F1FF0
7FFFFC
7FFFFC
ENDCHAR
STARTCHAR 018F
ENCODING 399
SWIDTH 668 0
DWIDTH 26 0
BBX 24 27 1 0
BITMAP
007000
1FFF80
3FFFE0
3E07F0
3C01F8
3801FC
3800FC
38007E
00007E
00007E
00007E
00007F
00003F
7FFFFF
FFFFFF
FFFFFF
FC003E
7C007E
7C007E
7E007E
7E007C
3E00FC
3F00F8
1F01F0
0FC7E0
07FFC0
01FF00
ENDCHAR
STARTCHAR 0192
ENCODING 402
SWIDTH 411 0
DWIDTH 16 0
BBX 27 38 -7 -10
BITMAP
00000F80
00007FE0
0000FFE0
0001F1C0
0003E1C0
0007E1C0
0007E100
0007C000
000FC000
000FC000
000FC000
007FF800
007FF800
001F8000
001F8000
001F8000
001F8000
001F0000
001F0000
001F0000
001F0000
003F0000
003F0000
003F0000
003E0000
003E0000
003E0000
003E0000
007E0000
007C0000
007C0000
307C0000
70F80000
70F80000
79F00000
7FE00000
FFC00000
1C000000
ENDCHAR
STARTCHAR 019D
ENCODING 413
SWIDTH 720 0
DWIDTH 28 0
BBX 32 36 -5 -10
BITMAP
03FE00FF
03FE00FF
007F003C
007F803C
003FC018
003FC018
003FE018
003FF018
0037F818
0033F818
0031FC18
0031FE18
0030FF18
00307F18
00303F98
00303FD8
00301FF8
00300FF8
003007F8
003007F8
003003F8
003001F8
003000F8
003000F8
00700078
00700038
00700000
00700000
00600000
00E00000
01E00000
FFC00000
FFC00000
FF800000
7F000000
1C000000
ENDCHAR
STARTCHAR 01A0
ENCODING 416
SWIDTH 745 0
DWIDTH 29 0
BBX 27 31 1 0
BITMAP
000003C0
000003C0
000003C0
000003C0
001E07C0
00FFFF80
03FFFE00
07C0FE00
0F807F00
1F003F00
3F001F80
3E001F80
7E000FC0
7E000FC0
7E000FC0
FC000FE0
FC000FE0
FC0007E0
FC0007E0
FE0007E0
7E000FC0
7E000FC0
7E000FC0
7F000FC0
3F000F80
3F801F80
1F803F00
0FC03E00
07F0FC00
03FFF800
007FC000
ENDCHAR
STARTCHAR 01A1
ENCODING 417
SWIDTH 591 0
DWIDTH 23 0
BBX 20 22 1 0
BITMAP
000070
000070
000070
0000F0
03FFF0
0FFFC0
1F9FC0
3E0FC0
7E07E0
7C07E0
7C03F0
FC03F0
FC03F0
FC03F0
FC03F0
7C03F0
7E03E0
7E03E0
3F07C0
3F8FC0
0FFF00
07FE00
ENDCHAR
STARTCHAR 01AF
ENCODING 431
SWIDTH 745 0
DWIDTH 29 0
BBX 28 31 1 0
BITMAP
000000F0
000000F0
000000F0
000000F0
000003F0
FFE0FFE0
FFE0FF80
3F803E00
1F801C00
1F801C00
1F801C00
1F801C00
1F801C00
1F801C00
1F801C00
1F801C00
1F801C00
1F801C00
1F801C00
1F801C00
1F801C00
1F801C00
1F801C00
1F801C00
1F801800
1F801800
1FC03800
0FE07800
07F9F000
03FFE000
01FFC000
ENDCHAR
STARTCHAR 01B0
ENCODING 432
SWIDTH 642 0
DWIDTH 25 0
BBX 23 23 1 0
BITMAP
000004
00001E
00001E
00001E
00001E
0600FC
FF1FF8
FF1FE0
7F07E0
3F03E0
3F03E0
3F03E0
3F03E0
3F03E0
3F03E0
3F03E0
3F03E0
3F03E0
3F03F0
3F83F8
1FFFFC
1FFBFC
0FE380
ENDCHAR
STARTCHAR 01B7
ENCODING 439
SWIDTH 591 0
DWIDTH 23 0
BBX 20 26 2 0
BITMAP
7FFFE0
7FFFE0
7C0FE0
781FC0
701F80
F03F80
E07F00
007E00
00FE00
01FC00
03F800
03F000
03FF00
03FFC0
001FE0
0007E0
0007F0
0003F0
E003F0
E003F0
F003F0
F007E0
F80FE0
FE3FC0
FFFF80
1FFE00
ENDCHAR
STARTCHAR 01C4
ENCODING 452
SWIDTH 1337 0
DWIDTH 52 0
BBX 48 34 2 0
BITMAP
00000000F038
00000000FCF8
000000003FE0
000000001FC0
000000000F80
000000000600
000000000000
000000000000
FFFFC003FFFF
FFFFF003FFFF
3F03FC03E07E
3F00FE03C0FE
3F007E0780FC
1F007F0781FC
1F003F0703F8
1F003F8003F8
1F001F8007F0
1F001F8007F0
1F001F800FE0
1F001F800FE0
1F001F801FC0
1F001F803F80
1F001F803F80
1F001F807F00
1F001F807F00
1F001F00FE00
1F003F00FE00
1F003F01FC07
3F003E03F807
3F807C03F80F
3F80F807F00F
7FEFF007F03F
FFFFC00FFFFF
FFFE0007FFFF
ENDCHAR
STARTCHAR 01C5
ENCODING 453
SWIDTH 1234 0
DWIDTH 48 0
BBX 45 28 2 0
BITMAP
000000000040
0000000380E0
FFFFC003E3E0
FFFFF001F7C0
3F03FC00FF80
3F00FE007F00
3F007E003E00
1F007F001C00
1F003F000000
1F003F800000
1F001F87FFF0
1F001F87FFF0
1F001F87FFF0
1F001F8787F0
1F001F870FE0
1F001F870FC0
1F001F801FC0
1F001F803F80
1F001F803F00
1F001F007F00
1F003F00FE00
1F003F01FC38
3F003E01F838
3F807C03F838
3F80F807F078
7FEFF007E1F8
FFFFC00FFFF8
FFFE0007FFF8
ENDCHAR
STARTCHAR 01C6
ENCODING 454
SWIDTH 1105 0
DWIDTH 43 0
BBX 41 28 1 0
BITMAP
000060100000
001FE0380E00
001FE03E1E00
001FE01F7C00
0007E00FF800
0003E007F000
0003E003E000
0003E001C000
0003E0000000
0003E0000000
01FFE07FFF00
07FFE07FFF80
1F87E07FFF00
1F03E0787F00
3E03E0707E00
7E03E070FC00
7C03E001FC00
7C03E003F800
FC03E003F000
FC03E007F000
FC03E00FE000
FE03E00FC380
7E03E01FC380
7E03F03F8380
7F03F87F0780
3FFFFC7E0F80
1FFBF8FFFF80
0FF3807FFF80
ENDCHAR
STARTCHAR 01C7
ENCODING 455
SWIDTH 951 0
DWIDTH 37 0
BBX 34 36 2 -10
BITMAP
FFE001FFC0
FFE001FFC0
3F80007F00
3F80007E00
3F00007E00
1F00007E00
1F00007E00
1F00007E00
1F00007E00
1F00007E00
1F00007E00
1F00007E00
1F00007E00
1F00007E00
1F00007E00
1F00007E00
1F00007E00
1F00007E00
1F00007E00
1F00387E00
3F00787E00
3F80707E00
3F80F07E00
7FE7F07E00
FFFFF07E00
FFFFF07E00
0000007E00
0000007E00
0000007C00
0000007C00
000000F800
000001F000
000001E000
000007C000
0000078000
0000020000
ENDCHAR
STARTCHAR 01C8
ENCODING 456
SWIDTH 900 0
DWIDTH 35 0
BBX 31 37 2 -10
BITMAP
0000003C
FFE0007E
FFE0007E
3F80007E
3F80007E
3F000038
1F000000
1F000000
1F000000
1F00000E
1F0001FE
1F0001FE
1F0000FE
1F00007E
1F00007E
1F00003E
1F00003E
1F00003E
1F00003E
1F00003E
1F00383E
3F00783E
3F80703E
3F80F03E
7FE7F03E
FFFFF03E
FFFFF03E
0000007E
0000007C
0000007C
0000007C
000000F8
000000F0
000001E0
000003C0
00000380
00000100
ENDCHAR
STARTCHAR 01C9
ENCODING 457
SWIDTH 642 0
DWIDTH 25 0
BBX 22 38 1 -10
BITMAP
030000
FF0078
FF00FC
FF00FC
1F01FC
1F00FC
1F0070
1F0000
1F0000
1F0000
1F001C
1F03FC
1F07FC
1F03FC
1F00FC
1F00FC
1F00FC
1F00FC
1F00FC
1F00FC
1F00FC
1F00FC
1F00FC
1F80FC
1F80FC
3FC0FC
FFE0FC
FFE0FC
0000FC
0000F8
0000F8
0000F0
0001F0
0001E0
0003C0
000780
000700
000200
ENDCHAR
STARTCHAR 01CA
ENCODING 458
SWIDTH 1080 0
DWIDTH 42 0
BBX 40 36 1 -10
BITMAP
FF803FCFFF
FF803FC7FF
1FC00F03FC
1FE00F01F8
0FF00601F8
0FF00601F8
0FF80601F8
0FFC0601F8
0DFE0601F8
0CFE0601F8
0C7F0601F8
0C7F8601F8
0C3FC601F8
0C1FC601F8
0C0FE601F8
0C0FF601F8
0C07FE01F8
0C03FE01F8
1C01FE01F8
1C01FE01F8
1C00FE01F8
1C007E01F8
1E003E01F8
3F003E01F8
FF801E01F8
FF800E01F8
00000001F8
00000001F0
00000001F0
00000003F0
00000003E0
00000007C0
0000000F80
0000001F00
0000001C00
0000000800
ENDCHAR
STARTCHAR 01CB
ENCODING 459
SWIDTH 1028 0
DWIDTH 40 0
BBX 37 37 1 -10
BITMAP
00000000F0
FF803FC1F8
FF803FC3F8
1FC00F03F8
1FE00F01F8
0FF00600E0
0FF0060000
0FF8060000
0FFC060000
0DFE060038
0CFE0607F8
0C7F060FF8
0C7F8607F8
0C3FC601F8
0C1FC601F8
0C0FE601F8
0C0FF601F8
0C07FE01F8
0C03FE01F8
1C01FE01F8
1C01FE01F8
1C00FE01F8
1C007E01F8
1E003E01F8
3F003E01F8
FF801E01F8
FF800E01F8
00000001F8
00000001F0
00000001F0
00000001E0
00000003E0
00000003C0
0000000780
0000000F00
0000000E00
0000000400
ENDCHAR
STARTCHAR 01CC
ENCODING 460
SWIDTH 951 0
DWIDTH 37 0
BBX 34 37 1 -10
BITMAP
0000000780
0000000FC0
0000000FC0
0000000FC0
0000000FC0
0000000780
0000000000
0000000000
0000000000
030FC001C0
7FBFE03FC0
FFFFF03FC0
7FFFF81FC0
1F81F80FC0
1F81F807C0
1F81F807C0
1F80F807C0
1F80F807C0
1F80F807C0
1F80F807C0
1F80F807C0
1F80F807C0
1F81F807C0
1F81F807C0
3FC3FC07C0
FFE7FE07C0
FFE7FE07C0
00000007C0
00000007C0
0000000F80
0000000F80
0000000F00
0000001F00
0000003E00
0000007C00
0000007000
0000002000
ENDCHAR
STARTCHAR 01CD
ENCODING 461
SWIDTH 694 0
DWIDTH 27 0
BBX 26 34 1 0
BITMAP
03C1C000
03E7C000
01FF8000
00FF0000
007C0000
00300000
00000000
00040000
001C0000
001C0000
003E0000
003E0000
007F0000
007F0000
00FF8000
00DF8000
00DFC000
01CFC000
018FC000
0387E000
0387E000
0307F000
0703F000
0603F800
0FFFF800
0FFFFC00
0FFFFC00
1C00FC00
1C00FE00
38007E00
38007F00
7C00FF80
FE01FFC0
FE01FFC0
ENDCHAR
STARTCHAR 01CE
ENCODING 462
SWIDTH 540 0
DWIDTH 21 0
BBX 18 28 3 0
BITMAP
400800
E01C00
F87800
7FF000
3FE000
1FC000
0F8000
070000
000000
000000
03F000
0FFC00
3FFC00
78FE00
F87E00
F87E00
F87E00
007E00
03FE00
0FFE00
3E7E00
F87E00
F87E00
F87E00
F87F00
FEFFC0
FFBFC0
7F3F00
ENDCHAR
STARTCHAR 01CF
ENCODING 463
SWIDTH 360 0
DWIDTH 14 0
BBX 11 34 2 0
BITMAP
6060
F1E0
7FC0
3F80
3F00
1E00
0000
0000
FFE0
FFE0
3F80
3F80
3F00
3F00
1F00
1F00
1F00
1F00
1F00
1F00
1F00
1F00
1F00
1F00
1F00
1F00
1F00
1F00
3F00
3F00
3F80
7FC0
FFE0
FFE0
ENDCHAR
STARTCHAR 01D0
ENCODING 464
SWIDTH 334 0
DWIDTH 13 0
BBX 11 28 1 0
BITMAP
2040
F060
F8E0
7DC0
3F80
1F80
1F00
0E00
0000
0000
0300
7F80
FF80
7F80
1F80
1F80
1F80
1F80
1F80
1F80
1F80
1F80
1F80
1F80
1F80
3FC0
FFE0
FFE0
ENDCHAR
STARTCHAR 01D1
ENCODING 465
SWIDTH 745 0
DWIDTH 29 0
BBX 27 34 1 0
BITMAP
01E07000
01F9F000
00FFC000
003F8000
001E0000
00080000
00000000
001E0000
00FFE000
03FFF800
07C0FE00
0F807E00
1F003F00
3F001F80
3E001F80
7E000FC0
7E000FC0
7E000FC0
FC000FE0
FC000FE0
FC0007E0
FC0007E0
FE0007E0
7E000FC0
7E000FC0
7E000FC0
7F000FC0
3F000F80
3F801F80
1F803F00
0FC03E00
07F0FC00
03FFF800
007FC000
ENDCHAR
STARTCHAR 01D2
ENCODING 466
SWIDTH 565 0
DWIDTH 22 0
BBX 20 28 1 0
BITMAP
080100
1C0380
1F0F00
0FFE00
07FC00
03F800
01F000
00E000
000000
000000
03FC00
0FFF00
1F9FC0
3E0FC0
7E07E0
7C07E0
7C03F0
FC03F0
FC03F0
FC03F0
FC03F0
7C03F0
7E03E0
7E03E0
3F07C0
3F8FC0
0FFF00
07FE00
ENDCHAR
STARTCHAR 01D3
ENCODING 467
SWIDTH 668 0
DWIDTH 26 0
BBX 24 34 1 0
BITMAP
01E070
01F9F0
007FC0
003F80
001F00
000C00
000000
000000
FFE0FF
FFE0FF
3F803E
1F801C
1F801C
1F801C
1F801C
1F801C
1F801C
1F801C
1F801C
1F801C
1F801C
1F801C
1F801C
1F801C
1F801C
1F801C
1F801C
1F8018
1F8018
1FC038
0FE078
07F9F0
03FFE0
01FFC0
ENDCHAR
STARTCHAR 01D4
ENCODING 468
SWIDTH 591 0
DWIDTH 23 0
BBX 22 28 1 0
BITMAP
040000
0E03C0
0F8780
07DF00
03FE00
01FC00
00F800
007000
000000
000000
0600E0
FF1FE0
FF1FE0
7F07E0
3F03E0
3F03E0
3F03E0
3F03E0
3F03E0
3F03E0
3F03E0
3F03E0
3F03E0
3F03F0
3F83F8
1FFFFC
1FFBFC
0FE380
ENDCHAR
STARTCHAR 01D5
ENCODING 469
SWIDTH 668 0
DWIDTH 26 0
BBX 24 39 1 0
BITMAP
01FFF8
01FFF8
01FFF8
000000
000000
00E060
01F0F8
01F1F8
01F1F8
01F0F8
00E070
000000
000000
FFE0FF
FFE0FF
3F803E
1F801C
1F801C
1F801C
1F801C
1F801C
1F801C
1F801C
1F801C
1F801C
1F801C
1F801C
1F801C
1F801C
1F801C
1F801C
1F801C
1F8018
1F8018
1FC038
0FE078
07F9F0
03FFE0
01FFC0
ENDCHAR
STARTCHAR 01D6
ENCODING 470
SWIDTH 591 0
DWIDTH 23 0
BBX 22 30 1 0
BITMAP
1FFFC0
1FFFC0
000000
000000
000000
0F0780
1F8FC0
1F8FC0
1F8FC0
0F0780
000000
000000
0600E0
FF1FE0
FF1FE0
7F07E0
3F03E0
3F03E0
3F03E0
3F03E0
3F03E0
3F03E0
3F03E0
3F03E0
3F03E0
3F03F0
3F83F8
1FFFFC
1FFBFC
0FE380
ENDCHAR
STARTCHAR 01D7
ENCODING 471
SWIDTH 668 0
DWIDTH 26 0
BBX 24 41 1 0
BITMAP
0003E0
0003C0
000780
000700
000F00
000600
000000
00E060
01F0F8
01F1F8
01F1F8
01F0F8
00E070
000000
000000
FFE0FF
FFE0FF
3F803E
1F801C
1F801C
1F801C
1F801C
1F801C
1F801C
1F801C
1F801C
1F801C
1F801C
1F801C
1F801C
1F801C
1F801C
1F801C
1F801C
1F8018
1F8018
1FC038
0FE078
07F9F0
03FFE0
01FFC0
ENDCHAR
STARTCHAR 01D8
ENCODING 472
SWIDTH 591 0
DWIDTH 23 0
BBX 22 33 1 0
BITMAP
000400
001E00
003C00
003800
007800
007000
000000
000000
0F0780
1F8FC0
1F8FC0
1F8FC0
0F0780
000000
000000
0600E0
FF1FE0
FF1FE0
7F07E0
3F03E0
3F03E0
3F03E0
3F03E0
3F03E0
3F03E0
3F03E0
3F03E0
3F03E0
3F03F0
3F83F8
1FFFFC
1FFBFC
0FE380
ENDCHAR
STARTCHAR 01D9
ENCODING 473
SWIDTH 668 0
DWIDTH 26 0
BBX 24 41 1 0
BITMAP
00E070
01F9F0
00FFE0
003F80
001F00
000E00
000000
00E060
01F0F8
01F1F8
01F1F8
01F0F8
00E070
000000
000000
FFE0FF
FFE0FF
3F803E
1F801C
1F801C
1F801C
1F801C
1F801C
1F801C
1F801C
1F801C
1F801C
1F801C
1F801C
1F801C
1F801C
1F801C
1F801C
1F801C
1F8018
1F8018
1FC038
0FE078
07F9F0
03FFE0
01FFC0
ENDCHAR
STARTCHAR 01DA
ENCODING 474
SWIDTH 591 0
DWIDTH 23 0
BBX 22 33 1 0
BITMAP
060100
0F0780
0FDF00
03FE00
01F800
00F000
000000
000000
0F0780
1F8FC0
1F8FC0
1F8FC0
0F0780
000000
000000
0600E0
FF1FE0
FF1FE0
7F07E0
3F03E0
3F03E0
3F03E0
3F03E0
3F03E0
3F03E0
3F03E0
3F03E0
3F03E0
3F03F0
3F83F8
1FFFFC
1FFBFC
0FE380
ENDCHAR
STARTCHAR 01DB
ENCODING 475
SWIDTH 668 0
DWIDTH 26 0
BBX 24 41 1 0
BITMAP
003C00
007C00
003E00
001E00
000F00
000400
000000
00E060
01F0F8
01F1F8
01F1F8
01F0F8
00E070
000000
000000
FFE0FF
FFE0FF
3F803E
1F801C
1F801C
1F801C
1F801C
1F801C
1F801C
1F801C
1F801C
1F801C
1F801C
1F801C
1F801C
1F801C
1F801C
1F801C
1F801C
1F8018
1F8018
1FC038
0FE078
07F9F0
03FFE0
01FFC0
ENDCHAR
STARTCHAR 01DC
ENCODING 476
SWIDTH 591 0
DWIDTH 23 0
BBX 22 32 1 0
BITMAP
03E000
01E000
00F000
00F000
007800
000000
000000
0F0780
1F8FC0
1F8FC0
1F8FC0
0F0780
000000
000000
0600E0
FF1FE0
FF1FE0
7F07E0
3F03E0
3F03E0
3F03E0
3F03E0
3F03E0
3F03E0
3F03E0
3F03E0
3F03E0
3F03F0
3F83F8
1FFFFC
1FFBFC
0FE380
ENDCHAR
STARTCHAR 01DD
ENCODING 477
SWIDTH 488 0
DWIDTH 19 0
BBX 18 18 1 0
BITMAP
0FF000
3FFC00
7FFE00
607F00
403F80
001F80
001F80
000F80
7FFFC0
7FFFC0
FFFF80
FC0F80
7C0F80
7C1F80
7C1F00
3E3E00
1FFC00
0FF800
ENDCHAR
STARTCHAR 01E4
ENCODING 484
SWIDTH 694 0
DWIDTH 27 0
BBX 26 27 1 0
BITMAP
000F0000
00FFF800
03FFFE00
07E03E00
0F801E00
1F001E00
3F000E00
3E000E00
7E000C00
7E000000
7E000000
FE000000
FC000000
FC000000
FE01FF80
FE01FF80
7E01FF80
7E003E00
7E003E00
7F07FFC0
3F07FFC0
3F87FFC0
1F803E00
0FC03E00
07F0FF00
03FFFC00
00FFE000
ENDCHAR
STARTCHAR 01E5
ENCODING 485
SWIDTH 540 0
DWIDTH 21 0
BBX 23 28 -1 -10
BITMAP
01FFF8
07FFF8
0F8FF8
1F87C0
1F03E0
1F03E0
1F03E0
1F03E0
1F83E0
0F87C0
0FFFC0
07FF00
0F2000
0E0000
1F0000
1FFFC0
1FFFF0
0FFFF0
0FFFF8
0FFFF8
1E01F8
FFFFFE
FFFFFE
FFFFF0
3F03E0
1FFFC0
0FFF00
01F000
ENDCHAR
STARTCHAR 01E6
ENCODING 486
SWIDTH 694 0
DWIDTH 27 0
BBX 25 34 1 0
BITMAP
01E07000
01F9F000
007FC000
003F8000
001F0000
000C0000
00000000
000F0000
00FFF800
03FFFE00
07E03E00
0F801E00
1F001E00
3F000E00
3E000E00
7E000C00
7E000000
7E000000
FE000000
FC000000
FC000000
FE01FF80
FE01FF80
7E01FF80
7E003E00
7E003E00
7F003E00
3F003E00
3F803E00
1F803E00
0FC03E00
07F0FF00
03FFFC00
00FFE000
ENDCHAR
STARTCHAR 01E7
ENCODING 487
SWIDTH 540 0
DWIDTH 21 0
BBX 19 38 1 -10
BITMAP
100200
380F00
3E1E00
1FFC00
0FF800
07F000
03E000
01C000
000000
000000
07FFE0
1FFFE0
3E3FE0
7E1F00
7C0F80
7C0F80
7C0F80
7C0F80
7E0F80
3E1F00
3FFF00
1FFC00
3C8000
380000
7C0000
7FFF00
7FFFC0
3FFFC0
3FFFE0
3FFFE0
7807E0
F803E0
F803C0
F807C0
FC0F80
7FFF00
3FFC00
03C000
ENDCHAR
STARTCHAR 01E8
ENCODING 488
SWIDTH 720 0
DWIDTH 28 0
BBX 26 34 2 0
BITMAP
03C0E000
03F3E000
01FF8000
007F0000
003C0000
00100000
00000000
00000000
FFE1FF00
FFE1FF00
3F80FC00
3F80F000
3F01E000
3F03C000
1F038000
1F070000
1F0E0000
1F1C0000
1F380000
1F7C0000
1FFE0000
1FFE0000
1F7F0000
1F3F8000
1F1FC000
1F1FC000
1F0FE000
1F07F000
3F03F800
3F03F800
3F81FC00
7FC0FF80
FFE0FFC0
FFE07F80
ENDCHAR
STARTCHAR 01E9
ENCODING 489
SWIDTH 591 0
DWIDTH 23 0
BBX 23 34 1 0
BITMAP
070380
07CF80
03FF00
01FC00
00F800
007000
030000
FF0000
FF0000
FF0000
1F0000
1F0000
1F0000
1F0000
1F0000
1F0000
1F07FC
1F07FC
1F03F8
1F03C0
1F0780
1F0F00
1F1E00
1F3C00
1F7E00
1F7F00
1F3F80
1F1FC0
1F0FC0
1F87E0
1F87F0
3F83FC
FFE1FE
FFE0FC
ENDCHAR
STARTCHAR 01EA
ENCODING 490
SWIDTH 745 0
DWIDTH 29 0
BBX 27 37 1 -10
BITMAP
001E0000
00FFE000
03FFF800
07C0FE00
0F807E00
1F003F00
3F001F80
3E001F80
7E000FC0
7E000FC0
7E000FC0
FC000FE0
FC000FE0
FC0007E0
FC0007E0
FE0007E0
7E000FC0
7E000FC0
7E000FC0
7F000FC0
3F000F80
3F801F80
1F803F00
0FC03E00
07F0FC00
03FFF000
007FE000
00038000
00070000
000F0000
000F0000
001F0000
001FC000
001FF000
000FF800
000FE000
00038000
ENDCHAR
STARTCHAR 01EB
ENCODING 491
SWIDTH 565 0
DWIDTH 22 0
BBX 20 28 1 -10
BITMAP
03FC00
0FFF00
1F9FC0
3E0FC0
7E07E0
7C07E0
7C03F0
FC03F0
FC03F0
FC03F0
FC03F0
7C03F0
7E03E0
7E03E0
3F07C0
3F8FC0
0FFF00
07FE00
00F000
01C000
038000
078000
0F8000
0FE000
0FFC00
07FC00
03F000
01C000
ENDCHAR
STARTCHAR 01EE
ENCODING 494
SWIDTH 591 0
DWIDTH 23 0
BBX 20 34 2 0
BITMAP
1E0700
1F9F00
0FFC00
07F800
01E000
008000
000000
000000
7FFFE0
7FFFE0
7C0FE0
781FC0
701F80
F03F80
E07F00
007E00
00FE00
01FC00
03F800
03F000
03FF00
03FFC0
001FE0
0007E0
0007F0
0003F0
E003F0
E003F0
F003F0
F007E0
F80FE0
FE3FC0
FFFF80
1FFE00
ENDCHAR
STARTCHAR 01EF
ENCODING 495
SWIDTH 488 0
DWIDTH 19 0
BBX 17 38 2 -10
BITMAP
200400
780E00
7C3C00
1FF800
0FF000
07E000
07C000
038000
000000
000000
FFFF00
FFFF00
FFFF00
F07E00
F0FE00
E0FC00
01F800
01F800
03F000
07F000
07E000
0FC000
1FF800
1FFC00
0DFE00
003F00
003F00
001F80
001F80
001F80
001F80
E01F00
E03F00
F03E00
F87E00
FFFC00
FFF000
070000
ENDCHAR
STARTCHAR 01F1
ENCODING 497
SWIDTH 1337 0
DWIDTH 52 0
BBX 48 26 2 0
BITMAP
FFFFC003FFFF
FFFFF003FFFF
3F03FC03E07E
3F00FE03C0FE
3F007E0780FC
1F007F0781FC
1F003F0703F8
1F003F8003F8
1F001F8007F0
1F001F8007F0
1F001F800FE0
1F001F800FE0
1F001F801FC0
1F001F803F80
1F001F803F80
1F001F807F00
1F001F807F00
1F001F00FE00
1F003F00FE00
1F003F01FC07
3F003E03F807
3F807C03F80F
3F80F807F00F
7FEFF007F03F
FFFFC00FFFFF
FFFE0007FFFF
ENDCHAR
STARTCHAR 01F2
ENCODING 498
SWIDTH 1234 0
DWIDTH 48 0
BBX 45 26 2 0
BITMAP
FFFFC0000000
FFFFF0000000
3F03FC000000
3F00FE000000
3F007E000000
1F007F000000
1F003F000000
1F003F800000
1F001F87FFF0
1F001F87FFF0
1F001F87FFF0
1F001F8787F0
1F001F870FE0
1F001F870FC0
1F001F801FC0
1F001F803F80
1F001F803F00
1F001F007F00
1F003F00FE00
1F003F01FC38
3F003E01F838
3F807C03F838
3F80F807F078
7FEFF007E1F8
FFFFC00FFFF8
FFFE0007FFF8
ENDCHAR
STARTCHAR 01F3
ENCODING 499
SWIDTH 1105 0
DWIDTH 43 0
BBX 41 28 1 0
BITMAP
000060000000
001FE0000000
001FE0000000
001FE0000000
0007E0000000
0003E0000000
0003E0000000
0003E0000000
0003E0000000
0003E0000000
01FFE07FFF00
07FFE07FFF80
1F87E07FFF00
1F03E0787F00
3E03E0707E00
7E03E070FC00
7C03E001FC00
7C03E003F800
FC03E003F000
FC03E007F000
FC03E00FE000
FE03E00FC380
7E03E01FC380
7E03F03F8380
7F03F87F0780
3FFFFC7E0F80
1FFBF8FFFF80
0FF3807FFF80
ENDCHAR
STARTCHAR 01FA
ENCODING 506
SWIDTH 694 0
DWIDTH 27 0
BBX 26 42 1 0
BITMAP
000F8000
000F0000
001E0000
001E0000
003C0000
00000000
00000000
00080000
007F0000
00E38000
00E38000
00E38000
00F70000
003E0000
00000000
00040000
001C0000
001C0000
003E0000
003E0000
007F0000
007F0000
00FF8000
00DF8000
00DFC000
01CFC000
018FC000
0387E000
0387E000
0307F000
0703F000
0603F800
0FFFF800
0FFFFC00
0FFFFC00
1C00FC00
1C00FE00
38007E00
38007F00
7C00FF80
FE01FFC0
FE01FFC0
ENDCHAR
STARTCHAR 01FB
ENCODING 507
SWIDTH 540 0
DWIDTH 21 0
BBX 18 34 3 0
BITMAP
01F000
01E000
03C000
038000
078000
030000
000000
000000
07C000
1DE000
1CE000
186000
1CE000
0FC000
020000
000000
03F000
0FFC00
3FFC00
78FE00
F87E00
F87E00
F87E00
007E00
03FE00
0FFE00
3E7E00
F87E00
F87E00
F87E00
F87F00
FEFFC0
FFBFC0
7F3F00
ENDCHAR
STARTCHAR 01FC
ENCODING 508
SWIDTH 951 0
DWIDTH 37 0
BBX 35 34 1 0
BITMAP
00000F8000
00000F0000
00001E0000
00001C0000
0000380000
0000000000
0000000000
0000000000
001FFFFF80
001FFFFF80
0007FE0F80
00077E0380
00077E0380
000E7E01C0
000E7E0180
001C7E0000
001C7E0000
00387E1C00
00307E1C00
00707E1C00
00FFFFFC00
00FFFFFC00
01FFFFFC00
01C07E1C00
03807E1C00
03007E1C00
07007E0000
0E007E00E0
0E007E00E0
1C007E01E0
3C007E03C0
7E01FF1FC0
FF03FFFFC0
FF03FFFFC0
ENDCHAR
STARTCHAR 01FD
ENCODING 509
SWIDTH 720 0
DWIDTH 28 0
BBX 26 28 1 0
BITMAP
0003E000
0003C000
0003C000
00078000
00070000
000F0000
000E0000
00000000
00000000
00000000
0FF0FC00
3FFBFE00
3E7F9F00
3C3F0F80
383F0780
383F07C0
003F07C0
003FFFC0
07FFFF80
1FFFFE00
3E3F0000
7C3F0000
783F0000
F83F8000
FC7FC180
7FEFFFC0
7FE7FF80
3F81FE00
ENDCHAR
STARTCHAR 01FE
ENCODING 510
SWIDTH 745 0
DWIDTH 29 0
BBX 27 35 1 -1
BITMAP
0003C000
00078000
00078000
000F0000
000E0000
00000000
00000000
001E03C0
00FFE380
03FFFF00
07C0FF00
0F807F00
1F003F00
3F003F80
3E007F80
7E00FFC0
7E01EFC0
7E03CFC0
FC038FE0
FC070FE0
FC0F07E0
FC1E07E0
FE1C07E0
7E380FC0
7E780FC0
7EF00FC0
7FE00FC0
3FC00F80
3FC01F80
1F803F00
0FC03E00
1FF0FC00
1FFFF800
38FFC000
38000000
ENDCHAR
STARTCHAR 01FF
ENCODING 511
SWIDTH 565 0
DWIDTH 22 0
BBX 20 29 1 -1
BITMAP
001F00
003E00
003C00
003800
007800
007000
00E000
000000
000000
000070
03FCF0
0FFFE0
1F9FC0
3E0FC0
7E0FE0
7C1FE0
7C3FF0
FC3BF0
FC73F0
FCE3F0
FDE3F0
7FC3F0
7F83E0
7F03E0
3F07C0
3F8FC0
3FFF00
77FE00
E00000
ENDCHAR
STARTCHAR 0200
ENCODING 512
SWIDTH 694 0
DWIDTH 27 0
BBX 26 34 1 0
BITMAP
00020000
0F9F0000
078F0000
03C78000
01C38000
00E1C000
00000000
00040000
001C0000
001C0000
003E0000
003E0000
007F0000
007F0000
00FF8000
00DF8000
00DFC000
01CFC000
018FC000
0387E000
0387E000
0307F000
0703F000
0603F800
0FFFF800
0FFFFC00
0FFFFC00
1C00FC00
1C00FE00
38007E00
38007F00
7C00FF80
FE01FFC0
FE01FFC0
ENDCHAR
STARTCHAR 0201
ENCODING 513
SWIDTH 540 0
DWIDTH 21 0
BBX 19 28 2 0
BITMAP
78F000
F9F000
78F000
3C7800
1C3800
1E3C00
0E1C00
000000
000000
000000
01F800
07FE00
1FFE00
3C7F00
7C3F00
7C3F00
7C3F00
003F00
01FF00
07FF00
1F3F00
7C3F00
7C3F00
7C3F00
7C3F80
7F7FE0
7FDFE0
3F9F80
ENDCHAR
STARTCHAR 0202
ENCODING 514
SWIDTH 694 0
DWIDTH 27 0
BBX 26 34 1 0
BITMAP
007F0000
00FF8000
01FFC000
03E3E000
0381E000
0380C000
00000000
00040000
001C0000
001C0000
003E0000
003E0000
007F0000
007F0000
00FF8000
00DF8000
00DFC000
01CFC000
018FC000
0387E000
0387E000
0307F000
0703F000
0603F800
0FFFF800
0FFFFC00
0FFFFC00
1C00FC00
1C00FE00
38007E00
38007F00
7C00FF80
FE01FFC0
FE01FFC0
ENDCHAR
STARTCHAR 0203
ENCODING 515
SWIDTH 540 0
DWIDTH 21 0
BBX 18 28 3 0
BITMAP
078000
3FF000
7FF800
7FF800
F07C00
E03C00
C01C00
C01800
000000
000000
03F000
0FFC00
3FFC00
78FE00
F87E00
F87E00
F87E00
007E00
03FE00
0FFE00
3E7E00
F87E00
F87E00
F87E00
F87F00
FEFFC0
FFBFC0
7F3F00
ENDCHAR
STARTCHAR 0204
ENCODING 516
SWIDTH 617 0
DWIDTH 24 0
BBX 21 34 2 0
BITMAP
0C0800
7C7800
3E7800
1E3C00
0F1E00
070E00
000000
000000
FFFFE0
FFFFE0
3F03E0
3F00E0
3F00E0
3F0070
1F0060
1F0000
1F0100
1F0700
1F0700
1F1F00
1FFF00
1FFF00
1F0F00
1F0700
1F0700
1F0000
1F0000
1F0038
3F0038
3F8078
3F80F8
7FE7F0
FFFFF0
FFFFF0
ENDCHAR
STARTCHAR 0205
ENCODING 517
SWIDTH 488 0
DWIDTH 19 0
BBX 17 28 1 0
BITMAP
3C7800
7C7800
3E3C00
1E3C00
0F1E00
070E00
078F00
000000
000000
000000
03F800
0FFE00
1F3F00
3E1F00
7C0F80
7C0F80
7C0F80
FC0F80
FFFF80
FFFF80
FC0000
7C0000
7E0000
7E0000
3F0180
3FFF80
1FFF00
07FC00
ENDCHAR
STARTCHAR 0206
ENCODING 518
SWIDTH 617 0
DWIDTH 24 0
BBX 21 34 2 0
BITMAP
01F800
07FE00
0FFE00
0F1F00
1C0700
1C0700
000000
000000
FFFFE0
FFFFE0
3F03E0
3F00E0
3F00E0
3F0070
1F0060
1F0000
1F0100
1F0700
1F0700
1F1F00
1FFF00
1FFF00
1F0F00
1F0700
1F0700
1F0000
1F0000
1F0038
3F0038
3F8078
3F80F8
7FE7F0
FFFFF0
FFFFF0
ENDCHAR
STARTCHAR 0207
ENCODING 519
SWIDTH 488 0
DWIDTH 19 0
BBX 17 28 1 0
BITMAP
004000
07FC00
0FFE00
1FFF00
3E1F00
380700
380780
100300
000000
000000
03F800
0FFE00
1F3F00
3E1F00
7C0F80
7C0F80
7C0F80
FC0F80
FFFF80
FFFF80
FC0000
7C0000
7E0000
7E0000
3F0180
3FFF80
1FFF00
07FC00
ENDCHAR
STARTCHAR 0208
ENCODING 520
SWIDTH 360 0
DWIDTH 14 0
BBX 13 34 0 0
BITMAP
1020
F1E0
79E0
38F0
3C70
1C38
0000
0000
3FF8
3FF8
0FE0
0FE0
0FC0
0FC0
07C0
07C0
07C0
07C0
07C0
07C0
07C0
07C0
07C0
07C0
07C0
07C0
07C0
07C0
0FC0
0FC0
0FE0
1FF0
3FF8
3FF8
ENDCHAR
STARTCHAR 0209
ENCODING 521
SWIDTH 334 0
DWIDTH 13 0
BBX 13 28 -1 0
BITMAP
71E0
F1E0
79E0
38E0
3C70
1C70
1C38
0000
0000
0000
00C0
1FE0
3FE0
1FE0
07E0
07E0
07E0
07E0
07E0
07E0
07E0
07E0
07E0
07E0
07E0
0FF0
3FF8
3FF8
ENDCHAR
STARTCHAR 020A
ENCODING 522
SWIDTH 360 0
DWIDTH 14 0
BBX 12 34 1 0
BITMAP
0F80
3FE0
7FF0
79F0
6070
E030
0000
0000
7FF0
7FF0
1FC0
1FC0
1F80
1F80
0F80
0F80
0F80
0F80
0F80
0F80
0F80
0F80
0F80
0F80
0F80
0F80
0F80
0F80
1F80
1F80
1FC0
3FE0
7FF0
7FF0
ENDCHAR
STARTCHAR 020B
ENCODING 523
SWIDTH 334 0
DWIDTH 13 0
BBX 13 28 0 0
BITMAP
0200
1FE0
3FF0
7FF0
70F8
E078
E038
6030
0000
0000
0180
3FC0
7FC0
3FC0
0FC0
0FC0
0FC0
0FC0
0FC0
0FC0
0FC0
0FC0
0FC0
0FC0
0FC0
1FE0
7FF0
7FF0
ENDCHAR
STARTCHAR 020C
ENCODING 524
SWIDTH 745 0
DWIDTH 29 0
BBX 27 34 1 0
BITMAP
00400000
07CF8000
03C78000
01E3C000
00E1C000
0070E000
00000000
001E0000
00FFE000
03FFF800
07C0FE00
0F807E00
1F003F00
3F001F80
3E001F80
7E000FC0
7E000FC0
7E000FC0
FC000FE0
FC000FE0
FC0007E0
FC0007E0
FE0007E0
7E000FC0
7E000FC0
7E000FC0
7F000FC0
3F000F80
3F801F80
1F803F00
0FC03E00
07F0FC00
03FFF800
007FC000
ENDCHAR
STARTCHAR 020D
ENCODING 525
SWIDTH 565 0
DWIDTH 22 0
BBX 20 28 1 0
BITMAP
1E3C00
3E7C00
1E3C00
0F1E00
070E00
078F00
038700
000000
000000
000000
03FC00
0FFF00
1F9FC0
3E0FC0
7E07E0
7C07E0
7C03F0
FC03F0
FC03F0
FC03F0
FC03F0
7C03F0
7E03E0
7E03E0
3F07C0
3F8FC0
0FFF00
07FE00
ENDCHAR
STARTCHAR 020E
ENCODING 526
SWIDTH 745 0
DWIDTH 29 0
BBX 27 34 1 0
BITMAP
003F8000
007FE000
00FFE000
01F1F000
01C0F000
01C06000
00000000
001E0000
00FFE000
03FFF800
07C0FE00
0F807E00
1F003F00
3F001F80
3E001F80
7E000FC0
7E000FC0
7E000FC0
FC000FE0
FC000FE0
FC0007E0
FC0007E0
FE0007E0
7E000FC0
7E000FC0
7E000FC0
7F000FC0
3F000F80
3F801F80
1F803F00
0FC03E00
07F0FC00
03FFF800
007FC000
ENDCHAR
STARTCHAR 020F
ENCODING 527
SWIDTH 565 0
DWIDTH 22 0
BBX 20 28 1 0
BITMAP
00E000
07FE00
0FFF00
1FFF00
1E0F80
1C0780
180380
180380
000000
000000
03FC00
0FFF00
1F9FC0
3E0FC0
7E07E0
7C07E0
7C03F0
FC03F0
FC03F0
FC03F0
FC03F0
7C03F0
7E03E0
7E03E0
3F07C0
3F8FC0
0FFF00
07FE00
ENDCHAR
STARTCHAR 0210
ENCODING 528
SWIDTH 694 0
DWIDTH 27 0
BBX 25 34 2 0
BITMAP
02040000
3E7C0000
1E3C0000
0F1E0000
078E0000
03870000
00000000
00000000
FFFFC000
FFFFE000
3F07F000
3F01F800
3F01F800
3F00FC00
1F00FC00
1F00FC00
1F00FC00
1F01F800
1F01F800
1F03F000
1F1FE000
1FFFC000
1FFF0000
1F1F8000
1F0FC000
1F07E000
1F07E000
1F03F000
3F03F800
3F01F800
3F81FC00
7F81FF00
FFE0FF80
FFE0FF00
ENDCHAR
STARTCHAR 0211
ENCODING 529
SWIDTH 462 0
DWIDTH 18 0
BBX 17 28 1 0
BITMAP
3C7800
7CF800
3C7800
1E3C00
0E1C00
0F1E00
070E00
000000
000000
000000
030F00
7F9F80
FF3F80
7F7F80
1FEF00
1F8700
1F8700
1F8000
1F8000
1F8000
1F8000
1F8000
1F8000
1F8000
1F8000
3FE000
FFF800
FFF800
ENDCHAR
STARTCHAR 0212
ENCODING 530
SWIDTH 694 0
DWIDTH 27 0
BBX 25 34 2 0
BITMAP
01FC0000
03FF0000
07FF0000
0F8F8000
0E078000
0E030000
00000000
00000000
FFFFC000
FFFFE000
3F07F000
3F01F800
3F01F800
3F00FC00
1F00FC00
1F00FC00
1F00FC00
1F01F800
1F01F800
1F03F000
1F1FE000
1FFFC000
1FFF0000
1F1F8000
1F0FC000
1F07E000
1F07E000
1F03F000
3F03F800
3F01F800
3F81FC00
7F81FF00
FFE0FF80
FFE0FF00
ENDCHAR
STARTCHAR 0213
ENCODING 531
SWIDTH 462 0
DWIDTH 18 0
BBX 17 28 1 0
BITMAP
00C000
0FF800
1FFE00
3FFE00
3C1F00
380F00
300700
300600
000000
000000
030F00
7F9F80
FF3F80
7F7F80
1FEF00
1F8700
1F8700
1F8000
1F8000
1F8000
1F8000
1F8000
1F8000
1F8000
1F8000
3FE000
FFF800
FFF800
ENDCHAR
STARTCHAR 0214
ENCODING 532
SWIDTH 668 0
DWIDTH 26 0
BBX 24 34 1 0
BITMAP
004180
03C780
01E3C0
00E1C0
00F1E0
0070E0
000000
000000
FFE0FF
FFE0FF
3F803E
1F801C
1F801C
1F801C
1F801C
1F801C
1F801C
1F801C
1F801C
1F801C
1F801C
1F801C
1F801C
1F801C
1F801C
1F801C
1F801C
1F8018
1F8018
1FC038
0FE078
07F9F0
03FFE0
01FFC0
ENDCHAR
STARTCHAR 0215
ENCODING 533
SWIDTH 591 0
DWIDTH 23 0
BBX 22 28 1 0
BITMAP
1E3C00
1F3E00
0F1E00
070F00
078F00
038700
01C380
000000
000000
000000
0600E0
FF1FE0
FF1FE0
7F07E0
3F03E0
3F03E0
3F03E0
3F03E0
3F03E0
3F03E0
3F03E0
3F03E0
3F03E0
3F03F0
3F83F8
1FFFFC
1FFBFC
0FE380
ENDCHAR
STARTCHAR 0216
ENCODING 534
SWIDTH 668 0
DWIDTH 26 0
BBX 24 34 1 0
BITMAP
001F80
007FE0
00FFF0
00F1F0
00C070
01C070
000000
000000
FFE0FF
FFE0FF
3F803E
1F801C
1F801C
1F801C
1F801C
1F801C
1F801C
1F801C
1F801C
1F801C
1F801C
1F801C
1F801C
1F801C
1F801C
1F801C
1F801C
1F8018
1F8018
1FC038
0FE078
07F9F0
03FFE0
01FFC0
ENDCHAR
STARTCHAR 0217
ENCODING 535
SWIDTH 591 0
DWIDTH 23 0
BBX 22 28 1 0
BITMAP
002000
03FE00
07FF00
0FFF80
0F0780
1E03C0
1C01C0
0C0180
000000
000000
0600E0
FF1FE0
FF1FE0
7F07E0
3F03E0
3F03E0
3F03E0
3F03E0
3F03E0
3F03E0
3F03E0
3F03E0
3F03E0
3F03F0
3F83F8
1FFFFC
1FFBFC
0FE380
ENDCHAR
STARTCHAR 0218
ENCODING 536
SWIDTH 540 0
DWIDTH 21 0
BBX 18 39 2 -12
BITMAP
00E000
0FFE00
1FFF00
3C1F00
780F00
780700
F80700
FC0780
FC0000
FF0000
7FC000
7FF000
3FFC00
1FFE00
0FFF00
07FF80
01FFC0
003FC0
001FC0
F00FC0
F007C0
F007C0
F807C0
F80F80
FE1F80
7FFE00
1FFC00
000000
000000
00F000
03F000
03F000
03F000
00F000
00F000
00E000
01C000
038000
010000
ENDCHAR
STARTCHAR 0219
ENCODING 537
SWIDTH 437 0
DWIDTH 17 0
BBX 15 30 2 -12
BITMAP
1FF0
7FF8
FCF8
F878
F838
FC38
FE00
FFC0
7FF0
3FF8
0FFC
21FC
E0FE
E07E
F07C
F8FC
FFF8
7FE0
0000
0000
0780
0FC0
0FC0
0FC0
07C0
0380
0780
0700
0E00
0400
ENDCHAR
STARTCHAR 021A
ENCODING 538
SWIDTH 642 0
DWIDTH 25 0
BBX 23 38 1 -12
BITMAP
7FFFFE
7FFFFE
7C7E3E
F07E1E
F07E0E
E07E0E
E07E0E
007E00
007E00
007E00
007E00
007E00
007E00
007E00
007E00
007E00
007E00
007E00
007E00
007E00
007E00
007E00
00FE00
01FF00
07FFC0
07FFC0
000000
000000
003C00
007E00
00FE00
00FE00
003C00
003C00
003800
007800
007000
002000
ENDCHAR
STARTCHAR 021B
ENCODING 539
SWIDTH 360 0
DWIDTH 14 0
BBX 14 35 0 -12
BITMAP
0180
0780
1F80
1F80
1F80
1F80
1F80
7FFC
FFF8
1F80
1F80
1F80
1F80
1F80
1F80
1F80
1F80
1F80
1F80
1F80
0F80
0FCC
0FFC
07F8
0000
0000
01E0
03E0
07F0
07E0
01E0
01E0
01C0
03C0
0780
ENDCHAR
STARTCHAR 021C
ENCODING 540
SWIDTH 565 0
DWIDTH 22 0
BBX 19 34 2 -7
BITMAP
038000
7FFC00
FFFF00
F83F80
F01F80
F01F80
F01FC0
E00FC0
001F80
001F80
001F80
003F00
007E00
00F800
03F000
1FF800
1FFF00
0CFF80
001FC0
000FC0
000FE0
0007E0
0007E0
0007E0
0007E0
000FE0
000FC0
000FC0
001F80
003F00
C0FF00
FFFC00
7FF000
0F8000
ENDCHAR
STARTCHAR 021D
ENCODING 541
SWIDTH 488 0
DWIDTH 19 0
BBX 16 28 2 -10
BITMAP
1FF0
FFFC
F8FE
F07E
F03E
E03F
E03E
203E
007E
007C
00F8
03F0
1FC0
1FFC
1FFE
007E
003F
003F
003F
001F
003F
003F
003F
007E
C0FC
FFF8
FFF0
0F00
ENDCHAR
STARTCHAR 021E
ENCODING 542
SWIDTH 771 0
DWIDTH 30 0
BBX 27 34 2 0
BITMAP
01C0E000
01F3E000
00FFC000
007F0000
003E0000
00180000
00000000
00000000
FFE1FFE0
FFE1FFC0
3F807F80
3F803F00
3F003F00
3F003F00
1F003F00
1F003F00
1F003F00
1F003F00
1F003F00
1FFFFF00
1FFFFF00
1FFFFF00
1F003F00
1F003F00
1F003F00
1F003F00
1F003F00
1F003F00
3F003F00
3F003F00
3F803F00
7FC07F80
FFE1FFE0
FFE1FFE0
ENDCHAR
STARTCHAR 021F
ENCODING 543
SWIDTH 642 0
DWIDTH 25 0
BBX 23 34 1 0
BITMAP
0F0380
0FCF80
03FE00
01FC00
00F800
006000
030000
FF0000
FF0000
FF0000
3F0000
1F0000
1F0000
1F0000
1F0000
1F0000
1F0F80
1F3FE0
1F7FF0
1FFFF0
1F03F8
1F01F8
1F01F8
1F01F8
1F01F8
1F01F8
1F01F8
1F01F8
1F01F8
1F81F8
1F81F8
3FC3FC
FFE7FE
FFE7FE
ENDCHAR
STARTCHAR 0228
ENCODING 552
SWIDTH 617 0
DWIDTH 24 0
BBX 21 35 2 -9
BITMAP
FFFFE0
FFFFE0
3F03E0
3F00E0
3F00E0
3F0070
1F0060
1F0000
1F0100
1F0700
1F0700
1F1F00
1FFF00
1FFF00
1F0F00
1F0700
1F0700
1F0000
1F0000
1F0038
3F0038
3F8078
3F80F8
7FE7F0
FFFFF0
FFFFF0
006000
00E000
01F000
00F800
003C00
003C00
003C00
007800
00F000
ENDCHAR
STARTCHAR 0229
ENCODING 553
SWIDTH 488 0
DWIDTH 19 0
BBX 17 27 1 -9
BITMAP
03F800
0FFE00
1F3F00
3E1F00
7C0F80
7C0F80
7C0F80
FC0F80
FFFF80
FFFF80
FC0000
7C0000
7E0000
7E0000
3F0180
3FFF80
1FFF00
07FC00
00E000
01C000
01F000
01F800
007800
003800
003800
00F000
01E000
ENDCHAR
STARTCHAR 022A
ENCODING 554
SWIDTH 745 0
DWIDTH 29 0
BBX 27 39 1 0
BITMAP
03FFF800
03FFF800
03FFF800
00000000
00000000
00C06000
01F1F000
03F1F800
03F1F800
01F1F800
00E07000
00000000
001E0000
00FFE000
03FFF800
07C0FE00
0F807E00
1F003F00
3F001F80
3E001F80
7E000FC0
7E000FC0
7E000FC0
FC000FE0
FC000FE0
FC0007E0
FC0007E0
FE0007E0
7E000FC0
7E000FC0
7E000FC0
7F000FC0
3F000F80
3F801F80
1F803F00
0FC03E00
07F0FC00
03FFF800
007FC000
ENDCHAR
STARTCHAR 022B
ENCODING 555
SWIDTH 565 0
DWIDTH 22 0
BBX 20 30 1 0
BITMAP
1FFF80
1FFF80
000000
000000
000000
1F0F00
1F1F80
1F9F80
1F1F80
1F0F80
000000
000000
03FC00
0FFF00
1F9FC0
3E0FC0
7E07E0
7C07E0
7C03F0
FC03F0
FC03F0
FC03F0
FC03F0
7C03F0
7E03E0
7E03E0
3F07C0
3F8FC0
0FFF00
07FE00
ENDCHAR
STARTCHAR 022C
ENCODING 556
SWIDTH 745 0
DWIDTH 29 0
BBX 27 39 1 0
BITMAP
03FFF800
03FFF800
03F00000
00000000
00000000
00380000
00FE3800
01FFF000
03FFE000
0107C000
00000000
00000000
001E0000
00FFE000
03FFF800
07C0FE00
0F807E00
1F003F00
3F001F80
3E001F80
7E000FC0
7E000FC0
7E000FC0
FC000FE0
FC000FE0
FC0007E0
FC0007E0
FE0007E0
7E000FC0
7E000FC0
7E000FC0
7F000FC0
3F000F80
3F801F80
1F803F00
0FC03E00
07F0FC00
03FFF800
007FC000
ENDCHAR
STARTCHAR 022D
ENCODING 557
SWIDTH 565 0
DWIDTH 22 0
BBX 20 30 1 0
BITMAP
1FFF80
1FFF80
000000
000000
000000
07E180
1FFF80
1FFF00
187E00
001800
000000
000000
03FC00
0FFF00
1F9FC0
3E0FC0
7E07E0
7C07E0
7C03F0
FC03F0
FC03F0
FC03F0
FC03F0
7C03F0
7E03E0
7E03E0
3F07C0
3F8FC0
0FFF00
07FE00
ENDCHAR
STARTCHAR 0230
ENCODING 560
SWIDTH 745 0
DWIDTH 29 0
BBX 27 37 1 0
BITMAP
03FFF800
03FFF800
00000000
00040000
001F0000
003F8000
003F8000
003F8000
001F0000
00000000
001E0000
00FFE000
03FFF800
07C0FE00
0F807E00
1F003F00
3F001F80
3E001F80
7E000FC0
7E000FC0
7E000FC0
FC000FE0
FC000FE0
FC0007E0
FC0007E0
FE0007E0
7E000FC0
7E000FC0
7E000FC0
7F000FC0
3F000F80
3F801F80
1F803F00
0FC03E00
07F0FC00
03FFF800
007FC000
ENDCHAR
STARTCHAR 0231
ENCODING 561
SWIDTH 565 0
DWIDTH 22 0
BBX 20 29 1 0
BITMAP
1FFF80
1FFF80
000000
000000
00F000
01F800
01F800
01F800
01F800
004000
000000
03FC00
0FFF00
1F9FC0
3E0FC0
7E07E0
7C07E0
7C03F0
FC03F0
FC03F0
FC03F0
FC03F0
7C03F0
7E03E0
7E03E0
3F07C0
3F8FC0
0FFF00
07FE00
ENDCHAR
STARTCHAR 0232
ENCODING 562
SWIDTH 617 0
DWIDTH 24 0
BBX 23 32 1 0
BITMAP
03FFF0
03FFF0
03F800
000000
000000
000000
FFE0FE
FFE0FE
7F807C
3F8078
1FC070
1FC060
0FC0E0
0FE0C0
07E1C0
07F1C0
03F180
03FB80
01FB00
01FF00
00FE00
00FE00
007C00
007C00
007C00
007C00
00FC00
00FE00
00FE00
01FF00
07FFC0
07FFC0
ENDCHAR
STARTCHAR 0233
ENCODING 563
SWIDTH 540 0
DWIDTH 21 0
BBX 21 35 0 -10
BITMAP
07FFF0
07FFF0
07FF00
000000
000000
000000
000000
FFF3F8
7FE3F8
7FE3F8
3F80E0
1F80E0
0FC0C0
0FC1C0
07E180
07E380
03F380
03F300
01F700
01FE00
01FE00
00FC00
00FC00
007C00
007800
003800
003000
007000
006000
00E000
3FC000
7FC000
7F8000
3F0000
0C0000
ENDCHAR
STARTCHAR 0237
ENCODING 567
SWIDTH 308 0
DWIDTH 12 0
BBX 9 27 1 -10
BITMAP
0700
FF80
FF80
7F80
1F80
1F80
1F80
1F80
1F80
1F80
1F80
1F80
1F80
1F80
1F80
1F80
1F80
1F00
1F00
1F00
1F00
3E00
3E00
7C00
7800
F000
E000
ENDCHAR
STARTCHAR 0258
ENCODING 600
SWIDTH 488 0
DWIDTH 19 0
BBX 17 18 1 0
BITMAP
07F800
1FFC00
3E7E00
7C3F00
7C1F80
781F80
F81F80
FC0F80
7FFF80
7FFF80
000F80
000F80
001F80
701F80
781F00
7C7E00
7FFC00
3FF000
ENDCHAR
STARTCHAR 0259
ENCODING 601
SWIDTH 488 0
DWIDTH 19 0
BBX 18 18 1 0
BITMAP
0FF000
3FFC00
7FFE00
607F00
403F80
001F80
001F80
000F80
7FFFC0
7FFFC0
FFFF80
FC0F80
7C0F80
7C1F80
7C1F00
3E3E00
1FFC00
0FF800
ENDCHAR
STARTCHAR 0272
ENCODING 626
SWIDTH 642 0
DWIDTH 25 0
BBX 23 27 1 -10
BITMAP
070F80
7FBFE0
FFFFF0
7F7FF0
1FC1F8
1FC1F8
1F81F8
1F81F8
1F81F8
1F81F8
1F81F8
1F81F8
1F81F8
1F81F8
1F81F8
1F83FC
1F87FE
1F87FE
1F0000
1F0000
1F0000
3E0000
3E0000
7C0000
780000
F00000
E00000
ENDCHAR
STARTCHAR 0292
ENCODING 658
SWIDTH 488 0
DWIDTH 19 0
BBX 17 28 2 -10
BITMAP
FFFF00
FFFF00
FFFF00
F07E00
F0FE00
E0FC00
01F800
01F800
03F000
07F000
07E000
0FC000
1FF800
1FFC00
0DFE00
003F00
003F00
001F80
001F80
001F80
001F80
E01F00
E03F00
F03E00
F87E00
FFFC00
FFF000
070000
ENDCHAR
STARTCHAR 02B9
ENCODING 697
SWIDTH 282 0
DWIDTH 11 0
BBX 6 11 3 17
BITMAP
04
3C
7C
78
78
70
F0
E0
E0
C0
C0
ENDCHAR
STARTCHAR 02BA
ENCODING 698
SWIDTH 462 0
DWIDTH 18 0
BBX 13 11 3 17
BITMAP
0408
3C78
7C78
7870
78F0
70E0
F0E0
E1C0
E1C0
C180
C180
ENDCHAR
STARTCHAR 02BB
ENCODING 699
SWIDTH 257 0
DWIDTH 10 0
BBX 7 11 2 17
BITMAP
1C
38
38
70
70
78
FE
FE
FC
7C
60
ENDCHAR
STARTCHAR 02BC
ENCODING 700
SWIDTH 282 0
DWIDTH 11 0
BBX 6 12 3 16
BITMAP
18
FC
FC
FC
FC
3C
38
38
70
70
E0
C0
ENDCHAR
STARTCHAR 02BE
ENCODING 702
SWIDTH 257 0
DWIDTH 10 0
BBX 6 11 2 17
BITMAP
E0
F8
7C
3C
3C
3C
3C
3C
FC
F8
E0
ENDCHAR
STARTCHAR 02BF
ENCODING 703
SWIDTH 257 0
DWIDTH 10 0
BBX 6 11 2 17
BITMAP
1C
7C
F8
F0
F0
F0
F0
F0
FC
7C
1C
ENDCHAR
STARTCHAR 02C6
ENCODING 710
SWIDTH 282 0
DWIDTH 11 0
BBX 14 8 -1 20
BITMAP
0300
0780
0FC0
1FE0
3DF0
F8F8
E03C
C018
ENDCHAR
STARTCHAR 02C7
ENCODING 711
SWIDTH 282 0
DWIDTH 11 0
BBX 14 8 -1 20
BITMAP
4008
E03C
F878
7FF0
3FE0
1FC0
0F80
0700
ENDCHAR
STARTCHAR 02C8
ENCODING 712
SWIDTH 205 0
DWIDTH 8 0
BBX 3 10 3 17
BITMAP
E0
E0
E0
E0
E0
E0
E0
E0
E0
E0
ENDCHAR
STARTCHAR 02C9
ENCODING 713
SWIDTH 488 0
DWIDTH 19 0
BBX 15 3 2 22
BITMAP
7FFE
FFFE
FFE0
ENDCHAR
STARTCHAR 02CA
ENCODING 714
SWIDTH 282 0
DWIDTH 11 0
BBX 7 7 6 21
BITMAP
3E
3E
3C
78
70
F0
E0
ENDCHAR
STARTCHAR 02CB
ENCODING 715
SWIDTH 282 0
DWIDTH 11 0
BBX 7 7 6 21
BITMAP
78
F8
7C
3C
1C
0E
0E
ENDCHAR
STARTCHAR 02CC
ENCODING 716
SWIDTH 205 0
DWIDTH 8 0
BBX 3 11 3 -7
BITMAP
E0
E0
E0
E0
E0
E0
E0
E0
E0
E0
E0
ENDCHAR
STARTCHAR 02D8
ENCODING 728
SWIDTH 282 0
DWIDTH 11 0
BBX 14 8 -1 20
BITMAP
4008
E01C
E01C
F83C
FFF8
7FF8
3FE0
0700
ENDCHAR
STARTCHAR 02D9
ENCODING 729
SWIDTH 282 0
DWIDTH 11 0
BBX 6 6 3 20
BITMAP
78
FC
FC
FC
FC
70
ENDCHAR
STARTCHAR 02DA
ENCODING 730
SWIDTH 282 0
DWIDTH 11 0
BBX 9 8 1 20
BITMAP
1E00
7F80
F380
E380
E380
F380
7F00
1C00
ENDCHAR
STARTCHAR 02DB
ENCODING 731
SWIDTH 282 0
DWIDTH 11 0
BBX 9 11 1 -10
BITMAP
0F00
1C00
7800
7800
F800
F800
FC00
FF80
FF80
7F00
1C00
ENDCHAR
STARTCHAR 02DC
ENCODING 732
SWIDTH 282 0
DWIDTH 11 0
BBX 15 5 -2 21
BITMAP
1F06
7FFE
FFFC
61F8
4070
ENDCHAR
STARTCHAR 02DD
ENCODING 733
SWIDTH 282 0
DWIDTH 11 0
BBX 14 7 -1 21
BITMAP
3E7C
3C78
78F0
78F0
F0E0
E1C0
E1C0
ENDCHAR
STARTCHAR 0300
ENCODING 768
SWIDTH 0 0
DWIDTH 0 0
BBX 8 7 2 21
BITMAP
38
F8
7C
3C
1E
0E
0F
ENDCHAR
STARTCHAR 0301
ENCODING 769
SWIDTH 0 0
DWIDTH 0 0
BBX 7 7 2 21
BITMAP
3E
3E
3C
78
70
70
E0
ENDCHAR
STARTCHAR 0302
ENCODING 770
SWIDTH 0 0
DWIDTH 0 0
BBX 15 8 2 20
BITMAP
0380
07C0
0FE0
1FF0
3FF8
787C
E03E
4008
ENDCHAR
STARTCHAR 0303
ENCODING 771
SWIDTH 0 0
DWIDTH 0 0
BBX 14 5 2 21
BITMAP
3F04
7FFC
FFFC
C3F8
00E0
ENDCHAR
STARTCHAR 0304
ENCODING 772
SWIDTH 0 0
DWIDTH 0 0
BBX 14 3 2 22
BITMAP
FFFC
FFFC
FFC0
ENDCHAR
STARTCHAR 0306
ENCODING 774
SWIDTH 0 0
DWIDTH 0 0
BBX 14 8 2 20
BITMAP
2008
E00C
F01C
F83C
7FFC
7FF8
3FF0
03C0
ENDCHAR
STARTCHAR 0307
ENCODING 775
SWIDTH 0 0
DWIDTH 0 0
BBX 7 6 2 20
BITMAP
78
FC
FE
FC
FC
38
ENDCHAR
STARTCHAR 0308
ENCODING 776
SWIDTH 0 0
DWIDTH 0 0
BBX 15 6 2 20
BITMAP
3010
F87C
FC7E
FC7E
FC7C
7838
ENDCHAR
STARTCHAR 0309
ENCODING 777
SWIDTH 0 0
DWIDTH 0 0
BBX 10 7 2 20
BITMAP
7F80
FFC0
E380
2780
1E00
1C00
1C00
ENDCHAR
STARTCHAR 030A
ENCODING 778
SWIDTH 0 0
DWIDTH 0 0
BBX 9 8 2 20
BITMAP
3E00
7F80
E380
E380
E380
F780
7F00
1C00
ENDCHAR
STARTCHAR 030B
ENCODING 779
SWIDTH 0 0
DWIDTH 0 0
BBX 14 7 2 21
BITMAP
3E7C
3E7C
3C78
78F0
70E0
70E0
E1C0
ENDCHAR
STARTCHAR 030C
ENCODING 780
SWIDTH 0 0
DWIDTH 0 0
BBX 14 8 2 20
BITMAP
4008
E01C
F878
3FF0
1FE0
1FC0
0F80
0700
ENDCHAR
STARTCHAR 030F
ENCODING 783
SWIDTH 0 0
DWIDTH 0 0
BBX 15 7 2 21
BITMAP
78F0
F8F0
7C78
3C78
1E3C
0E1C
0F1E
ENDCHAR
STARTCHAR 0311
ENCODING 785
SWIDTH 0 0
DWIDTH 0 0
BBX 15 8 2 20
BITMAP
0100
1FF0
3FF8
7FFC
F87C
E01C
E01E
400C
ENDCHAR
STARTCHAR 0312
ENCODING 786
SWIDTH 0 0
DWIDTH 0 0
BBX 6 8 2 20
BITMAP
1C
38
70
F0
FC
FC
FC
F8
ENDCHAR
STARTCHAR 0313
ENCODING 787
SWIDTH 0 0
DWIDTH 0 0
BBX 6 8 2 20
BITMAP
1C
FC
FC
FC
3C
38
78
70
ENDCHAR
STARTCHAR 031B
ENCODING 795
SWIDTH 0 0
DWIDTH 0 0
BBX 8 7 -3 15
BITMAP
0E
0F
0F
0F
3E
FC
F0
ENDCHAR
STARTCHAR 0323
ENCODING 803
SWIDTH 0 0
DWIDTH 0 0
BBX 7 6 2 -9
BITMAP
78
FC
FE
FC
FC
38
ENDCHAR
STARTCHAR 0324
ENCODING 804
SWIDTH 0 0
DWIDTH 0 0
BBX 15 6 2 -9
BITMAP
7838
FC7C
FC7E
FC7E
F87C
3018
ENDCHAR
STARTCHAR 0325
ENCODING 805
SWIDTH 0 0
DWIDTH 0 0
BBX 9 8 2 -10
BITMAP
3E00
7F80
E380
E380
E380
F780
7F00
0C00
ENDCHAR
STARTCHAR 0326
ENCODING 806
SWIDTH 0 0
DWIDTH 0 0
BBX 6 9 2 -12
BITMAP
3C
FC
FC
FC
3C
3C
38
70
F0
ENDCHAR
STARTCHAR 0327
ENCODING 807
SWIDTH 0 0
DWIDTH 0 0
BBX 6 10 2 -9
BITMAP
38
70
60
F8
FC
3C
1C
1C
3C
F0
ENDCHAR
STARTCHAR 0328
ENCODING 808
SWIDTH 0 0
DWIDTH 0 0
BBX 9 11 2 -10
BITMAP
0F00
3C00
7800
7800
F800
F800
FC00
FF80
FF80
7F00
1C00
ENDCHAR
STARTCHAR 032E
ENCODING 814
SWIDTH 0 0
DWIDTH 0 0
BBX 13 6 2 -8
BITMAP
E038
F038
FFF0
7FF0
3FE0
0F80
ENDCHAR
STARTCHAR 0331
ENCODING 817
SWIDTH 0 0
DWIDTH 0 0
BBX 14 2 2 -6
BITMAP
FFFC
FFFC
ENDCHAR
STARTCHAR 0335
ENCODING 821
SWIDTH 0 0
DWIDTH 0 0
BBX 12 2 2 12
BITMAP
FFF0
FFF0
ENDCHAR
STARTCHAR 0336
ENCODING 822
SWIDTH 0 0
DWIDTH 0 0
BBX 24 2 2 9
BITMAP
FFFFFF
FFFFFF
ENDCHAR
STARTCHAR 0337
ENCODING 823
SWIDTH 0 0
DWIDTH 0 0
BBX 17 11 2 7
BITMAP
000180
000780
001F80
007E00
01F800
07E000
1F8000
7E0000
FC0000
700000
400000
ENDCHAR
STARTCHAR 0338
ENCODING 824
SWIDTH 0 0
DWIDTH 0 0
BBX 17 11 2 7
BITMAP
000180
000780
001F80
007E00
01F800
07E000
1F8000
7E0000
FC0000
700000
400000
ENDCHAR
STARTCHAR 0374
ENCODING 884
SWIDTH 282 0
DWIDTH 11 0
BBX 6 11 3 17
BITMAP
04
3C
7C
78
78
70
F0
E0
E0
C0
C0
ENDCHAR
STARTCHAR 0375
ENCODING 885
SWIDTH 282 0
DWIDTH 11 0
BBX 7 10 2 -8
BITMAP
06
0E
0C
1C
1C
38
78
78
78
F0
ENDCHAR
STARTCHAR 037E
ENCODING 894
SWIDTH 282 0
DWIDTH 11 0
BBX 6 25 3 -7
BITMAP
78
FC
FC
FC
FC
78
00
00
00
00
00
00
00
18
FC
FC
FC
FC
3C
3C
38
38
70
E0
E0
ENDCHAR
STARTCHAR 0384
ENCODING 900
SWIDTH 282 0
DWIDTH 11 0
BBX 5 7 3 21
BITMAP
F8
F8
F8
F0
F0
E0
E0
ENDCHAR
STARTCHAR 0385
ENCODING 901
SWIDTH 282 0
DWIDTH 11 0
BBX 16 7 -2 20
BITMAP
03E0
03C0
FBDE
FB9F
FB9F
FB9E
2008
ENDCHAR
STARTCHAR 0386
ENCODING 902
SWIDTH 694 0
DWIDTH 27 0
BBX 26 27 1 0
BITMAP
18040000
7C1C0000
7C1C0000
783E0000
783E0000
787F0000
707F0000
70FF8000
30DF8000
00DFC000
01CFC000
018FC000
0387E000
0387E000
0307F000
0703F000
0603F800
0FFFF800
0FFFFC00
0FFFFC00
1C00FC00
1C00FE00
38007E00
38007F00
7C00FF80
FE01FFC0
FE01FFC0
ENDCHAR
STARTCHAR 0387
ENCODING 903
SWIDTH 282 0
DWIDTH 11 0
BBX 7 6 2 12
BITMAP
38
7C
FE
FE
7C
78
ENDCHAR
STARTCHAR 0388
ENCODING 904
SWIDTH 617 0
DWIDTH 24 0
BBX 28 27 -5 0
BITMAP
30000000
F9FFFFC0
F1FFFFC0
F07E07C0
F07E01C0
E07E01C0
E07E00E0
E03E00C0
603E0000
003E0200
003E0E00
003E0E00
003E3E00
003FFE00
003FFE00
003E1E00
003E0E00
003E0E00
003E0000
003E0000
003E0070
007E0070
007F00F0
007F01F0
00FFCFE0
01FFFFE0
01FFFFE0
ENDCHAR
STARTCHAR 0389
ENCODING 905
SWIDTH 771 0
DWIDTH 30 0
BBX 34 27 -5 0
BITMAP
3000000000
F9FFC3FFC0
F1FFC3FF80
F07F00FF00
F07F007E00
E07E007E00
E07E007E00
E03E007E00
C03E007E00
003E007E00
003E007E00
003E007E00
003FFFFE00
003FFFFE00
003FFFFE00
003E007E00
003E007E00
003E007E00
003E007E00
003E007E00
003E007E00
007E007E00
007E007E00
007F007E00
00FF80FF00
01FFC3FFC0
01FFC3FFC0
ENDCHAR
STARTCHAR 038A
ENCODING 906
SWIDTH 360 0
DWIDTH 14 0
BBX 18 27 -5 0
BITMAP
300000
F9FFC0
F1FFC0
F07F00
F07F00
E07E00
E07E00
E03E00
C03E00
003E00
003E00
003E00
003E00
003E00
003E00
003E00
003E00
003E00
003E00
003E00
003E00
007E00
007E00
007F00
00FF80
01FFC0
01FFC0
ENDCHAR
STARTCHAR 038C
ENCODING 908
SWIDTH 745 0
DWIDTH 29 0
BBX 31 27 -3 0
BITMAP
3001E000
F80FFE00
F03FFF80
F07C0FE0
E0F807E0
E1F003F0
E3F001F8
E3E001F8
C7E000FC
07E000FC
07E000FC
0FC000FE
0FC000FE
0FC0007E
0FC0007E
0FE0007E
07E000FC
07E000FC
07E000FC
07F000FC
03F000F8
03F801F8
01F803F0
00FC03E0
007F0FC0
003FFF80
0007FC00
ENDCHAR
STARTCHAR 038E
ENCODING 910
SWIDTH 617 0
DWIDTH 24 0
BBX 30 27 -6 0
BITMAP
30000000
F9FFC1FC
F9FFC1FC
F0FF00F8
F07F00F0
F03F80E0
E03F80C0
E01F81C0
601FC180
000FC380
000FE380
0007E300
0007F700
0003F600
0003FE00
0001FC00
0001FC00
0000F800
0000F800
0000F800
0000F800
0001F800
0001FC00
0001FC00
0003FE00
000FFF80
000FFF80
ENDCHAR
STARTCHAR 038F
ENCODING 911
SWIDTH 822 0
DWIDTH 32 0
BBX 32 27 -1 0
BITMAP
7000E000
F81FFE00
F07FFF80
F0FC0FE0
E1F803F0
E3F001F8
E7F001F8
E7E000FC
C7E000FC
0FE000FC
0FC000FC
0FC000FE
0FC000FC
0FC000FC
07C000FC
07C000FC
07E000F8
03E000F8
01E001F0
01F001E0
1C7003C7
1C380387
1FFC07FF
1FFE0FFF
1FFE1FFF
1FFE1FFF
0FFE0FFE
ENDCHAR
STARTCHAR 0390
ENCODING 912
SWIDTH 334 0
DWIDTH 13 0
BBX 15 27 0 0
BITMAP
03C0
03C0
F39E
FBBE
FBBE
F31E
0108
0000
0000
0180
3FC0
7FC0
3FC0
0FC0
0FC0
0FC0
0FC0
0FC0
0FC0
0FC0
0FC0
0FC0
0FC0
0FC0
0FE8
07F8
03F8
ENDCHAR
STARTCHAR 0391
ENCODING 913
SWIDTH 694 0
DWIDTH 27 0
BBX 26 27 1 0
BITMAP
00040000
001C0000
001C0000
003E0000
003E0000
007F0000
007F0000
00FF8000
00DF8000
00DFC000
01CFC000
018FC000
0387E000
0387E000
0307F000
0703F000
0603F800
0FFFF800
0FFFFC00
0FFFFC00
1C00FC00
1C00FE00
38007E00
38007F00
7C00FF80
FE01FFC0
FE01FFC0
ENDCHAR
STARTCHAR 0392
ENCODING 914
SWIDTH 668 0
DWIDTH 26 0
BBX 22 26 2 0
BITMAP
FFFF80
FFFFE0
3F0FF0
3F03F0
3F03F8
1F01F8
1F01F8
1F01F0
1F03F0
1F03E0
1F07C0
1FFF00
1FFFE0
1FFFF0
1F03F8
1F01FC
1F01FC
1F00FC
1F00FC
1F00FC
3F00FC
3F01FC
3F81F8
7FC7F0
FFFFE0
FFFF00
ENDCHAR
STARTCHAR 0393
ENCODING 915
SWIDTH 565 0
DWIDTH 22 0
BBX 20 26 2 0
BITMAP
FFFFE0
FFFFE0
3F03E0
3F00E0
3F00E0
3F0070
1F0060
1F0000
1F0000
1F0000
1F0000
1F0000
1F0000
1F0000
1F0000
1F0000
1F0000
1F0000
1F0000
1F0000
3F0000
3F8000
3F8000
7FE000
FFF000
FFF000
ENDCHAR
STARTCHAR 0394
ENCODING 916
SWIDTH 642 0
DWIDTH 25 0
BBX 24 27 1 0
BITMAP
001800
003C00
003C00
007C00
007E00
007E00
00FF00
00FF00
01FF80
019F80
039FC0
030FC0
070FE0
0607E0
0E07F0
0C03F0
1C03F0
1C03F8
1801F8
3801FC
3000FC
7000FE
60007E
E0007F
C0003F
FFFFFF
FFFFFF
ENDCHAR
STARTCHAR 0395
ENCODING 917
SWIDTH 617 0
DWIDTH 24 0
BBX 21 26 2 0
BITMAP
FFFFE0
FFFFE0
3F03E0
3F00E0
3F00E0
3F0070
1F0060
1F0000
1F0100
1F0700
1F0700
1F1F00
1FFF00
1FFF00
1F0F00
1F0700
1F0700
1F0000
1F0000
1F0038
3F0038
3F8078
3F80F8
7FE7F0
FFFFF0
FFFFF0
ENDCHAR
STARTCHAR 0396
ENCODING 918
SWIDTH 591 0
DWIDTH 23 0
BBX 20 26 2 0
BITMAP
7FFFE0
7FFFE0
7C0FE0
781FC0
701FC0
703F80
F03F80
007F00
007F00
00FE00
00FE00
01FC00
03F800
03F800
07F000
07F000
0FE000
0FE000
1FC000
3F80F0
3F80F0
7F00E0
7F01E0
FE07E0
FFFFE0
FFFFE0
ENDCHAR
STARTCHAR 0397
ENCODING 919
SWIDTH 771 0
DWIDTH 30 0
BBX 27 26 2 0
BITMAP
FFE1FFE0
FFE1FFC0
3F807F80
3F803F00
3F003F00
3F003F00
1F003F00
1F003F00
1F003F00
1F003F00
1F003F00
1FFFFF00
1FFFFF00
1FFFFF00
1F003F00
1F003F00
1F003F00
1F003F00
1F003F00
1F003F00
3F003F00
3F003F00
3F803F00
7FC07F80
FFE1FFE0
FFE1FFE0
ENDCHAR
STARTCHAR 0398
ENCODING 920
SWIDTH 745 0
DWIDTH 29 0
BBX 27 27 1 0
BITMAP
001E0000
00FFE000
03FFF800
07C0FE00
0F807E00
1F003F00
3F001F80
3E001F80
7E000FC0
7E000FC0
7E000FC0
FC000FE0
FCFFEFE0
FCFFE7E0
FCFFE7E0
FE0007E0
7E000FC0
7E000FC0
7E000FC0
7F000FC0
3F000F80
3F801F80
1F803F00
0FC03E00
07F0FC00
03FFF800
007FC000
ENDCHAR
STARTCHAR 0399
ENCODING 921
SWIDTH 360 0
DWIDTH 14 0
BBX 11 26 2 0
BITMAP
FFE0
FFE0
3F80
3F80
3F00
3F00
1F00
1F00
1F00
1F00
1F00
1F00
1F00
1F00
1F00
1F00
1F00
1F00
1F00
1F00
3F00
3F00
3F80
7FC0
FFE0
FFE0
ENDCHAR
STARTCHAR 039A
ENCODING 922
SWIDTH 720 0
DWIDTH 28 0
BBX 26 26 2 0
BITMAP
FFE1FF00
FFE1FF00
3F80FC00
3F80F000
3F01E000
3F03C000
1F038000
1F070000
1F0E0000
1F1C0000
1F380000
1F7C0000
1FFE0000
1FFE0000
1F7F0000
1F3F8000
1F1FC000
1F1FC000
1F0FE000
1F07F000
3F03F800
3F03F800
3F81FC00
7FC0FF80
FFE0FFC0
FFE07F80
ENDCHAR
STARTCHAR 039B
ENCODING 923
SWIDTH 668 0
DWIDTH 26 0
BBX 25 27 1 0
BITMAP
00080000
00380000
003C0000
003C0000
007E0000
007E0000
00FE0000
00FF0000
00FF0000
019F8000
019F8000
039FC000
030FC000
030FC000
070FE000
0607E000
0607F000
0E03F000
0C03F000
1C03F800
1C01F800
1801FC00
3801FC00
3800FE00
7C01FF00
FE03FF80
FE03FF80
ENDCHAR
STARTCHAR 039C
ENCODING 924
SWIDTH 951 0
DWIDTH 37 0
BBX 36 26 1 0
BITMAP
3FC0007FC0
3FE0007FC0
0FE000FF00
0FF000FE00
0FF000FE00
0FF801FE00
0FF801FE00
0FFC01FE00
0EFC03BF00
0EFC033F00
0EFE073F00
0C7E073F00
0C7F063F00
0C3F0E3F00
0C3F8C3F00
0C1F8C3F00
1C1F9C3F00
1C0FD81F00
1C0FF81F80
1C0FF01F80
1C07F01F80
1C07F01F80
3C03E01F80
7E03E03FE0
FF01C0FFF0
FF01C0FFF0
ENDCHAR
STARTCHAR 039D
ENCODING 925
SWIDTH 720 0
DWIDTH 28 0
BBX 26 26 1 0
BITMAP
FF803FC0
FF803FC0
1FC00F00
1FE00F00
0FF00600
0FF00600
0FF80600
0FFC0600
0DFE0600
0CFE0600
0C7F0600
0C7F8600
0C3FC600
0C1FC600
0C0FE600
0C0FF600
0C07FE00
0C03FE00
1C01FE00
1C01FE00
1C00FE00
1C007E00
1E003E00
3F003E00
FF801E00
FF800E00
ENDCHAR
STARTCHAR 039E
ENCODING 926
SWIDTH 591 0
DWIDTH 23 0
BBX 22 26 1 0
BITMAP
7FFFF8
7FFFF8
7FFFF8
7FFFF8
780078
700038
600030
000000
0C01C0
0E01C0
0F03C0
0FFFC0
0FFFC0
0FFFC0
0FFFC0
0E01C0
0E01C0
000000
000000
E0001C
F0003C
F80078
7FFFF8
7FFFF8
7FFFF8
7FFFF8
ENDCHAR
STARTCHAR 039F
ENCODING 927
SWIDTH 745 0
DWIDTH 29 0
BBX 27 27 1 0
BITMAP
001E0000
00FFE000
03FFF800
07C0FE00
0F807E00
1F003F00
3F001F80
3E001F80
7E000FC0
7E000FC0
7E000FC0
FC000FE0
FC000FE0
FC0007E0
FC0007E0
FE0007E0
7E000FC0
7E000FC0
7E000FC0
7F000FC0
3F000F80
3F801F80
1F803F00
0FC03E00
07F0FC00
03FFF800
007FC000
ENDCHAR
STARTCHAR 03A0
ENCODING 928
SWIDTH 745 0
DWIDTH 29 0
BBX 26 26 2 0
BITMAP
FFFFFFC0
FFFFFFC0
3F003F00
3F003F00
3F003E00
3F003E00
1F003E00
1F003E00
1F003E00
1F003E00
1F003E00
1F003E00
1F003E00
1F003E00
1F003E00
1F003E00
1F003E00
1F003E00
1F003E00
1F003E00
3F003E00
3F007E00
3F807F00
7FC0FF80
FFE1FFC0
FFE1FFC0
ENDCHAR
STARTCHAR 03A1
ENCODING 929
SWIDTH 617 0
DWIDTH 24 0
BBX 21 26 2 0
BITMAP
FFFF80
FFFFE0
3F0FF0
3F03F8
3F01F8
3F01F8
1F01F8
1F01F8
1F01F8
1F01F8
1F01F8
1F01F8
1F01F0
1F03F0
1F3FE0
1F7F80
1F7E00
1F0000
1F0000
1F0000
3F0000
3F8000
3F8000
7FE000
FFF000
FFF000
ENDCHAR
STARTCHAR 03A3
ENCODING 931
SWIDTH 591 0
DWIDTH 23 0
BBX 21 26 2 0
BITMAP
FFFFE0
FFFFE0
7E03E0
7F01E0
3F80E0
1F80E0
1FC0E0
0FE000
07F000
03F800
03F800
01FC00
00FE00
00FE00
01FC00
03F800
07F000
0FE000
0FE000
1FC078
3F8078
7F0070
7E00F0
FE03F0
FFFFF0
FFFFF0
ENDCHAR
STARTCHAR 03A4
ENCODING 932
SWIDTH 642 0
DWIDTH 25 0
BBX 23 26 1 0
BITMAP
7FFFFE
7FFFFE
7C7E3E
F07E1E
F07E0E
E07E0E
E07E0E
007E00
007E00
007E00
007E00
007E00
007E00
007E00
007E00
007E00
007E00
007E00
007E00
007E00
007E00
007E00
00FE00
01FF00
07FFC0
07FFC0
ENDCHAR
STARTCHAR 03A5
ENCODING 933
SWIDTH 617 0
DWIDTH 24 0
BBX 23 26 1 0
BITMAP
FFE0FE
FFE0FE
7F807C
3F8078
1FC070
1FC060
0FC0E0
0FE0C0
07E1C0
07F1C0
03F180
03FB80
01FB00
01FF00
00FE00
00FE00
007C00
007C00
007C00
007C00
00FC00
00FE00
00FE00
01FF00
07FFC0
07FFC0
ENDCHAR
STARTCHAR 03A6
ENCODING 934
SWIDTH 745 0
DWIDTH 29 0
BBX 28 26 1 0
BITMAP
00FFF000
007FE000
003F8000
001F8000
00FFF000
07FFFE00
1FFFFF80
3F9F9FC0
7E1F8FC0
7E1F87E0
7C1F87E0
FC1F83E0
FC1F83F0
FC1F83E0
FC1F83E0
7E1F87E0
7E1F87E0
3F1F8FC0
3F9F9F80
1FFFFF00
07FFFE00
00FFF000
001F8000
003FC000
00FFE000
00FFF000
ENDCHAR
STARTCHAR 03A7
ENCODING 935
SWIDTH 694 0
DWIDTH 27 0
BBX 25 26 1 0
BITMAP
7FF0FF00
7FF0FF00
3FE03E00
1FE03C00
0FE07800
07F07000
07F0E000
03F8E000
01FDC000
01FF8000
00FF8000
007F0000
007F0000
003F8000
007F8000
00FFC000
00EFE000
01CFE000
0387F000
0387F000
0703F800
0F01FC00
1E01FE00
7F03FF00
FF87FF80
FF87FF80
ENDCHAR
STARTCHAR 03A8
ENCODING 936
SWIDTH 797 0
DWIDTH 31 0
BBX 30 27 1 0
BITMAP
00000010
FE3FF8FC
FE3FF9FC
FE1FE1F0
7E0FC1F0
3E0FC1F0
3E0FC1F0
3E0FC3F0
3E0FC3F0
3E0FC3F0
3F0FC3F0
3F0FC3E0
3F0FC3E0
1F0FC3E0
1F8FC7C0
0FFFFFC0
07FFFF00
00FFFC00
000FC000
000FC000
000FC000
000FC000
000FC000
000FC000
003FF000
00FFFC00
00FFFC00
ENDCHAR
STARTCHAR 03A9
ENCODING 937
SWIDTH 822 0
DWIDTH 32 0
BBX 29 27 2 0
BITMAP
00070000
00FFF000
03FFFC00
07E07F00
0FC01F80
1F800FC0
3F800FC0
3F0007E0
3F0007E0
7F0007E0
7E0007E0
7E0007F0
7E0007E0
7E0007E0
3E0007E0
3E0007E0
3F0007C0
1F0007C0
0F000F80
0F800F00
E3801E38
E1C01C38
FFE03FF8
FFF07FF8
FFF0FFF8
FFF0FFF8
7FF07FF0
ENDCHAR
STARTCHAR 03AA
ENCODING 938
SWIDTH 360 0
DWIDTH 14 0
BBX 15 34 0 0
BITMAP
3018
7C7C
FC7E
FC7E
FC7C
3038
0000
0000
3FF8
3FF8
0FE0
0FE0
0FC0
0FC0
07C0
07C0
07C0
07C0
07C0
07C0
07C0
07C0
07C0
07C0
07C0
07C0
07C0
07C0
0FC0
0FC0
0FE0
1FF0
3FF8
3FF8
ENDCHAR
STARTCHAR 03AB
ENCODING 939
SWIDTH 617 0
DWIDTH 24 0
BBX 23 34 1 0
BITMAP
00C0E0
03E1F0
03F3F0
03F3F0
03E1F0
01C0E0
000000
000000
FFE0FE
FFE0FE
7F807C
3F8078
1FC070
1FC060
0FC0E0
0FE0C0
07E1C0
07F1C0
03F180
03FB80
01FB00
01FF00
00FE00
00FE00
007C00
007C00
007C00
007C00
00FC00
00FE00
00FE00
01FF00
07FFC0
07FFC0
ENDCHAR
STARTCHAR 03AC
ENCODING 940
SWIDTH 642 0
DWIDTH 25 0
BBX 24 28 1 0
BITMAP
007C00
007800
007800
007000
007000
007000
00E000
000000
000000
000000
03F0FC
0FF8FC
1F1CFC
3E0FF8
3E07F0
7C07F0
7C03E0
7C03E0
FC03E0
FC03C0
FC07C0
FC07C0
7E0FC0
7E0FE0
7E0FE0
3F9E7A
1FFC7F
0FF83E
ENDCHAR
STARTCHAR 03AD
ENCODING 941
SWIDTH 437 0
DWIDTH 17 0
BBX 15 28 1 0
BITMAP
01F0
01F0
01E0
01E0
01C0
01C0
01C0
0000
0000
0000
07F8
1FFC
3E3C
7E1C
7E1C
7E00
3E00
1F80
07E0
3FE0
7F00
7C00
FC00
FC0E
7C1E
7E1E
3FFE
0FFC
ENDCHAR
STARTCHAR 03AE
ENCODING 942
SWIDTH 617 0
DWIDTH 24 0
BBX 21 37 1 -10
BITMAP
003E00
003C00
003C00
003C00
003800
003800
003800
000000
000000
000000
030F80
7FBFE0
FFFFF0
7F7FF0
1FC3F0
1FC1F8
1F81F8
1F81F8
1F81F8
1F81F8
1F81F8
1F81F8
1F81F8
1F81F8
1F81F8
1F81F8
1F81F8
1F81F8
0001F8
0001F8
0001F8
0001F8
0001F8
0001F8
0001F8
0001F0
0001C0
ENDCHAR
STARTCHAR 03AF
ENCODING 943
SWIDTH 334 0
DWIDTH 13 0
BBX 12 28 1 0
BITMAP
07C0
0780
0780
0780
0700
0700
0700
0000
0000
0000
0300
7F80
FF80
7F80
1F80
1F80
1F80
1F80
1F80
1F80
1F80
1F80
1F80
1F80
1F80
1FD0
0FF0
07F0
ENDCHAR
STARTCHAR 03B0
ENCODING 944
SWIDTH 514 0
DWIDTH 20 0
BBX 19 27 0 0
BITMAP
007800
007800
1E73C0
1F77C0
1F77C0
1E63C0
042000
000000
000000
0701C0
7F0FC0
FF8FE0
7F87E0
1F81E0
1F80E0
1F80E0
1F80E0
1F80E0
1F80E0
1F80E0
1F80E0
1F81C0
1F81C0
1FC380
0FFF80
07FE00
03FC00
ENDCHAR
STARTCHAR 03B1
ENCODING 945
SWIDTH 642 0
DWIDTH 25 0
BBX 24 18 1 0
BITMAP
03F0FC
0FF8FC
1F1CFC
3E0FF8
3E07F0
7C07F0
7C03E0
7C03E0
FC03E0
FC03C0
FC07C0
FC07C0
7E0FC0
7E0FE0
7E0FE0
3F9E7A
1FFC7F
0FF83E
ENDCHAR
STARTCHAR 03B2
ENCODING 946
SWIDTH 565 0
DWIDTH 22 0
BBX 19 37 2 -10
BITMAP
01F800
0FFF00
1FFF80
3E1F80
7C0FC0
7C0FC0
7C0FC0
FC0FC0
FC0FC0
FC0F80
FC1F80
FC1F00
FCFE00
FDFC00
FDFF00
FC1FC0
FC0FC0
FC07E0
FC07E0
FC07E0
FC07E0
FC07E0
FC07E0
FC07E0
FC0FC0
FE1F80
FFFF00
FFFC00
FC0000
FC0000
FC0000
FC0000
FC0000
FC0000
FC0000
F80000
E00000
ENDCHAR
STARTCHAR 03B3
ENCODING 947
SWIDTH 540 0
DWIDTH 21 0
BBX 21 28 0 -10
BITMAP
7E07F8
FF87F8
7FC3F0
0FC1E0
0FC1C0
07E1C0
07E180
03E380
03F300
01F700
01F600
01FE00
00FE00
00FC00
007C00
007C00
007C00
007E00
00FE00
00DE00
01DE00
019E00
018E00
018E00
018E00
019E00
00FC00
003000
ENDCHAR
STARTCHAR 03B4
ENCODING 948
SWIDTH 540 0
DWIDTH 21 0
BBX 19 28 1 0
BITMAP
00FC00
03FF00
07FF00
0FFF00
0FFF00
1E0000
1E0000
1F0000
0F8000
0FE000
07F000
07FC00
03FF00
0FFF80
1F7F80
3E3FC0
7E1FE0
7C0FE0
7C07E0
FC07E0
FC07E0
FC07E0
FC07E0
7E07C0
7E0FC0
3F9F80
1FFF00
07FC00
ENDCHAR
STARTCHAR 03B5
ENCODING 949
SWIDTH 437 0
DWIDTH 17 0
BBX 15 18 1 0
BITMAP
07F8
1FFC
3E3C
7E1C
7E1C
7E00
3E00
1F80
07E0
3FE0
7F00
7C00
FC00
FC0E
7C1E
7E1E
3FFE
0FFC
ENDCHAR
STARTCHAR 03B6
ENCODING 950
SWIDTH 437 0
DWIDTH 17 0
BBX 16 38 1 -10
BITMAP
7FFF
7FFF
7FFF
7FFF
7FFF
7C1E
703C
E078
00F0
01E0
07C0
0F80
0F80
1F00
3E00
3E00
7E00
7E00
7E00
FE00
FE00
7E00
7F80
7FF0
3FFC
3FFE
0FFF
03FF
007F
001F
001F
001F
003E
007E
00FC
01F8
01E0
0080
ENDCHAR
STARTCHAR 03B7
ENCODING 951
SWIDTH 617 0
DWIDTH 24 0
BBX 21 27 1 -10
BITMAP
030F80
7FBFE0
FFFFF0
7F7FF0
1FC3F0
1FC1F8
1F81F8
1F81F8
1F81F8
1F81F8
1F81F8
1F81F8
1F81F8
1F81F8
1F81F8
1F81F8
1F81F8
1F81F8
0001F8
0001F8
0001F8
0001F8
0001F8
0001F8
0001F8
0001F0
0001C0
ENDCHAR
STARTCHAR 03B8
ENCODING 952
SWIDTH 565 0
DWIDTH 22 0
BBX 20 28 1 0
BITMAP
01F800
07FE00
0FFF80
1F0F80
3E0FC0
3E07E0
7E07E0
7E07E0
7C03E0
7C03F0
7C03F0
FC03F0
FC03F0
FFFFF0
FFFFF0
FC03F0
FC03F0
FC03F0
7C03F0
7E03E0
7E03E0
7E03E0
3E07E0
3F07C0
1F07C0
1F8F80
0FFF00
03FC00
ENDCHAR
STARTCHAR 03B9
ENCODING 953
SWIDTH 334 0
DWIDTH 13 0
BBX 12 18 1 0
BITMAP
0300
7F80
FF80
7F80
1F80
1F80
1F80
1F80
1F80
1F80
1F80
1F80
1F80
1F80
1F80
1FD0
0FF0
07F0
ENDCHAR
STARTCHAR 03BA
ENCODING 954
SWIDTH 591 0
DWIDTH 23 0
BBX 22 18 1 0
BITMAP
030FF8
7F8FF8
FF8FF0
7F8780
1F8F00
1F9E00
1FBC00
1FFC00
1FFE00
1FFF00
1FBF00
1FBF80
1F9FC0
1F8FE0
1F87F0
1F83F8
1F83FC
1F81FC
ENDCHAR
STARTCHAR 03BB
ENCODING 955
SWIDTH 565 0
DWIDTH 22 0
BBX 22 28 0 0
BITMAP
078000
3FE000
3FE000
23F000
03F000
01F000
01F800
01F800
00F800
00FC00
00FC00
01FC00
01FE00
03FE00
03FE00
03BE00
07BF00
07BF00
071F00
0F1F80
0F1F80
1F1F80
1F0FC0
1E0FC0
3E0FC0
3E07EC
FE07FC
7E03F8
ENDCHAR
STARTCHAR 03BC
ENCODING 956
SWIDTH 617 0
DWIDTH 24 0
BBX 23 28 1 -10
BITMAP
070070
7F0FF0
FF0FF0
7F07F0
1F03F0
1F01F0
1F01F0
1F01F0
1F01F0
1F01F0
1F03F0
1F03F0
1F03F0
1F83F0
1F87F8
1FFFFE
1FFDFE
1FF0E0
1E0000
1E0000
1E0000
1F0000
1F0000
1F0000
1F0000
1E0000
180000
100000
ENDCHAR
STARTCHAR 03BD
ENCODING 957
SWIDTH 488 0
DWIDTH 19 0
BBX 19 18 0 0
BITMAP
060060
7F07E0
FF0FE0
7F83E0
1F81E0
0F81E0
0FC1C0
0FC1C0
07E180
07E380
03E300
03F700
03FE00
01FC00
01FC00
01F800
00F000
00F000
ENDCHAR
STARTCHAR 03BE
ENCODING 958
SWIDTH 437 0
DWIDTH 17 0
BBX 16 38 1 -10
BITMAP
7FFF
7FFF
7FFF
7FFF
7FFF
707C
E3F0
07C0
1F80
3F00
3F00
3F00
3F00
3F00
1F80
0FFC
01F8
0FF8
1F80
7E00
7C00
7C00
FE00
FF00
7FE0
7FFC
3FFE
0FFF
01FF
003F
001F
001F
003E
003E
007C
01F8
01E0
0080
ENDCHAR
STARTCHAR 03BF
ENCODING 959
SWIDTH 565 0
DWIDTH 22 0
BBX 20 18 1 0
BITMAP
03FC00
0FFF00
1F9FC0
3E0FC0
7E07E0
7C07E0
7C03F0
FC03F0
FC03F0
FC03F0
FC03F0
7C03F0
7E03E0
7E03E0
3F07C0
3F8FC0
0FFF00
07FE00
ENDCHAR
STARTCHAR 03C0
ENCODING 960
SWIDTH 591 0
DWIDTH 23 0
BBX 21 20 1 0
BITMAP
000038
000078
0FFFF0
3FFFF0
7FFFF0
7FFFF0
FFFFF0
630F80
070F80
070F80
070F80
070F80
070F80
0F0F80
0F0F80
0F0F80
1F0F80
3E0FF0
3E0FF0
3E07E0
ENDCHAR
STARTCHAR 03C1
ENCODING 961
SWIDTH 540 0
DWIDTH 21 0
BBX 20 27 1 -10
BITMAP
01FE00
0FFF80
1F9FC0
3F07E0
3E07E0
7E07E0
7C03E0
7C03F0
7C03F0
7C03E0
7C03E0
7C03E0
7C07E0
7C07C0
7C0F80
7E1F80
7FFE00
7FFC00
7C0000
7C0000
7C0000
7C0000
7C0000
7C0000
FE0000
F80000
E00000
ENDCHAR
STARTCHAR 03C2
ENCODING 962
SWIDTH 462 0
DWIDTH 18 0
BBX 16 28 1 -10
BITMAP
07FC
0FFF
3F3E
3E1E
7C0E
7C0E
7C0C
FC00
FC00
FC00
7E00
7F00
7F80
3FE0
1FF8
0FFC
03FE
00FF
007F
003F
001F
001F
003E
007E
00FC
01F8
01E0
0080
ENDCHAR
STARTCHAR 03C3
ENCODING 963
SWIDTH 642 0
DWIDTH 25 0
BBX 23 20 1 0
BITMAP
000006
00000E
01FFFE
0FFFFE
1FFFFE
3F9FFE
7E0FFE
7E07C0
7C03E0
FC03F0
FC03F0
FC03F0
FC03F0
7C03F0
7E03E0
7E03E0
3F07C0
3F8FC0
0FFF00
07FE00
ENDCHAR
STARTCHAR 03C4
ENCODING 964
SWIDTH 360 0
DWIDTH 14 0
BBX 14 20 0 0
BITMAP
001C
001C
1FFC
3FFC
7FFC
7FFC
FFF8
67C0
07C0
07C0
07C0
07C0
07C0
07C0
07C0
07C0
07C0
07F8
03FC
03F8
ENDCHAR
STARTCHAR 03C5
ENCODING 965
SWIDTH 514 0
DWIDTH 20 0
BBX 19 18 0 0
BITMAP
0701C0
7F0FC0
FF8FE0
7F87E0
1F81E0
1F80E0
1F80E0
1F80E0
1F80E0
1F80E0
1F80E0
1F80E0
1F81C0
1F81C0
1FC380
0FFF80
07FE00
03FC00
ENDCHAR
STARTCHAR 03C6
ENCODING 966
SWIDTH 771 0
DWIDTH 30 0
BBX 28 27 1 -10
BITMAP
0180FF00
0783FF80
0F87EFE0
1F0FC3E0
3E0F83F0
7E0F83F0
7C0F81F0
7C0F81F0
FC0F81F0
FC0F81F0
FC0F83F0
7C0F83F0
7E0F83F0
7E0F83E0
3F0F87C0
1F8F9FC0
0FFFFF00
03FFFC00
000F8000
000F8000
000F8000
000F8000
000F8000
000F8000
001FC000
001F0000
001C0000
ENDCHAR
STARTCHAR 03C7
ENCODING 967
SWIDTH 540 0
DWIDTH 21 0
BBX 20 28 1 -10
BITMAP
060FF0
FF0FF0
FF87E0
7F8380
1F8380
0FC700
0FC700
07E600
07EE00
03EC00
03FC00
03F800
01F800
01F000
03F800
03F800
07F800
07FC00
067C00
0E7E00
0C7E00
1C3F00
1C3F00
383F80
781FF0
FE1FF0
FE0FE0
020400
ENDCHAR
STARTCHAR 03C8
ENCODING 968
SWIDTH 745 0
DWIDTH 29 0
BBX 28 38 0 -10
BITMAP
0000C000
003FC000
003FC000
003FC000
000FC000
0007C000
0007C000
0007C000
0007C000
0007C000
0707C060
7F07C7F0
FF87C7F0
7F87C7F0
1F87C1F0
1F87C0F0
1F87C0F0
1F87C0F0
1F87C0F0
1F87C0F0
1F87C0F0
1F87C1F0
1F87C1E0
0FC7C3E0
0FE7C7C0
07FFFF80
03FFFE00
007FF800
0007C000
0007C000
0007C000
0007C000
0007C000
0007E000
0007E000
00078000
000E0000
00040000
ENDCHAR
STARTCHAR 03C9
ENCODING 969
SWIDTH 745 0
DWIDTH 29 0
BBX 27 18 1 0
BITMAP
03801C00
0F801F00
1F000F80
3F000FC0
7E0607C0
7E0F07E0
7E0F07E0
FE0F07E0
FE0F07E0
FE0F07E0
FE0F07E0
7E0F07E0
7E0F07E0
7E0F07E0
3F1F0FC0
3FBFDFC0
1FF9FF80
07F0FE00
ENDCHAR
STARTCHAR 03CA
ENCODING 970
SWIDTH 334 0
DWIDTH 13 0
BBX 15 26 0 0
BITMAP
3018
F87C
FC7E
FC7E
F87C
7038
0000
0000
0180
3FC0
7FC0
3FC0
0FC0
0FC0
0FC0
0FC0
0FC0
0FC0
0FC0
0FC0
0FC0
0FC0
0FC0
0FE8
07F8
03F8
ENDCHAR
STARTCHAR 03CB
ENCODING 971
SWIDTH 514 0
DWIDTH 20 0
BBX 19 26 0 0
BITMAP
060300
1F0F80
1F8FC0
1F8FC0
1F0F80
0E0700
000000
000000
0701C0
7F0FC0
FF8FE0
7F87E0
1F81E0
1F80E0
1F80E0
1F80E0
1F80E0
1F80E0
1F80E0
1F80E0
1F81C0
1F81C0
1FC380
0FFF80
07FE00
03FC00
ENDCHAR
STARTCHAR 03CC
ENCODING 972
SWIDTH 565 0
DWIDTH 22 0
BBX 20 28 1 0
BITMAP
007C00
007800
007800
007000
007000
00F000
00E000
000000
000000
000000
03FC00
0FFF00
1F9FC0
3E0FC0
7E07E0
7C07E0
7C03F0
FC03F0
FC03F0
FC03F0
FC03F0
7C03F0
7E03E0
7E03E0
3F07C0
3F8FC0
0FFF00
07FE00
ENDCHAR
STARTCHAR 03CD
ENCODING 973
SWIDTH 514 0
DWIDTH 20 0
BBX 19 28 0 0
BITMAP
007C00
007800
007800
007800
007000
007000
007000
000000
000000
000000
0701C0
7F0FC0
FF8FE0
7F87E0
1F81E0
1F80E0
1F80E0
1F80E0
1F80E0
1F80E0
1F80E0
1F80E0
1F81C0
1F81C0
1FC380
0FFF80
07FE00
03FC00
ENDCHAR
STARTCHAR 03CE
ENCODING 974
SWIDTH 745 0
DWIDTH 29 0
BBX 27 28 1 0
BITMAP
0007C000
00078000
00078000
00070000
000F0000
000F0000
000E0000
00000000
00000000
00000000
03801C00
0F801F00
1F000F80
3F000FC0
7E0607C0
7E0F07E0
7E0F07E0
FE0F07E0
FE0F07E0
FE0F07E0
FE0F07E0
7E0F07E0
7E0F07E0
7E0F07E0
3F1F0FC0
3FBFDFC0
1FF9FF80
07F0FE00
ENDCHAR
STARTCHAR 03CF
ENCODING 975
SWIDTH 720 0
DWIDTH 28 0
BBX 26 36 2 -10
BITMAP
FFE1FF00
FFE1FF00
3F80FC00
3F80F000
3F01E000
3F03C000
1F038000
1F070000
1F0E0000
1F1C0000
1F380000
1F7C0000
1FFE0000
1FFE0000
1F7F0000
1F3F8000
1F1FC000
1F1FC000
1F0FE000
1F07F000
3F03F800
3F03F800
3F81FC00
7FC0FF80
FFE0FFC0
FFE07F80
0000FE00
0001F000
0003E000
0007C000
000FC000
000FC000
000FE000
000FF000
000FF000
00078000
ENDCHAR
STARTCHAR 03D1
ENCODING 977
SWIDTH 591 0
DWIDTH 23 0
BBX 23 28 0 0
BITMAP
003C00
03FF00
07FFC0
0F87E0
1F83E0
1F83F0
1F83F0
1F81F0
1F81F0
1F81F8
0F81F8
0FC1F8
07F9F8
01FFFE
003FFE
0001F8
0701F8
7F81F8
FF81F8
3F81F0
1F81F0
1F81F0
1F83F0
0F83E0
0F87E0
0FC7C0
07FF80
01FE00
ENDCHAR
STARTCHAR 03D2
ENCODING 978
SWIDTH 668 0
DWIDTH 26 0
BBX 25 27 1 0
BITMAP
0C000600
7F001F80
FF807F80
FFC0FF80
0FE0FF80
07E1C780
03F18780
01F38000
01FB0000
00FB0000
00FB0000
00FA0000
007E0000
007E0000
007E0000
007E0000
007E0000
007E0000
007E0000
007E0000
007E0000
007E0000
007E0000
007E0000
01FF8000
07FFE000
07FFE000
ENDCHAR
STARTCHAR 03D5
ENCODING 981
SWIDTH 771 0
DWIDTH 30 0
BBX 28 37 1 -10
BITMAP
00010000
007F8000
007F8000
007F8000
001F8000
001F8000
001F8000
001F8000
001F8000
001F8000
01FFFC00
0FFFFF00
1FDFBF80
3F1F8FC0
7E1F87E0
7E1F83E0
7C1F83F0
FC1F83F0
FC1F83F0
FC1F83F0
FC1F83F0
7C1F83F0
7E1F83E0
7E1F87E0
3F1F87C0
1F9F9FC0
0FFFFF00
03FFFC00
001F8000
001F8000
001F8000
001F8000
001F8000
001F8000
001F8000
001F0000
001C0000
ENDCHAR
STARTCHAR 03D6
ENCODING 982
SWIDTH 822 0
DWIDTH 32 0
BBX 29 20 2 0
BITMAP
00000018
00000038
07FFFFF8
3FFFFFF8
7FFFFFF8
FFFFFFF8
FFFFFFF8
E3E00F00
07C007C0
0FC387E0
0F8787E0
1F8783E0
1F8783F0
1F8787F0
1F8387F0
1FC387E0
0FC787E0
0FFFFFE0
07FEFFC0
03F87F00
ENDCHAR
STARTCHAR 03D7
ENCODING 983
SWIDTH 591 0
DWIDTH 23 0
BBX 22 28 1 -10
BITMAP
030FF8
7F8FF8
FF8FF0
7F8780
1F8F00
1F9E00
1FBC00
1FFC00
1FFE00
1FFF00
1FBF00
1FBF80
1F9FC0
1F8FE0
1F87F0
1F83FC
1F83FC
1F81FC
00007C
00007C
00007C
00007C
0000FC
0001F8
03EFF0
03FFE0
01FFC0
003C00
ENDCHAR
STARTCHAR 03F0
ENCODING 1008
SWIDTH 617 0
DWIDTH 24 0
BBX 21 18 1 0
BITMAP
3E01E0
FF03F8
FF87F8
FF8FF0
5F9FE0
0F1FC0
073F80
077F00
07FF00
0FFF00
0FF700
0FF700
0FE780
1FC7C8
3F87F8
7F87F8
7F03F8
3E03F0
ENDCHAR
STARTCHAR 03F1
ENCODING 1009
SWIDTH 565 0
DWIDTH 22 0
BBX 20 28 1 -10
BITMAP
03FC00
0FFF00
1F9FC0
3E0FC0
3E07E0
7C03E0
7C03F0
7C03F0
7C03F0
FC03F0
FC03F0
FE03E0
FE03E0
FF07E0
FF8FC0
FFFF80
67FE00
700000
700000
780000
7E0000
3FFE00
3FFF80
1FFF80
1FFFC0
07FFC0
0003E0
000080
ENDCHAR
STARTCHAR 03F2
ENCODING 1010
SWIDTH 462 0
DWIDTH 18 0
BBX 16 18 1 0
BITMAP
03FC
0FFF
1F1F
3E0F
7E0E
7C0E
7C0E
FC00
FC00
FC00
FC00
7C00
7E00
7E00
3F03
3FFF
0FFE
07FC
ENDCHAR
STARTCHAR 03F4
ENCODING 1012
SWIDTH 745 0
DWIDTH 29 0
BBX 27 27 1 0
BITMAP
001E0000
00FFE000
03FFF800
07C0FE00
0F807E00
1F003F00
3F001F80
3E001F80
7E000FC0
7E000FC0
7E000FC0
FC000FE0
FFFFFFE0
FFFFFFE0
FFFFFFE0
FE0007E0
7E000FC0
7E000FC0
7E000FC0
7F000FC0
3F000F80
3F001F80
1F803F00
0FC03E00
07F0FC00
03FFF800
007FC000
ENDCHAR
STARTCHAR 03F6
ENCODING 1014
SWIDTH 462 0
DWIDTH 18 0
BBX 16 18 1 0
BITMAP
3FE0
7FF8
79FC
707E
707E
E03F
003F
003F
0FFF
0FFF
003F
003F
603E
E03E
E07C
F0FC
FFF8
3FE0
ENDCHAR
STARTCHAR 03F7
ENCODING 1015
SWIDTH 617 0
DWIDTH 24 0
BBX 21 26 2 0
BITMAP
FFE000
FFE000
3F8000
3F8000
3F0000
3FFF80
1FFFE0
1F0FF0
1F03F8
1F01F8
1F01F8
1F00F8
1F00F8
1F00F8
1F00F8
1F01F8
1F01F0
1F07E0
1F3FC0
1F3F00
3F0000
3F8000
3F8000
7FE000
FFF000
FFF000
ENDCHAR
STARTCHAR 03F8
ENCODING 1016
SWIDTH 617 0
DWIDTH 24 0
BBX 22 37 1 -10
BITMAP
030000
FF0000
FF0000
FF0000
1F0000
1F0000
1F0000
1F0000
1F0000
1F0000
1F1FC0
1F3FE0
1F7FF0
1FE3F8
1FC1F8
1F80FC
1F80FC
1F80FC
1F80FC
1F00FC
1F00FC
1F00F8
1F00F8
1F01F8
1F01F0
1F87E0
1FFFC0
1FFF00
1F0000
1F0000
1F0000
1F8000
1F8000
1F8000
1F8000
1F0000
180000
ENDCHAR
STARTCHAR 03F9
ENCODING 1017
SWIDTH 642 0
DWIDTH 25 0
BBX 23 27 1 0
BITMAP
000F00
00FFF0
03FFFC
07C07C
0F803C
1F003C
3F003C
3E001C
7E001C
7E0000
7E0000
FC0000
FC0000
FC0000
FE0000
FE0000
7E0000
7E0000
7E0000
7F0000
3F0000
3F8000
1FC000
0FF01E
07FFFC
03FFF8
00FFC0
ENDCHAR
STARTCHAR 0400
ENCODING 1024
SWIDTH 617 0
DWIDTH 24 0
BBX 21 34 2 0
BITMAP
07C000
03C000
01E000
00E000
007000
000000
000000
000000
FFFFE0
FFFFE0
3F03E0
3F00E0
3F00E0
3F0070
1F0060
1F0000
1F0100
1F0700
1F0700
1F1F00
1FFF00
1FFF00
1F0F00
1F0700
1F0700
1F0000
1F0000
1F0038
3F0038
3F8078
3F80F8
7FE7F0
FFFFF0
FFFFF0
ENDCHAR
STARTCHAR 0401
ENCODING 1025
SWIDTH 617 0
DWIDTH 24 0
BBX 21 34 2 0
BITMAP
1E0F00
1F1F80
3F1F80
3F1F80
1F0F00
000000
000000
000000
FFFFE0
FFFFE0
3F03E0
3F00E0
3F00E0
3F0070
1F0060
1F0000
1F0100
1F0700
1F0700
1F1F00
1FFF00
1FFF00
1F0F00
1F0700
1F0700
1F0000
1F0000
1F0038
3F0038
3F8078
3F80F8
7FE7F0
FFFFF0
FFFFF0
ENDCHAR
STARTCHAR 0402
ENCODING 1026
SWIDTH 797 0
DWIDTH 31 0
BBX 29 26 1 0
BITMAP
7FFFFE00
7FFFFE00
787E3E00
F07E1E00
F07E0E00
E07E0E00
E07E0E00
007E0000
007E0000
007E0000
007E0000
007FFF00
007FFFC0
007FFFE0
007E07F0
007E03F0
007E03F8
007E01F8
007E01F8
007E01F8
007E01F8
007E01F0
00FE03F0
01FF17F0
03FF9FE0
03FF9FC0
ENDCHAR
STARTCHAR 0403
ENCODING 1027
SWIDTH 565 0
DWIDTH 22 0
BBX 20 36 2 0
BITMAP
003E00
003C00
007800
007000
00F000
00E000
00C000
000000
000000
000000
FFFFE0
FFFFE0
3F03E0
3F00E0
3F00E0
3F0070
1F0060
1F0000
1F0000
1F0000
1F0000
1F0000
1F0000
1F0000
1F0000
1F0000
1F0000
1F0000
1F0000
1F0000
3F0000
3F8000
3F8000
7FE000
FFF000
FFF000
ENDCHAR
STARTCHAR 0404
ENCODING 1028
SWIDTH 617 0
DWIDTH 24 0
BBX 22 27 1 0
BITMAP
001F00
01FFF0
07FFFC
0FC0F8
1F8078
3F0038
3F0038
7E0038
7E0038
7E0000
7E0000
FE0000
FFFFC0
FFFF80
FFFF80
FE0000
FE0000
7E0000
7E0000
7E001C
3F001C
3F001C
1F803C
0FC03C
07E0FC
03FFF8
00FFE0
ENDCHAR
STARTCHAR 0405
ENCODING 1029
SWIDTH 540 0
DWIDTH 21 0
BBX 18 27 2 0
BITMAP
00E000
0FFE00
1FFF00
3C1F00
780F00
780700
F80700
FC0780
FC0000
FF0000
7FC000
7FF000
3FFC00
1FFE00
0FFF00
07FF80
01FFC0
003FC0
001FC0
F00FC0
F007C0
F007C0
F807C0
F80F80
FE1F80
7FFE00
1FFC00
ENDCHAR
STARTCHAR 0406
ENCODING 1030
SWIDTH 360 0
DWIDTH 14 0
BBX 11 26 2 0
BITMAP
FFE0
FFE0
3F80
3F80
3F00
3F00
1F00
1F00
1F00
1F00
1F00
1F00
1F00
1F00
1F00
1F00
1F00
1F00
1F00
1F00
3F00
3F00
3F80
7FC0
FFE0
FFE0
ENDCHAR
STARTCHAR 0407
ENCODING 1031
SWIDTH 360 0
DWIDTH 14 0
BBX 13 33 1 0
BITMAP
F8F0
FDF8
FDF8
F9F8
70F0
0000
0000
7FF0
7FF0
1FC0
1FC0
1F80
1F80
0F80
0F80
0F80
0F80
0F80
0F80
0F80
0F80
0F80
0F80
0F80
0F80
0F80
0F80
1F80
1F80
1FC0
3FE0
7FF0
7FF0
ENDCHAR
STARTCHAR 0408
ENCODING 1032
SWIDTH 360 0
DWIDTH 14 0
BBX 13 35 0 -10
BITMAP
7FF8
7FF8
1FE0
0FC0
0FC0
0FC0
0FC0
0FC0
0FC0
0FC0
0FC0
0FC0
0FC0
0FC0
0FC0
0FC0
0FC0
0FC0
0FC0
0FC0
0FC0
0FC0
0FC0
0FC0
0FC0
0FC0
0F80
0F80
0F80
1F00
1F00
3E00
7C00
F800
E000
ENDCHAR
STARTCHAR 0409
ENCODING 1033
SWIDTH 925 0
DWIDTH 36 0
BBX 34 26 1 0
BITMAP
0FFFFF0000
0FFFFF0000
01E1FC0000
01C1F80000
00C1F80000
00C1F80000
01C1F80000
01C1F80000
01C1F80000
01C1F80000
01C1F80000
01C1FFF800
0181FFFE00
0181FDFF00
0181F83F80
0381F81FC0
0381F81FC0
0381F81FC0
0381F80FC0
0701F80FC0
0F01F81FC0
FF01F81F80
FF01FC3F80
FE03FC7F00
FE0FFFFE00
FC0FFFF000
ENDCHAR
STARTCHAR 040A
ENCODING 1034
SWIDTH 1002 0
DWIDTH 39 0
BBX 36 26 2 0
BITMAP
FFE3FFE000
FFE3FFE000
3F80FF0000
3F807E0000
3F007E0000
3F007E0000
1F007E0000
1F007E0000
1F007E0000
1F007E0000
1F007E0000
1FFFFFFC00
1FFFFFFF80
1FFFFF7FC0
1F007E0FE0
1F007E07E0
1F007E07F0
1F007E07F0
1F007E07F0
1F007E07F0
3F007E07F0
3F007E07E0
3F807E0FE0
7FC0FF3FC0
FFE3FFFF80
FFE3FFFC00
ENDCHAR
STARTCHAR 040B
ENCODING 1035
SWIDTH 848 0
DWIDTH 33 0
BBX 32 26 1 0
BITMAP
7FFFFE00
7FFFFE00
787E3E00
F07E1E00
F07E0E00
E07E0E00
E07E0E00
007E0000
007E0000
007E0000
007E0000
007FFF80
007FFFC0
007FFFE0
007E07F0
007E03F0
007E01F0
007E01F8
007E01F8
007E01F8
007E01F8
007E01F8
00FE01F8
01FF03FC
03FF8FFF
03FFCFFF
ENDCHAR
STARTCHAR 040C
ENCODING 1036
SWIDTH 720 0
DWIDTH 28 0
BBX 26 36 2 0
BITMAP
0007C000
00078000
000F0000
000E0000
001E0000
001C0000
00180000
00000000
00000000
00000000
FFE0FF80
FFE0FF80
3F807C00
3F807800
3F00F000
3F01E000
1F01C000
1F038000
1F070000
1F0E0000
1F0E0000
1F1E0000
1F3F0000
1F3F8000
1F3F8000
1F1FC000
1F0FE000
1F0FE000
1F07F000
1F03F800
3F03FC00
3F01FC00
3F80FE00
7FC0FFC0
FFE07FC0
FFE03FC0
ENDCHAR
STARTCHAR 040D
ENCODING 1037
SWIDTH 771 0
DWIDTH 30 0
BBX 27 34 2 0
BITMAP
00F80000
00780000
003C0000
001C0000
000E0000
00000000
00000000
00000000
FFE03FE0
FFE03FC0
3F807F80
3F807F00
3F00FF00
3F00FF00
1F01FF00
1F01BF00
1F03BF00
1F033F00
1F073F00
1F0E3F00
1F0E3F00
1F1C3F00
1F1C3F00
1F383F00
1F383F00
1F703F00
1F703F00
1FE03F00
3FC03F00
3FC03F00
3F803F00
7F80FF80
FF01FFE0
FF01FFE0
ENDCHAR
STARTCHAR 040E
ENCODING 1038
SWIDTH 668 0
DWIDTH 26 0
BBX 25 35 1 0
BITMAP
00800000
03C07C00
03C07C00
03E07800
01F9F000
00FFE000
000E0000
00000000
00000000
FFE07F80
FFE07F80
7F801F00
3F801E00
1F801C00
1FC01800
0FC03800
07E03000
07F07000
03F06000
01F8E000
01F8E000
00FDC000
00FF8000
007F8000
007F0000
003F0000
001F0000
001E0000
001E0000
001C0000
18780000
1FF80000
1FF00000
1FE00000
0FC00000
ENDCHAR
STARTCHAR 040F
ENCODING 1039
SWIDTH 745 0
DWIDTH 29 0
BBX 26 33 2 -7
BITMAP
FFE1FFC0
FFE1FFC0
3F807F00
3F807F00
3F007E00
3F003E00
1F003E00
1F003E00
1F003E00
1F003E00
1F003E00
1F003E00
1F003E00
1F003E00
1F003E00
1F003E00
1F003E00
1F003E00
1F003E00
1F003E00
3F003E00
3F007E00
3F807F00
7FE1FF80
FFFFFFC0
FFFFFFC0
003F0000
001E0000
001E0000
001E0000
001E0000
001E0000
001E0000
ENDCHAR
STARTCHAR 0410
ENCODING 1040
SWIDTH 694 0
DWIDTH 27 0
BBX 26 27 1 0
BITMAP
00040000
001C0000
001C0000
003E0000
003E0000
007F0000
007F0000
00FF8000
00DF8000
00DFC000
01CFC000
018FC000
0387E000
0387E000
0307F000
0703F000
0603F800
0FFFF800
0FFFFC00
0FFFFC00
1C00FC00
1C00FE00
38007E00
38007F00
7C00FF80
FE01FFC0
FE01FFC0
ENDCHAR
STARTCHAR 0411
ENCODING 1041
SWIDTH 642 0
DWIDTH 25 0
BBX 22 26 2 0
BITMAP
FFFFE0
FFFFE0
3F03E0
3F00F0
3F00F0
1F0070
1F0060
1F0000
1F0000
1F0000
1F0000
1FFF80
1FFFE0
1F9FF0
1F03F8
1F01FC
1F01FC
1F00FC
1F00FC
1F00FC
3F00FC
3F01FC
3F83F8
7FC7F0
FFFFE0
FFFF00
ENDCHAR
STARTCHAR 0412
ENCODING 1042
SWIDTH 668 0
DWIDTH 26 0
BBX 22 26 2 0
BITMAP
FFFF80
FFFFE0
3F0FF0
3F03F0
3F03F8
1F01F8
1F01F8
1F01F0
1F03F0
1F03E0
1F07C0
1FFF00
1FFFE0
1FFFF0
1F03F8
1F01FC
1F01FC
1F00FC
1F00FC
1F00FC
3F00FC
3F01FC
3F81F8
7FC7F0
FFFFE0
FFFF00
ENDCHAR
STARTCHAR 0413
ENCODING 1043
SWIDTH 565 0
DWIDTH 22 0
BBX 20 26 2 0
BITMAP
FFFFE0
FFFFE0
3F03E0
3F00E0
3F00E0
3F0070
1F0060
1F0000
1F0000
1F0000
1F0000
1F0000
1F0000
1F0000
1F0000
1F0000
1F0000
1F0000
1F0000
1F0000
3F0000
3F8000
3F8000
7FE000
FFF000
FFF000
ENDCHAR
STARTCHAR 0414
ENCODING 1044
SWIDTH 745 0
DWIDTH 29 0
BBX 27 33 1 -7
BITMAP
0FFFFF80
07FFFF00
01E0FE00
00C0FC00
00C0FC00
00C0FC00
00C0FC00
00C0FC00
00C0FC00
00C0FC00
01C0FC00
01C0FC00
01C0FC00
01C0FC00
0180FC00
0180FC00
0380FC00
0380FC00
0380FC00
0700FC00
0700FC00
0700FC00
0E00FC00
3E00FE00
FFFFFFC0
FFFFFFE0
F00003C0
F00003C0
F00003C0
F00003C0
F00003C0
F00003C0
F00003C0
ENDCHAR
STARTCHAR 0415
ENCODING 1045
SWIDTH 617 0
DWIDTH 24 0
BBX 21 26 2 0
BITMAP
FFFFE0
FFFFE0
3F03E0
3F00E0
3F00E0
3F0070
1F0060
1F0000
1F0100
1F0700
1F0700
1F1F00
1FFF00
1FFF00
1F0F00
1F0700
1F0700
1F0000
1F0000
1F0038
3F0038
3F8078
3F80F8
7FE7F0
FFFFF0
FFFFF0
ENDCHAR
STARTCHAR 0416
ENCODING 1046
SWIDTH 1054 0
DWIDTH 41 0
BBX 40 26 1 0
BITMAP
7FC3FF87FC
7FC3FF87FC
0F80FE03F0
07807E03C0
01C07E0780
01E07E0700
00E07E0E00
00707E1C00
00387E3800
001C7E7800
003E7E7800
003E7EF800
007F7EFC00
007E7EFE00
00FE7E7E00
00FC7E7F00
01F87E3F00
03F87E3F80
03F07E1F80
07F07E0FC0
07E07E0FE0
0FE07E07F0
1FC0FE07F8
FFC1FF03FE
FF83FF83FF
FF03FF81FE
ENDCHAR
STARTCHAR 0417
ENCODING 1047
SWIDTH 565 0
DWIDTH 22 0
BBX 19 27 2 0
BITMAP
03C000
3FFE00
7FFF00
7C1F80
781FC0
700FC0
700FC0
700FC0
000FC0
001F80
001F80
007E00
03F000
07FE00
03FF80
003FC0
000FE0
0007E0
0007E0
F007E0
F007E0
F007E0
F807E0
F80FC0
FE1F80
FFFF00
1FFC00
ENDCHAR
STARTCHAR 0418
ENCODING 1048
SWIDTH 771 0
DWIDTH 30 0
BBX 27 26 2 0
BITMAP
FFE03FE0
FFE03FC0
3F807F80
3F807F00
3F00FF00
3F00FF00
1F01FF00
1F01BF00
1F03BF00
1F033F00
1F073F00
1F0E3F00
1F0E3F00
1F1C3F00
1F1C3F00
1F383F00
1F383F00
1F703F00
1F703F00
1FE03F00
3FC03F00
3FC03F00
3F803F00
7F80FF80
FF01FFE0
FF01FFE0
ENDCHAR
STARTCHAR 0419
ENCODING 1049
SWIDTH 771 0
DWIDTH 30 0
BBX 27 34 2 1
BITMAP
07807800
07C07800
03C0F800
03F3F000
00FFE000
001E0000
00000000
00000000
FFE03FE0
FFE03FC0
3F807F80
3F807F00
3F00FF00
3F00FF00
1F01FF00
1F01BF00
1F03BF00
1F033F00
1F073F00
1F0E3F00
1F0E3F00
1F1C3F00
1F1C3F00
1F383F00
1F383F00
1F703F00
1F703F00
1FE03F00
3FC03F00
3FC03F00
3F803F00
7F80FF80
FF01FFE0
FF01FFE0
ENDCHAR
STARTCHAR 041A
ENCODING 1050
SWIDTH 745 0
DWIDTH 29 0
BBX 26 26 2 0
BITMAP
FFE0FF80
FFE0FF80
3F807C00
3F807800
3F00F000
3F01E000
1F01C000
1F038000
1F070000
1F0E0000
1F0E0000
1F1E0000
1F3F0000
1F3F8000
1F3F8000
1F1FC000
1F0FE000
1F0FE000
1F07F000
1F03F800
3F03FC00
3F01FC00
3F80FE00
7FC0FFC0
FFE07FC0
FFE03FC0
ENDCHAR
STARTCHAR 041B
ENCODING 1051
SWIDTH 694 0
DWIDTH 27 0
BBX 25 26 1 0
BITMAP
0FFFFF80
0FFFFF80
01C0FE00
01C0FC00
00C0FC00
00C0FC00
01C0FC00
01C0FC00
01C0FC00
01C0FC00
01C0FC00
01C0FC00
0180FC00
0180FC00
0180FC00
0380FC00
0380FC00
0380FC00
0380FC00
0700FC00
0F00FC00
FF00FC00
FF00FC00
FE01FE00
FE07FF80
FC07FF80
ENDCHAR
STARTCHAR 041C
ENCODING 1052
SWIDTH 951 0
DWIDTH 37 0
BBX 36 26 1 0
BITMAP
3FC0007FC0
3FE0007FC0
0FE000FF00
0FF000FE00
0FF000FE00
0FF801FE00
0FF801FE00
0FFC01FE00
0EFC03BF00
0EFC033F00
0EFE073F00
0C7E073F00
0C7F063F00
0C3F0E3F00
0C3F8C3F00
0C1F8C3F00
1C1F9C3F00
1C0FD81F00
1C0FF81F80
1C0FF01F80
1C07F01F80
1C07F01F80
3C03E01F80
7E03E03FE0
FF01C0FFF0
FF01C0FFF0
ENDCHAR
STARTCHAR 041D
ENCODING 1053
SWIDTH 771 0
DWIDTH 30 0
BBX 27 26 2 0
BITMAP
FFE1FFE0
FFE1FFC0
3F807F80
3F803F00
3F003F00
3F003F00
1F003F00
1F003F00
1F003F00
1F003F00
1F003F00
1FFFFF00
1FFFFF00
1FFFFF00
1F003F00
1F003F00
1F003F00
1F003F00
1F003F00
1F003F00
3F003F00
3F003F00
3F803F00
7FC07F80
FFE1FFE0
FFE1FFE0
ENDCHAR
STARTCHAR 041E
ENCODING 1054
SWIDTH 745 0
DWIDTH 29 0
BBX 27 27 1 0
BITMAP
001E0000
00FFE000
03FFF800
07C0FE00
0F807E00
1F003F00
3F001F80
3E001F80
7E000FC0
7E000FC0
7E000FC0
FC000FE0
FC000FE0
FC0007E0
FC0007E0
FE0007E0
7E000FC0
7E000FC0
7E000FC0
7F000FC0
3F000F80
3F801F80
1F803F00
0FC03E00
07F0FC00
03FFF800
007FC000
ENDCHAR
STARTCHAR 041F
ENCODING 1055
SWIDTH 745 0
DWIDTH 29 0
BBX 26 26 2 0
BITMAP
FFFFFFC0
FFFFFFC0
3F003F00
3F003F00
3F003E00
3F003E00
1F003E00
1F003E00
1F003E00
1F003E00
1F003E00
1F003E00
1F003E00
1F003E00
1F003E00
1F003E00
1F003E00
1F003E00
1F003E00
1F003E00
3F003E00
3F007E00
3F807F00
7FC0FF80
FFE1FFC0
FFE1FFC0
ENDCHAR
STARTCHAR 0420
ENCODING 1056
SWIDTH 617 0
DWIDTH 24 0
BBX 21 26 2 0
BITMAP
FFFF80
FFFFE0
3F0FF0
3F03F8
3F01F8
3F01F8
1F01F8
1F01F8
1F01F8
1F01F8
1F01F8
1F01F8
1F01F0
1F03F0
1F3FE0
1F7F80
1F7E00
1F0000
1F0000
1F0000
3F0000
3F8000
3F8000
7FE000
FFF000
FFF000
ENDCHAR
STARTCHAR 0421
ENCODING 1057
SWIDTH 642 0
DWIDTH 25 0
BBX 23 27 1 0
BITMAP
000F00
00FFF0
03FFFC
07C07C
0F803C
1F003C
3F003C
3E001C
7E001C
7E0000
7E0000
FC0000
FC0000
FC0000
FE0000
FE0000
7E0000
7E0000
7E0000
7F0000
3F0000
3F8000
1FC000
0FF01E
07FFFC
03FFF8
00FFC0
ENDCHAR
STARTCHAR 0422
ENCODING 1058
SWIDTH 642 0
DWIDTH 25 0
BBX 23 26 1 0
BITMAP
7FFFFE
7FFFFE
7C7E3E
F07E1E
F07E0E
E07E0E
E07E0E
007E00
007E00
007E00
007E00
007E00
007E00
007E00
007E00
007E00
007E00
007E00
007E00
007E00
007E00
007E00
00FE00
01FF00
07FFC0
07FFC0
ENDCHAR
STARTCHAR 0423
ENCODING 1059
SWIDTH 668 0
DWIDTH 26 0
BBX 25 26 1 0
BITMAP
FFE07F80
FFE07F80
7F801F00
3F801E00
1F801C00
1FC01800
0FC03800
07E03000
07F07000
03F06000
01F8E000
01F8E000
00FDC000
00FF8000
007F8000
007F0000
003F0000
001F0000
001E0000
001E0000
001C0000
18780000
1FF80000
1FF00000
1FE00000
0FC00000
ENDCHAR
STARTCHAR 0424
ENCODING 1060
SWIDTH 848 0
DWIDTH 33 0
BBX 31 28 1 0
BITMAP
007FFE00
007FFC00
007FFC00
0007E000
0007E000
003FFC00
03FFFFC0
0FFFFFF0
1F87C3F8
3F07C1FC
7E07C0FE
7E07C07E
FC07C07E
FC07C07E
FC07C07E
FE07C07E
7E07C07E
7E07C0FC
3F07C0FC
1F87C1F8
0FF7CFF0
03FFFFC0
007FFC00
0007E000
0007E000
001FF000
007FFC00
007FFE00
ENDCHAR
STARTCHAR 0425
ENCODING 1061
SWIDTH 694 0
DWIDTH 27 0
BBX 25 26 1 0
BITMAP
7FF0FF00
7FF0FF00
3FE03E00
1FE03C00
0FE07800
07F07000
07F0E000
03F8E000
01FDC000
01FF8000
00FF8000
007F0000
007F0000
003F8000
007F8000
00FFC000
00EFE000
01CFE000
0387F000
0387F000
0703F800
0F01FC00
1E01FE00
7F03FF00
FF87FF80
FF87FF80
ENDCHAR
STARTCHAR 0426
ENCODING 1062
SWIDTH 822 0
DWIDTH 32 0
BBX 28 33 2 -7
BITMAP
FFE1FFC0
FFE1FFC0
3F807F00
3F807F00
3F007E00
3F003E00
1F003E00
1F003E00
1F003E00
1F003E00
1F003E00
1F003E00
1F003E00
1F003E00
1F003E00
1F003E00
1F003E00
1F003E00
1F003E00
1F003E00
3F003E00
3F003E00
3F003F00
7F003F80
FFFFFFF0
FFFFFFF0
000000F0
000000F0
000000F0
000000F0
000000F0
000000F0
000000F0
ENDCHAR
STARTCHAR 0427
ENCODING 1063
SWIDTH 720 0
DWIDTH 28 0
BBX 26 26 1 0
BITMAP
FFE1FFC0
FFE1FFC0
3FC07F00
1F807E00
1F807E00
1F807E00
1F807E00
1F807E00
1F807E00
1F807E00
0F807E00
0FC07E00
0FE07E00
07FFFE00
03FFFE00
00FE7E00
00007E00
00007E00
00007E00
00007E00
00007E00
00007E00
00007F00
0001FF00
0007FFC0
0007FFC0
ENDCHAR
STARTCHAR 0428
ENCODING 1064
SWIDTH 1054 0
DWIDTH 41 0
BBX 37 26 2 0
BITMAP
FFE7FF3FF8
FFE7FF3FF8
3F81FC0FE0
3F81FC0FE0
1F00F807E0
1F00F807C0
1F00F807C0
1F00F807C0
1F00F807C0
1F00F807C0
1F00F807C0
1F00F807C0
1F00F807C0
1F00F807C0
1F00F807C0
1F00F807C0
1F00F807C0
1F00F807C0
1F00F807C0
1F00F807C0
1F00F807C0
1F00F807E0
3F00F807E0
7F00F807F0
FFFFFFFFF8
FFFFFFFFF8
ENDCHAR
STARTCHAR 0429
ENCODING 1065
SWIDTH 1105 0
DWIDTH 43 0
BBX 40 33 2 -7
BITMAP
FFE7FF3FF8
FFE7FF3FF8
3F81FC0FE0
3F81FC0FE0
1F00F807E0
1F00F807C0
1F00F807C0
1F00F807C0
1F00F807C0
1F00F807C0
1F00F807C0
1F00F807C0
1F00F807C0
1F00F807C0
1F00F807C0
1F00F807C0
1F00F807C0
1F00F807C0
1F00F807C0
1F00F807C0
1F00F807C0
1F00F807E0
3F00F807E0
7F00F807F0
FFFFFFFFFE
FFFFFFFFFF
000000001F
000000001E
000000001E
000000001E
000000001E
000000001E
000000001E
ENDCHAR
STARTCHAR 042A
ENCODING 1066
SWIDTH 771 0
DWIDTH 30 0
BBX 28 26 1 0
BITMAP
7FFFC000
7FFFC000
78FF0000
F0FE0000
F0FC0000
E0FC0000
E0FC0000
00FC0000
00FC0000
00FC0000
00FC0000
00FFFC00
00FFFF80
00FE7FC0
00FC1FE0
00FC0FE0
00FC07E0
00FC07F0
00FC07F0
00FC07E0
00FC07E0
00FC07E0
00FE0FC0
01FF3FC0
03FFFF00
07FFFC00
ENDCHAR
STARTCHAR 042B
ENCODING 1067
SWIDTH 925 0
DWIDTH 36 0
BBX 33 26 2 0
BITMAP
FFF007FF80
FFF003FF80
3FC000FE00
3F8000FC00
3F8000FC00
1F0000FC00
1F0000FC00
1F0000FC00
1F0000FC00
1F0000FC00
1F0000FC00
1FFF00FC00
1FFFC0FC00
1F9FE0FC00
1F07F0FC00
1F03F8FC00
1F03F8FC00
1F01F8FC00
1F01F8FC00
1F01F8FC00
3F01F8FC00
3F03F0FC00
3F83F0FC00
7FCFE1FE00
FFFFC3FF80
FFFE07FF80
ENDCHAR
STARTCHAR 042C
ENCODING 1068
SWIDTH 668 0
DWIDTH 26 0
BBX 22 26 2 0
BITMAP
FFF000
FFF000
3FC000
3F8000
3F8000
1F0000
1F0000
1F0000
1F0000
1F0000
1F0000
1FFF80
1FFFE0
1F9FF8
1F03F8
1F01FC
1F01FC
1F00FC
1F00FC
1F00FC
3F00FC
3F01FC
3F81F8
7FCFF0
FFFFE0
FFFF00
ENDCHAR
STARTCHAR 042D
ENCODING 1069
SWIDTH 617 0
DWIDTH 24 0
BBX 21 27 2 0
BITMAP
00E000
3FFE00
7FFF80
781FC0
7807E0
7007F0
7003F0
E003F8
2001F8
0001F8
0001F8
0001F8
07FFF8
07FFF8
07FFF8
0001F8
0001F8
0001F8
0001F8
E001F8
E003F0
E003F0
F007E0
F00FC0
FC1F80
FFFF00
1FFC00
ENDCHAR
STARTCHAR 042E
ENCODING 1070
SWIDTH 1054 0
DWIDTH 41 0
BBX 38 27 2 0
BITMAP
000001E000
FFE01FFC00
FFE07FFF00
3F80F81FC0
3F81F00FE0
3F03E007E0
3F07E003F0
1F07E003F0
1F07C001F8
1F0FC001F8
1F0FC001F8
1F0FC001FC
1FFFC001FC
1FFFC000FC
1FFFC000FC
1F0FC000FC
1F0FC001F8
1F0FC001F8
1F0FE001F8
1F07E001F8
1F07E001F0
3F03F003F0
3F03F007E0
3F81F807C0
7FC0FE1F80
FFE03FFF00
FFE00FF800
ENDCHAR
STARTCHAR 042F
ENCODING 1071
SWIDTH 668 0
DWIDTH 26 0
BBX 26 26 0 0
BITMAP
00FFFFC0
03FFFF80
07F07F00
07E07E00
0FC07E00
0FC07E00
0FC07E00
0FC07E00
0FC07E00
0FC07E00
07E07E00
03F07E00
01FFFE00
007FFE00
007FFE00
00FC7E00
01FC7E00
01F87E00
03F87E00
03F07E00
07F07E00
0FE07E00
1FC07E00
7FC1FF00
FF83FF80
FF83FFC0
ENDCHAR
STARTCHAR 0430
ENCODING 1072
SWIDTH 488 0
DWIDTH 19 0
BBX 18 18 1 0
BITMAP
03F800
0FFC00
1FFE00
787E00
F87E00
F83E00
F83E00
007E00
01FE00
0FBE00
3E3E00
7C3E00
F83E00
F83E00
FC3F80
FE7FC0
7FFFC0
3F1F80
ENDCHAR
STARTCHAR 0431
ENCODING 1073
SWIDTH 565 0
DWIDTH 22 0
BBX 20 28 1 0
BITMAP
000070
0001F0
000FE0
007FE0
01FFC0
03FFC0
0FFF80
1E0000
1C0000
3C0000
3C0000
7C7E00
7DFF80
7FFFC0
FC1FE0
FC07E0
FC07E0
FC03F0
FC03F0
FC03F0
FC03F0
FC03E0
7C03E0
7E07E0
7E07C0
3F0F80
1FFF00
07FC00
ENDCHAR
STARTCHAR 0432
ENCODING 1074
SWIDTH 565 0
DWIDTH 22 0
BBX 20 18 1 0
BITMAP
FFFE00
FFFF80
7F9FC0
3F07E0
3F07E0
1F07E0
1F07C0
1F1F00
1FFE00
1FFFC0
1F0FE0
1F07F0
1F03F0
1F03F0
3F03F0
3FCFE0
FFFFC0
FFFF00
ENDCHAR
STARTCHAR 0433
ENCODING 1075
SWIDTH 462 0
DWIDTH 18 0
BBX 17 18 1 0
BITMAP
FFFF80
FFFF80
7F3F80
3F0780
3F0380
1F0380
1F0200
1F0000
1F0000
1F0000
1F0000
1F0000
1F0000
1F0000
3F8000
3FC000
FFF000
FFF000
ENDCHAR
STARTCHAR 0434
ENCODING 1076
SWIDTH 591 0
DWIDTH 23 0
BBX 23 25 0 -7
BITMAP
0FFFFC
0FFFF8
0F83F8
0383F0
0383E0
0383E0
0383E0
0383E0
0383E0
0303E0
0303E0
0703E0
0703E0
0703E0
0E03E0
1E03F0
7FFFFE
FFFFFE
78001E
78001E
78001E
78001E
78001E
78001E
78001E
ENDCHAR
STARTCHAR 0435
ENCODING 1077
SWIDTH 488 0
DWIDTH 19 0
BBX 17 18 1 0
BITMAP
03F800
0FFE00
1F3F00
3E1F00
7C0F80
7C0F80
7C0F80
FC0F80
FFFF80
FFFF80
FC0000
7C0000
7E0000
7E0000
3F0180
3FFF80
1FFF00
07FC00
ENDCHAR
STARTCHAR 0436
ENCODING 1078
SWIDTH 874 0
DWIDTH 34 0
BBX 33 18 1 0
BITMAP
7FDFFDFF00
7F8FF9FF00
3F8FF8FE00
0F07F07000
0383E0E000
03C3E1C000
01E3E3C000
00E3E38000
00F3E78000
01FBEFC000
03FBEFC000
03F3E7E000
07E3E3F000
0FC3E3F800
1FC3E1FC00
7F87F0FF00
FF0FF87F80
FF1FFC7F80
ENDCHAR
STARTCHAR 0437
ENCODING 1079
SWIDTH 488 0
DWIDTH 19 0
BBX 16 18 2 0
BITMAP
3FE0
FFFC
F8FE
F07E
E07E
E07E
007C
03F8
0FE0
0FFC
00FE
007F
E03F
E03F
E03E
F07E
FFFC
7FF0
ENDCHAR
STARTCHAR 0438
ENCODING 1080
SWIDTH 642 0
DWIDTH 25 0
BBX 23 18 1 0
BITMAP
FFC0FE
FFC1FE
7FC3FC
3F03F8
3F07F0
1F0FF0
1F0FF0
1F1DF0
1F19F0
1F39F0
1F71F0
1F61F0
1FE1F0
1FC1F0
3F81F8
3F83F8
FF07FE
FF07FE
ENDCHAR
STARTCHAR 0439
ENCODING 1081
SWIDTH 642 0
DWIDTH 25 0
BBX 23 27 1 0
BITMAP
1F01F0
1F01E0
0F01E0
0F83E0
07FFC0
03FF80
003800
000000
000000
FFC0FE
FFC1FE
7FC3FC
3F03F8
3F07F0
1F0FF0
1F0FF0
1F1DF0
1F19F0
1F39F0
1F71F0
1F61F0
1FE1F0
1FC1F0
3F81F8
3F83F8
FF07FE
FF07FE
ENDCHAR
STARTCHAR 043A
ENCODING 1082
SWIDTH 591 0
DWIDTH 23 0
BBX 22 18 1 0
BITMAP
FFCFF8
FFC7F8
7FC7F8
3F03C0
1F0380
1F0700
1F0E00
1F1C00
1F3C00
1F7E00
1F7F00
1F3F00
1F1F80
1F0FC0
3F0FE0
7F87F8
FFC3FC
FFC3FC
ENDCHAR
STARTCHAR 043B
ENCODING 1083
SWIDTH 565 0
DWIDTH 22 0
BBX 21 18 0 0
BITMAP
0FFFF8
0FFFF8
0783F8
0183F0
0183E0
0183E0
0183E0
0183E0
0383E0
0383E0
0303E0
0303E0
0703E0
0F03E0
7E07E0
FE07F0
FC1FF8
781FF8
ENDCHAR
STARTCHAR 043C
ENCODING 1084
SWIDTH 745 0
DWIDTH 29 0
BBX 27 18 1 0
BITMAP
7F803FC0
7FC03FC0
3FC07F80
1FC07F00
1FE0FF00
1FE0FF00
1BF0DF00
1BF19F00
19F99F00
19FB9F80
18FF1F80
18FF1F80
307E1F80
307E1F80
383C1F80
7C3C1FC0
FE387FE0
FE007FE0
ENDCHAR
STARTCHAR 043D
ENCODING 1085
SWIDTH 642 0
DWIDTH 25 0
BBX 23 18 1 0
BITMAP
FFC7FE
FFC7FE
7FC3FC
3F01F8
1F01F8
1F01F8
1F01F8
1F01F8
1FFFF8
1FFFF8
1F01F8
1F01F8
1F01F8
1F01F8
1F01F8
3F83FC
FFC7FE
FFC7FE
ENDCHAR
STARTCHAR 043E
ENCODING 1086
SWIDTH 565 0
DWIDTH 22 0
BBX 20 18 1 0
BITMAP
03FC00
0FFF00
1F9FC0
3E0FC0
7E07E0
7C07E0
7C03F0
FC03F0
FC03F0
FC03F0
FC03F0
7C03F0
7E03E0
7E03E0
3F07C0
3F8FC0
0FFF00
07FE00
ENDCHAR
STARTCHAR 043F
ENCODING 1087
SWIDTH 617 0
DWIDTH 24 0
BBX 23 18 1 0
BITMAP
FFFFFE
FFFFFE
7F01FC
3F01F8
3F01F0
1F01F0
1F01F0
1F01F0
1F01F0
1F01F0
1F01F0
1F01F0
1F01F0
1F01F0
3F81F8
3F83F8
FFC7FE
FFC7FE
ENDCHAR
STARTCHAR 0440
ENCODING 1088
SWIDTH 617 0
DWIDTH 24 0
BBX 22 28 1 -10
BITMAP
030FC0
7FBFF0
FFFFF8
7FC3F8
1F81FC
1F80FC
1F80FC
1F80FC
1F80FC
1F80FC
1F80FC
1F80FC
1F80F8
1F80F8
1F81F0
1FC3E0
1FFFC0
1FFF00
1F8000
1F8000
1F8000
1F8000
1F8000
1F8000
3FC000
FFF800
FFF800
C00800
ENDCHAR
STARTCHAR 0441
ENCODING 1089
SWIDTH 462 0
DWIDTH 18 0
BBX 16 18 1 0
BITMAP
03FC
0FFF
1F1F
3E0F
7E0E
7C0E
7C0E
FC00
FC00
FC00
FC00
7C00
7E00
7E00
3F03
3FFF
0FFE
07FC
ENDCHAR
STARTCHAR 0442
ENCODING 1090
SWIDTH 540 0
DWIDTH 21 0
BBX 21 18 0 0
BITMAP
7FFFF0
7FFFF0
7EFDF0
70FC78
70FC38
F0FC38
00FC00
00FC00
00FC00
00FC00
00FC00
00FC00
00FC00
00FC00
00FC00
01FE00
07FF80
07FF80
ENDCHAR
STARTCHAR 0443
ENCODING 1091
SWIDTH 540 0
DWIDTH 21 0
BBX 21 28 0 -10
BITMAP
FFF3F8
7FE3F8
7FE3F8
3F80E0
1F80E0
0FC0C0
0FC1C0
07E180
07E380
03F380
03F300
01F700
01FE00
01FE00
00FC00
00FC00
007C00
007800
003800
003000
007000
006000
00E000
3FC000
7FC000
7F8000
3F0000
0C0000
ENDCHAR
STARTCHAR 0444
ENCODING 1092
SWIDTH 771 0
DWIDTH 30 0
BBX 28 38 1 -10
BITMAP
00018000
007F8000
007F8000
007F8000
001F8000
000F8000
000F8000
000F8000
000F8000
000F8000
00FFF800
07FFFF00
1FEFFFC0
3F0F8FE0
3E0F87E0
7E0F83F0
7C0F83F0
FC0F83F0
FC0F81F0
FC0F81F0
FC0F81F0
7E0F81F0
7E0F83F0
7F0F83E0
3F8F87E0
1FEFBFC0
0FFFFF00
01FFFC00
000F8000
000F8000
000F8000
000F8000
000F8000
001F8000
001FC000
00FFF000
00FFF800
00C00800
ENDCHAR
STARTCHAR 0445
ENCODING 1093
SWIDTH 565 0
DWIDTH 22 0
BBX 20 18 1 0
BITMAP
FFEFF0
FFE7E0
7FC7E0
1FC380
1FC700
0FE700
07EE00
03FC00
03FC00
03FC00
03FE00
077F00
0F3F00
1E3F80
1C1FC0
7E3FE0
FE7FF0
FF7FF0
ENDCHAR
STARTCHAR 0446
ENCODING 1094
SWIDTH 668 0
DWIDTH 26 0
BBX 25 25 1 -7
BITMAP
FFCFFE00
FFC7FE00
7FC7FC00
3F03F800
3F01F000
1F01F000
1F01F000
1F01F000
1F01F000
1F01F000
1F01F000
1F01F000
1F01F000
3F01F000
3F01F800
3F01F800
FFFFFF80
FFFFFF80
00000F80
00000F80
00000700
00000700
00000700
00000700
00000700
ENDCHAR
STARTCHAR 0447
ENCODING 1095
SWIDTH 591 0
DWIDTH 23 0
BBX 22 18 0 0
BITMAP
FFCFFC
7FCFFC
7F87F8
3F83F0
1F03F0
1F03F0
1F03F0
1F83F0
1F83F0
0FFFF0
07FFF0
00F3F0
0003F0
0003F0
0003F0
000FF0
001FFC
001FFC
ENDCHAR
STARTCHAR 0448
ENCODING 1096
SWIDTH 874 0
DWIDTH 34 0
BBX 32 18 1 0
BITMAP
FFCFFBFF
FFCFF9FF
7F8FF1FE
3F07E0FC
1F03E0FC
1F03E0FC
1F03E0FC
1F03E0FC
1F03E0FC
1F03E0FC
1F03E0FC
1F03E0FC
1F03E0FC
3F03E0FC
3F03E0FC
3F03E0FE
FFFFFFFF
FFFFFFFF
ENDCHAR
STARTCHAR 0449
ENCODING 1097
SWIDTH 925 0
DWIDTH 36 0
BBX 34 25 1 -7
BITMAP
FFCFFBFF00
FFCFF9FF00
7F8FF1FE00
3F07E0FC00
1F03E0FC00
1F03E0FC00
1F03E0FC00
1F03E0FC00
1F03E0FC00
1F03E0FC00
1F03E0FC00
1F03E0FC00
1F03E0FC00
3F03E0FC00
3F03E0FC00
3F03E0FE00
FFFFFFFFC0
FFFFFFFFC0
00000003C0
00000003C0
00000003C0
00000003C0
00000003C0
00000003C0
00000003C0
ENDCHAR
STARTCHAR 044A
ENCODING 1098
SWIDTH 591 0
DWIDTH 23 0
BBX 22 18 1 0
BITMAP
FFFE00
FFFE00
FFFC00
F3F000
E3F000
E3F000
63F000
03FFC0
03FFF0
03E3F8
03E1F8
03E0F8
03E0FC
03F0F8
03F0F8
07F1F8
0FFFF0
0FFFC0
ENDCHAR
STARTCHAR 044B
ENCODING 1099
SWIDTH 822 0
DWIDTH 32 0
BBX 30 18 1 0
BITMAP
FFF00FFC
FFF00FFC
7FE007FC
3F8003F0
3F0003F0
1F0003F0
1F0003F0
1FFE03F0
1FFF83F0
1F1FC3F0
1F0FE3F0
1F07E3F0
1F07E3F0
1F07E3F0
3F07E3F0
3F8FC7F8
FFFF8FFC
FFFE0FFC
ENDCHAR
STARTCHAR 044C
ENCODING 1100
SWIDTH 565 0
DWIDTH 22 0
BBX 20 18 1 0
BITMAP
FFF000
FFF000
7FE000
3F8000
3F0000
1F0000
1F0000
1FFE00
1FFFC0
1F1FE0
1F07F0
1F07F0
1F03F0
1F03F0
3F07F0
3F8FE0
FFFFC0
FFFE00
ENDCHAR
STARTCHAR 044D
ENCODING 1101
SWIDTH 462 0
DWIDTH 18 0
BBX 16 18 1 0
BITMAP
3FE0
7FF8
79FC
707E
707E
E03F
003F
003F
0FFF
0FFF
003F
003F
603E
E03E
E07C
F0FC
FFF8
3FE0
ENDCHAR
STARTCHAR 044E
ENCODING 1102
SWIDTH 822 0
DWIDTH 32 0
BBX 30 18 1 0
BITMAP
FFC07F80
FFC1FFE0
7FC3E7F0
3F07C3F0
3F0F81F8
1F0F81F8
1F1F80FC
1F1F80FC
1FFF80FC
1FFF80FC
1F1F80FC
1F1F80FC
1F0F80F8
1F0FC0F8
3F8FC1F0
3F87E3F0
FFC3FFC0
FFC0FF80
ENDCHAR
STARTCHAR 044F
ENCODING 1103
SWIDTH 565 0
DWIDTH 22 0
BBX 20 18 1 0
BITMAP
03FFF0
1FFFF0
3F9FE0
3F0FC0
7E0FC0
7E0FC0
7E0FC0
3F0FC0
3F8FC0
0FFFC0
03FFC0
07CFC0
0F8FC0
0F8FC0
1F0FC0
7F0FC0
FE3FF0
FE3FF0
ENDCHAR
STARTCHAR 0450
ENCODING 1104
SWIDTH 488 0
DWIDTH 19 0
BBX 17 28 1 0
BITMAP
070000
0F8000
078000
078000
03C000
01C000
00E000
000000
000000
000000
03F800
0FFE00
1F3F00
3E1F00
7C0F80
7C0F80
7C0F80
FC0F80
FFFF80
FFFF80
FC0000
7C0000
7E0000
7E0000
3F0180
3FFF80
1FFF00
07FC00
ENDCHAR
STARTCHAR 0451
ENCODING 1105
SWIDTH 488 0
DWIDTH 19 0
BBX 17 26 1 0
BITMAP
0C0400
3E1F00
3F1F80
3F1F80
3E1F00
1C0E00
000000
000000
03F800
0FFE00
1F3F00
3E1F00
7C0F80
7C0F80
7C0F80
FC0F80
FFFF80
FFFF80
FC0000
7C0000
7E0000
7E0000
3F0180
3FFF80
1FFF00
07FC00
ENDCHAR
STARTCHAR 0452
ENCODING 1106
SWIDTH 617 0
DWIDTH 24 0
BBX 22 37 0 -10
BITMAP
018000
7F8000
7F8000
7F8000
0F8000
0F8000
FFFE00
FFFE00
FFFE00
0F8000
0F8780
0F9FE0
0FBFF0
0FFFF8
0FE1F8
0FC0FC
0FC0FC
0FC0FC
0F80FC
0F807C
0F807C
0F807C
0F807C
0F807C
0FC07C
1FC0FC
7FF0FC
7FF0F8
0000F8
0000F8
0001F0
0001F0
0003E0
0007C0
000F80
001F00
001E00
ENDCHAR
STARTCHAR 0453
ENCODING 1107
SWIDTH 462 0
DWIDTH 18 0
BBX 17 28 1 0
BITMAP
007C00
007800
007800
00F000
00E000
01E000
01C000
000000
000000
000000
FFFF80
FFFF80
7F3F80
3F0780
3F0380
1F0380
1F0200
1F0000
1F0000
1F0000
1F0000
1F0000
1F0000
1F0000
3F8000
3FC000
FFF000
FFF000
ENDCHAR
STARTCHAR 0454
ENCODING 1108
SWIDTH 462 0
DWIDTH 18 0
BBX 16 18 1 0
BITMAP
03FC
0FFF
1F9F
3E0F
7E07
7C07
7C00
FC00
FFF8
FFF0
FC00
7C00
7C02
7E07
3E07
1F0F
0FFF
03FE
ENDCHAR
STARTCHAR 0455
ENCODING 1109
SWIDTH 437 0
DWIDTH 17 0
BBX 15 18 2 0
BITMAP
1FF0
7FF8
FCF8
F878
F838
FC38
FE00
FFC0
7FF0
3FF8
0FFC
21FC
E0FE
E07E
F07C
F8FC
FFF8
7FE0
ENDCHAR
STARTCHAR 0456
ENCODING 1110
SWIDTH 334 0
DWIDTH 13 0
BBX 11 27 1 0
BITMAP
0F00
1F80
3F80
3F80
1F00
0E00
0000
0000
0000
0300
7F80
FF80
7F80
1F80
1F80
1F80
1F80
1F80
1F80
1F80
1F80
1F80
1F80
1F80
3FC0
FFE0
FFE0
ENDCHAR
STARTCHAR 0457
ENCODING 1111
SWIDTH 334 0
DWIDTH 13 0
BBX 13 26 0 0
BITMAP
3060
F8F8
FDF8
FDF8
FCF8
7870
0000
0000
0180
3FC0
7FC0
3FC0
0FC0
0FC0
0FC0
0FC0
0FC0
0FC0
0FC0
0FC0
0FC0
0FC0
0FC0
1FE0
7FF0
7FF0
ENDCHAR
STARTCHAR 0458
ENCODING 1112
SWIDTH 308 0
DWIDTH 12 0
BBX 9 36 1 -10
BITMAP
0E00
1F00
3F80
3F80
1F00
0E00
0000
0000
0000
0700
FF80
FF80
7F80
1F80
1F80
1F80
1F80
1F80
1F80
1F80
1F80
1F80
1F80
1F80
1F80
1F80
1F00
1F00
1F00
1F00
3E00
3E00
7C00
7800
F000
E000
ENDCHAR
STARTCHAR 0459
ENCODING 1113
SWIDTH 797 0
DWIDTH 31 0
BBX 31 18 0 0
BITMAP
0FFFFC00
0FFFFC00
07FFF800
01C3F000
01C3E000
01C3E000
0183E000
0183FFC0
0183FFF8
0183E3FC
0383E0FC
0383E0FC
0303E0FE
0F03E0FC
7F03F0FC
7E07F1FC
FE0FFFF8
7C0FFFC0
ENDCHAR
STARTCHAR 045A
ENCODING 1114
SWIDTH 848 0
DWIDTH 33 0
BBX 31 18 1 0
BITMAP
FFCFFE00
FFCFFE00
7FC7FE00
3F03F000
3F03F000
1F03F000
1F03F000
1F03F000
1FFFFFE0
1FFFFFF8
1F03F1FC
1F03F0FE
1F03F07E
1F03F07E
3F03F0FE
3F87F9FC
FFCFFFF8
FFCFFFE0
ENDCHAR
STARTCHAR 045B
ENCODING 1115
SWIDTH 642 0
DWIDTH 25 0
BBX 24 28 0 0
BITMAP
018000
7F8000
7F8000
7F8000
0F8000
0F8000
7FFE00
FFFE00
FFFE00
0F8000
0F8100
0F8FE0
0F9FF0
0FBFF8
0FF1F8
0FE0FC
0FC0FC
0FC0FC
0FC0FC
0FC0FC
0F80FC
0F80FC
0F80FC
0FC0FC
0FC0FC
1FE1FE
7FF3FF
7FF3FF
ENDCHAR
STARTCHAR 045C
ENCODING 1116
SWIDTH 591 0
DWIDTH 23 0
BBX 22 28 1 0
BITMAP
0007C0
000780
000F00
000F00
000E00
001C00
001C00
000000
000000
000000
FFCFF8
FFC7F8
7FC7F8
3F03C0
1F0380
1F0700
1F0E00
1F1C00
1F3C00
1F7E00
1F7F00
1F3F00
1F1F80
1F0FC0
3F0FE0
7F87F8
FFC3FC
FFC3FC
ENDCHAR
STARTCHAR 045D
ENCODING 1117
SWIDTH 642 0
DWIDTH 25 0
BBX 23 28 1 0
BITMAP
01E000
03E000
01F000
00F000
007800
003800
003800
000000
000000
000000
FFC0FE
FFC1FE
7FC3FC
3F03F8
3F07F0
1F0FF0
1F0FF0
1F1DF0
1F19F0
1F39F0
1F71F0
1F61F0
1FE1F0
1FC1F0
3F81F8
3F83F8
FF07FE
FF07FE
ENDCHAR
STARTCHAR 045E
ENCODING 1118
SWIDTH 540 0
DWIDTH 21 0
BBX 21 37 0 -10
BITMAP
0F80F8
0F80F0
0780F0
07C1F0
03F7E0
01FFC0
001C00
000000
000000
FFF3F8
7FE3F8
7FE3F8
3F80E0
1F80E0
0FC0C0
0FC1C0
07E180
07E380
03F380
03F300
01F700
01FE00
01FE00
00FC00
00FC00
007C00
007800
003800
003000
007000
006000
00E000
3FC000
7FC000
7F8000
3F0000
0C0000
ENDCHAR
STARTCHAR 045F
ENCODING 1119
SWIDTH 617 0
DWIDTH 24 0
BBX 23 25 1 -7
BITMAP
FFCFFE
FFC7FE
7FC7FC
3F03F8
3F01F0
1F01F0
1F01F0
1F01F0
1F01F0
1F01F0
1F01F0
1F01F0
1F01F0
3F01F0
3F01F8
3F83F8
FFFFFC
FFFFFE
007C00
007C00
007800
007800
007800
003800
003800
ENDCHAR
STARTCHAR 0462
ENCODING 1122
SWIDTH 720 0
DWIDTH 28 0
BBX 26 28 1 0
BITMAP
0FFE0000
0FFE0000
0FFE0000
03F80000
01F80000
01F80000
FFFFF000
FFFFF000
F1F8F000
E1F87000
E1F87000
E1F87800
21F80000
01F80000
01FFF000
01FFFE00
01FFFF00
01F83F80
01F81F80
01F81FC0
01F80FC0
01F80FC0
01F80FC0
01F81F80
03F81F80
07FC7F00
0FFFFE00
0FFFF000
ENDCHAR
STARTCHAR 0463
ENCODING 1123
SWIDTH 642 0
DWIDTH 25 0
BBX 24 28 0 0
BITMAP
003000
0FF000
0FF000
0FF000
03F000
01F000
01F000
01F000
01F000
01F000
7FFFE0
7FFFE0
7DF3F0
71F0F0
71F070
E1F070
01F000
01FFC0
01FFF8
01FFFE
01F07E
01F03F
01F03F
01F03F
01F87E
03F8FE
07FFFC
07FFE0
ENDCHAR
STARTCHAR 046A
ENCODING 1130
SWIDTH 951 0
DWIDTH 37 0
BBX 35 26 1 0
BITMAP
1FFFFFFE00
0FFFFFFE00
07F0003800
03F8003800
01FC007000
00FE00E000
007F01C000
007F01C000
003F838000
001FC70000
000FEE0000
0007EC0000
000FFE0000
00FFFFE000
01FFFFF000
03F9FBF800
03F1F9F800
07E1F8FC00
07E1F8FC00
0FE1F87E00
0FC1F87E00
1FC1F87F00
1FC3F83F00
7F87FC3FC0
FF0FFE1FE0
FF0FFE0FE0
ENDCHAR
STARTCHAR 046B
ENCODING 1131
SWIDTH 797 0
DWIDTH 31 0
BBX 30 18 1 0
BITMAP
3FFFFFE0
3FFFFFE0
1FE003C0
07F00780
03F80E00
01FC1C00
00FE3800
007F7000
003FE000
03FFFF00
07FFFF80
0FCFCFC0
1F8FCFC0
1F8FC7E0
3F0FC7E0
7F1FC3F8
FE3FF3FC
FC3FF1FC
ENDCHAR
STARTCHAR 0472
ENCODING 1138
SWIDTH 745 0
DWIDTH 29 0
BBX 27 27 1 0
BITMAP
001E0000
00FFE000
03FFF800
07C0FE00
0F807E00
1F003F00
3F001F80
3E001F80
7E000FC0
7E000FC0
7E000FC0
FC780FE0
FDFF7FE0
FFFFFFE0
FFFFF7E0
FE07E7E0
7E000FC0
7E000FC0
7E000FC0
7F000FC0
3F000F80
3F001F80
1F803F00
0FC03E00
07F0FC00
03FFF800
007FC000
ENDCHAR
STARTCHAR 0473
ENCODING 1139
SWIDTH 565 0
DWIDTH 22 0
BBX 20 18 1 0
BITMAP
03FC00
0FFF00
1F9FC0
3E0FC0
7E07E0
7C03E0
7C03F0
FDE7F0
FFFFF0
FFFFF0
FE3BF0
7C03F0
7E03E0
7E03E0
3F07C0
3F8FC0
0FFF00
07FE00
ENDCHAR
STARTCHAR 0474
ENCODING 1140
SWIDTH 720 0
DWIDTH 28 0
BBX 27 27 1 0
BITMAP
00000100
FFE007C0
FFE00FE0
7F801FC0
3F801FC0
3F803C40
1F803800
1FC03000
0FC07000
0FC07000
0FE06000
07E06000
07E0C000
03F0C000
03F0C000
03F18000
01F98000
01F98000
00FB8000
00FF0000
00FF0000
007F0000
007E0000
003E0000
003E0000
003C0000
001C0000
ENDCHAR
STARTCHAR 0475
ENCODING 1141
SWIDTH 514 0
DWIDTH 20 0
BBX 20 18 0 0
BITMAP
FFC0F0
FFC1F0
7FC3F0
3F83F0
1F8790
1F8700
0FC700
0FC600
0FCE00
07EC00
07EC00
03FC00
03F800
01F800
01F800
01F000
00F000
00F000
ENDCHAR
STARTCHAR 048A
ENCODING 1162
SWIDTH 822 0
DWIDTH 32 0
BBX 28 41 2 -6
BITMAP
07807800
07C07800
03C0F800
03F3F000
00FFE000
001E0000
00000000
00000000
FFE03FE0
FFE03FC0
3F807F80
3F807F00
3F00FF00
3F00FF00
1F01FF00
1F01BF00
1F03BF00
1F033F00
1F073F00
1F0E3F00
1F0E3F00
1F1C3F00
1F1C3F00
1F383F00
1F383F00
1F703F00
1F703F00
1FE03F00
3FC03F00
3FC03F00
3F803F00
7F80FF80
FF01FFF0
FF01FFF0
000001F0
000001F0
000001E0
000003E0
000003C0
00000780
00000100
ENDCHAR
STARTCHAR 048B
ENCODING 1163
SWIDTH 668 0
DWIDTH 26 0
BBX 24 34 1 -7
BITMAP
1F01F0
1F01E0
0F01E0
0F83E0
07FFC0
03FF80
003800
000000
000000
FFC0FE
FFC1FE
7FC3FC
3F03F8
3F07F0
1F0FF0
1F0FF0
1F1DF0
1F19F0
1F39F0
1F71F0
1F61F0
1FE1F0
1FC1F0
3F81F8
3F83F8
FF07FF
FF07FF
00001F
00001F
00001E
00001E
00003C
000078
000010
ENDCHAR
STARTCHAR 048C
ENCODING 1164
SWIDTH 668 0
DWIDTH 26 0
BBX 24 26 0 0
BITMAP
3FFC00
3FFC00
0FF000
0FE000
0FE000
FFFE00
FFFE00
FFFE00
07C000
07C000
07C000
07FFE0
07FFF8
07E7FE
07C0FE
07C07F
07C07F
07C03F
07C03F
07C03F
0FC03F
0FC07F
0FE07E
1FF3FC
3FFFF8
3FFFC0
ENDCHAR
STARTCHAR 048D
ENCODING 1165
SWIDTH 565 0
DWIDTH 22 0
BBX 21 28 0 0
BITMAP
018000
7F8000
7F8000
7F8000
1F8000
0F8000
0F8000
0F8000
0F8000
0F8000
FFFE00
FFFE00
FF8000
0F8000
0F8000
0F8000
0FB000
0FFFC0
0FFFE0
0F87F0
0F83F8
0F81F8
0F81F8
0F81F8
1F83F8
1FE7F0
7FFFE0
7FFF00
ENDCHAR
STARTCHAR 048E
ENCODING 1166
SWIDTH 617 0
DWIDTH 24 0
BBX 21 26 2 0
BITMAP
FFFF80
FFFFE0
3F07F0
3F01F8
3F01F8
3F00F8
1F00F8
1F00F8
1F00F8
1F00F8
1F0CF8
1F1EF8
1F0FF0
1F07F0
1F3FE0
1F7FE0
1F7E70
1F0038
1F0010
1F0000
3F0000
3F8000
3F8000
7FE000
FFF000
FFF000
ENDCHAR
STARTCHAR 048F
ENCODING 1167
SWIDTH 617 0
DWIDTH 24 0
BBX 22 28 1 -10
BITMAP
030FC0
7FBFF0
FFFFF8
7FC3F8
1F81FC
1F80FC
1F80FC
1F80FC
1F80FC
1F80FC
1F80FC
1F80FC
1F8CF8
1F8EF8
1F87F0
1FC3E0
1FFFC0
1FFFE0
1F8070
1F8060
1F8000
1F8000
1F8000
1F8000
3FC000
FFF800
FFF800
C00800
ENDCHAR
STARTCHAR 0490
ENCODING 1168
SWIDTH 540 0
DWIDTH 21 0
BBX 19 33 2 0
BITMAP
0001C0
0001C0
0001C0
0001C0
0003C0
0003C0
0003E0
FFFFE0
FFFFC0
3F0000
3F0000
3F0000
3F0000
1F0000
1F0000
1F0000
1F0000
1F0000
1F0000
1F0000
1F0000
1F0000
1F0000
1F0000
1F0000
1F0000
1F0000
3F0000
3F8000
3F8000
7FE000
FFF000
FFF000
ENDCHAR
STARTCHAR 0491
ENCODING 1169
SWIDTH 437 0
DWIDTH 17 0
BBX 16 25 1 0
BITMAP
000F
000F
000F
000F
000F
000F
000F
FFFF
FFFF
7F00
3F00
3F00
1F00
1F00
1F00
1F00
1F00
1F00
1F00
1F00
1F00
3F00
3F80
FFF0
FFF0
ENDCHAR
STARTCHAR 0492
ENCODING 1170
SWIDTH 565 0
DWIDTH 22 0
BBX 22 26 0 0
BITMAP
3FFFF8
3FFFF8
0FC0F8
0FC038
0FC038
0FC01C
07C018
07C000
07C000
07C000
07C000
07C000
FFFF80
FFFF80
87C000
07C000
07C000
07C000
07C000
07C000
0FC000
0FE000
0FE000
1FF800
3FFC00
3FFC00
ENDCHAR
STARTCHAR 0493
ENCODING 1171
SWIDTH 462 0
DWIDTH 18 0
BBX 18 18 0 0
BITMAP
7FFFC0
7FFFC0
3F9FC0
1F83C0
1F81C0
0F81C0
0F8100
0F8000
0F8000
FFFC00
FFFC00
0F8000
0F8000
0F8000
1FC000
1FE000
7FF800
7FF800
ENDCHAR
STARTCHAR 0494
ENCODING 1172
SWIDTH 642 0
DWIDTH 25 0
BBX 22 35 2 -10
BITMAP
FFFFE0
FFFFE0
3F03E0
3F00E0
3F00E0
3F0070
1F0060
1F0000
1F0000
1F0000
1F0000
1F3E00
1FFFC0
1FFFE0
1F07F0
1F03F8
1F01F8
1F01F8
1F01FC
1F01FC
3F01FC
3F80FC
3F80FC
7FC0FC
FFE0F8
FFE0F8
0001F8
0001F0
0001F0
0003E0
0003E0
0007C0
000780
000F00
000E00
ENDCHAR
STARTCHAR 0495
ENCODING 1173
SWIDTH 565 0
DWIDTH 22 0
BBX 20 28 1 -10
BITMAP
FFFFC0
FFFFC0
7FFFC0
1F81C0
1F81C0
1F80E0
1F8000
1F8000
1FFE00
1FFF80
1F9FC0
1F87E0
1F83E0
1F83F0
1F83F0
3FC3F0
FFE3F0
FFE3F0
0003F0
0003F0
0003E0
0003E0
0007C0
000780
000F80
001E00
001C00
000800
ENDCHAR
STARTCHAR 0496
ENCODING 1174
SWIDTH 1080 0
DWIDTH 42 0
BBX 42 33 0 -7
BITMAP
7FE1FFC3FE00
3FE1FFC3FE00
0FC0FF01F000
03C07E01C000
01C07E038000
00E07E078000
00707E0F0000
00387E0E0000
003C7E1C0000
001C7E380000
001E7E780000
003F7EFC0000
003F7EFE0000
007F7E7E0000
007E7E7F0000
00FE7E3F0000
00FC7E3F8000
01FC7E1F8000
03F87E0FC000
03F07E0FE000
07F07E07E000
0FE07E07F000
1FE07E03F800
7FC0FF83FE00
FFC1FFC1FF80
FF81FFC1FFC0
000000000780
000000000780
000000000780
000000000780
000000000780
000000000780
000000000780
ENDCHAR
STARTCHAR 0497
ENCODING 1175
SWIDTH 874 0
DWIDTH 34 0
BBX 34 25 1 -7
BITMAP
7F9FF9FF00
7F9FF9FE00
7F0FF8FE00
0F07E07000
0707E0E000
0387E1C000
01C7E38000
00E7E70000
01F7EF8000
01FFFF8000
03F7EFC000
07F7E7E000
07E7E7E000
0FC7E3F000
1F87E1F800
FF8FF1FF00
FF1FF8FFC0
FE1FF87FC0
00000007C0
0000000780
0000000380
0000000380
0000000380
0000000380
0000000380
ENDCHAR
STARTCHAR 0498
ENCODING 1176
SWIDTH 565 0
DWIDTH 22 0
BBX 19 34 2 -7
BITMAP
03C000
3FFE00
7FFF00
7C1F80
781FC0
700FC0
700FC0
700FC0
000FC0
001F80
001F80
007E00
03F000
07FE00
03FF80
003FC0
000FE0
0007E0
0007E0
F007E0
F007E0
F007E0
F807E0
F80FC0
FE1F80
FFFF00
1FFC00
03E000
01E000
01C000
01C000
01C000
01C000
01C000
ENDCHAR
STARTCHAR 0499
ENCODING 1177
SWIDTH 488 0
DWIDTH 19 0
BBX 16 25 2 -7
BITMAP
3FE0
FFFC
F8FE
F07E
E07E
E07E
007C
03F8
0FE0
0FFC
00FE
007F
E03F
E03F
E03E
F07E
FFFC
7FF0
0780
0780
0700
0700
0700
0700
0700
ENDCHAR
STARTCHAR 049A
ENCODING 1178
SWIDTH 745 0
DWIDTH 29 0
BBX 27 33 2 -7
BITMAP
FFE0FF80
FFE0FF80
3F807C00
3F807800
3F00F000
3F01E000
1F01C000
1F038000
1F070000
1F0E0000
1F0E0000
1F1E0000
1F3F0000
1F3F8000
1F3F8000
1F1FC000
1F0FE000
1F0FE000
1F07F000
1F03F800
3F03FC00
3F01FC00
3F80FE00
7FC0FFC0
FFE07FE0
FFE03FE0
000003E0
000001E0
000001E0
000001E0
000001E0
000001E0
000001E0
ENDCHAR
STARTCHAR 049B
ENCODING 1179
SWIDTH 591 0
DWIDTH 23 0
BBX 23 25 1 -7
BITMAP
FFCFF8
FFC7F8
7FC7F8
3F03C0
1F0380
1F0700
1F0E00
1F1C00
1F3C00
1F7E00
1F7F00
1F3F00
1F1F80
1F0FC0
3F0FE0
7F87F8
FFC3FE
FFC3FE
00001E
00001E
00001E
00001E
00001E
00001E
00001E
ENDCHAR
STARTCHAR 049C
ENCODING 1180
SWIDTH 745 0
DWIDTH 29 0
BBX 27 27 2 0
BITMAP
00000200
FFE00F80
FFE01F80
3F803F80
3F803F80
3F007380
3F306380
1F38E000
1F38C000
1F39C000
1F3B8000
1F3B0000
1FFF0000
1FFFC000
1F3FE000
1F3BE000
1F3BF000
1F39F000
1F39F800
1F39F800
1F00FC00
3F00FC00
3F00FE00
3F807F00
7FC07F80
FFE03FE0
FFE01FE0
ENDCHAR
STARTCHAR 049D
ENCODING 1181
SWIDTH 668 0
DWIDTH 26 0
BBX 25 18 1 0
BITMAP
FFE01F00
FFE03E00
7FC07E00
1F80FF00
1FB8C700
1FB9C000
1FBB8000
1FBF0000
1FFF8000
1FFFC000
1FBFE000
1FBBF000
1FB9F000
1F99F800
1F81FC00
3F80FE00
FFE07F80
FFE07F00
ENDCHAR
STARTCHAR 049E
ENCODING 1182
SWIDTH 720 0
DWIDTH 28 0
BBX 28 27 0 0
BITMAP
00000100
3FF80FC0
3FF81FC0
0FE01FC0
0FE03FC0
0FC079C0
7FFC71C0
FFFCE000
FFFCE000
07C1C000
07C38000
07C78000
07FF0000
07FFC000
07DFE000
07C7F000
07C3F800
07C1F800
07C0FC00
07C0FE00
07C07E00
0FC07F00
0FC07F00
0FE03F80
1FF03FE0
3FF81FF0
3FF80FF0
ENDCHAR
STARTCHAR 049F
ENCODING 1183
SWIDTH 591 0
DWIDTH 23 0
BBX 22 28 1 0
BITMAP
030000
FF0000
FF0000
FF0000
1F0000
1F0000
FFFE00
FFFE00
FFFC00
1F0000
1F00F8
1F01F8
1F03F8
1F03F8
1F0738
1F0E00
1F1C00
1F3800
1FFE00
1FFF00
1F3F80
1F1F80
1F0FC0
1F8FC0
1F87E0
3F87F8
FFC3FC
FFE1FC
ENDCHAR
STARTCHAR 04A0
ENCODING 1184
SWIDTH 848 0
DWIDTH 33 0
BBX 31 27 1 0
BITMAP
00000010
7FFFC0FC
7FFFC1FC
787F01FC
F07E03FC
F07E071C
E07E071C
607E0E00
007E0E00
007E1C00
007E3800
007E7800
007FF000
007FFC00
007FFE00
007E3F00
007E1F80
007E1F80
007E0FC0
007E0FC0
007E07E0
007E07E0
007E07F0
00FE03F8
01FF03FE
07FFC1FE
07FFC0FE
ENDCHAR
STARTCHAR 04A1
ENCODING 1185
SWIDTH 668 0
DWIDTH 26 0
BBX 25 18 1 0
BITMAP
FFFE0F00
FFFC1F00
F9FC3F00
E1F87F00
E1F86700
E1F8E000
01F9C000
01FB8000
01FFC000
01FFE000
01FBF000
01F9F800
01F8F800
01F8FC00
01F8FE00
03F87F00
0FFC3F80
1FFC3F80
ENDCHAR
STARTCHAR 04A2
ENCODING 1186
SWIDTH 822 0
DWIDTH 32 0
BBX 29 33 2 -7
BITMAP
FFE1FFE0
FFE1FFC0
3F807F80
3F803F00
3F003F00
3F003F00
1F003F00
1F003F00
1F003F00
1F003F00
1F003F00
1FFFFF00
1FFFFF00
1FFFFF00
1F003F00
1F003F00
1F003F00
1F003F00
1F003F00
1F003F00
3F003F00
3F003F00
3F803F00
7FC07F80
FFE1FFF8
FFE1FFF8
000000F8
000000F8
000000F8
00000070
00000070
00000070
00000070
ENDCHAR
STARTCHAR 04A3
ENCODING 1187
SWIDTH 668 0
DWIDTH 26 0
BBX 25 25 1 -7
BITMAP
FFC7FE00
FFC7FE00
7FC3FC00
3F01F800
1F01F800
1F01F800
1F01F800
1F01F800
1FFFF800
1FFFF800
1F01F800
1F01F800
1F01F800
1F01F800
1F01F800
3F83FC00
FFC7FF80
FFC7FF80
00000780
00000780
00000780
00000780
00000780
00000780
00000780
ENDCHAR
STARTCHAR 04A4
ENCODING 1188
SWIDTH 900 0
DWIDTH 35 0
BBX 32 26 2 0
BITMAP
FFE3FFFF
FFE3FFFF
3F80FE1F
3F807E07
3F007E07
3F007E07
1F007E03
1F007E00
1F007E00
1F007E00
1F007E00
1FFFFE00
1FFFFE00
1FFFFE00
1F007E00
1F007E00
1F007E00
1F007E00
1F007E00
1F007E00
3F007E00
3F007E00
3F807E00
7FC0FF80
FFE3FFE0
FFE3FFE0
ENDCHAR
STARTCHAR 04A5
ENCODING 1189
SWIDTH 745 0
DWIDTH 29 0
BBX 28 18 1 0
BITMAP
FFCFFFF0
FFCFFFF0
7FC7F7F0
3F03F0F0
3F03F070
1F01F040
1F01F000
1F01F000
1FFFF000
1FFFF000
1F01F000
1F01F000
1F01F000
1F03F000
3F03F000
3F83F800
FFC7FE00
FFCFFF00
ENDCHAR
STARTCHAR 04A8
ENCODING 1192
SWIDTH 900 0
DWIDTH 35 0
BBX 34 26 1 1
BITMAP
00F8000000
03F83F8000
07E0FFE000
0F81F3F800
1F03E0F800
3F07C0FC00
3E07C07E00
7E0FC07E00
7E0FC07E00
7E0FC07E00
FC0FC07E00
FC0FC07E00
FC0FC07E00
FE0FC07E00
FE0FC07E00
7E0FC07E00
7E0FC07C00
7E07C07C00
7F07E0F800
3F03E0F800
3F83F1F000
1FC1FBE080
0FE0FFC3C0
07F87FFF80
01FFFFFF00
007FF3FC00
ENDCHAR
STARTCHAR 04A9
ENCODING 1193
SWIDTH 771 0
DWIDTH 30 0
BBX 28 18 1 0
BITMAP
03800000
0FC3FC00
1F8FFF00
3F1F1F80
7E3F0F80
7E3E0FC0
7C3E0FC0
FC7E0FC0
FC7E0FC0
FC7E0FC0
FC3E0FC0
7E3E0F80
7E3F0F80
3F1F1F00
3F8FBE20
1FE7FDF0
07FFFFE0
01FFFF80
ENDCHAR
STARTCHAR 04AA
ENCODING 1194
SWIDTH 642 0
DWIDTH 25 0
BBX 23 34 1 -7
BITMAP
000F00
00FFF0
03FFFC
07C07C
0F803C
1F003C
3F003C
3E001C
7E001C
7E0000
7E0000
FC0000
FC0000
FC0000
FE0000
FE0000
7E0000
7E0000
7E0000
7F0000
3F0000
3F8000
1FC000
0FF01E
07FFFC
03FFF8
00FFC0
001E00
001E00
001E00
000E00
000E00
000E00
000E00
ENDCHAR
STARTCHAR 04AB
ENCODING 1195
SWIDTH 462 0
DWIDTH 18 0
BBX 16 25 1 -7
BITMAP
03FC
0FFF
1F1F
3E0F
7E0E
7C0E
7C0E
FC00
FC00
FC00
FC00
7C00
7E00
7E00
3F03
3FFF
1FFE
07FC
00F0
00F0
00F0
00F0
00F0
00F0
00F0
ENDCHAR
STARTCHAR 04AC
ENCODING 1196
SWIDTH 642 0
DWIDTH 25 0
BBX 23 33 1 -7
BITMAP
7FFFFE
7FFFFE
7C7E3E
F07E1E
F07E0E
E07E0E
E07E0E
007E00
007E00
007E00
007E00
007E00
007E00
007E00
007E00
007E00
007E00
007E00
007E00
007E00
007E00
007E00
00FE00
01FF00
07FFE0
07FFF0
0001F0
0001E0
0001E0
0000E0
0000E0
0000E0
0000E0
ENDCHAR
STARTCHAR 04AD
ENCODING 1197
SWIDTH 540 0
DWIDTH 21 0
BBX 21 25 0 -7
BITMAP
7FFFF0
7FFFF0
7EFDF0
70FC78
70FC38
F0FC38
00FC00
00FC00
00FC00
00FC00
00FC00
00FC00
00FC00
00FC00
00FC00
01FE00
07FFC0
07FFC0
0003C0
0003C0
0003C0
0003C0
0003C0
0003C0
0003C0
ENDCHAR
STARTCHAR 04AE
ENCODING 1198
SWIDTH 617 0
DWIDTH 24 0
BBX 23 26 1 0
BITMAP
FFE0FE
FFE0FE
7F807C
3F8078
1FC070
1FC060
0FC0E0
0FE0C0
07E1C0
07F1C0
03F180
03FB80
01FB00
01FF00
00FE00
00FE00
007C00
007C00
007C00
007C00
00FC00
00FE00
00FE00
01FF00
07FFC0
07FFC0
ENDCHAR
STARTCHAR 04AF
ENCODING 1199
SWIDTH 540 0
DWIDTH 21 0
BBX 21 28 0 -10
BITMAP
FFE3F8
7FE3F8
7FE3F8
3F80E0
1F80E0
0FC0C0
0FC1C0
07E180
07E380
03E380
03F300
03F700
01FE00
01FE00
00FC00
00FC00
00FC00
00FC00
00FC00
00FC00
00FC00
00FC00
00FC00
00FC00
00FE00
03FF80
03FF80
030180
ENDCHAR
STARTCHAR 04B0
ENCODING 1200
SWIDTH 617 0
DWIDTH 24 0
BBX 23 26 1 0
BITMAP
FFE0FE
FFE0FE
7F807C
3F8078
1FC070
1FC060
0FC0E0
0FE0C0
07E1C0
07F1C0
03F180
03FB80
01FB00
01FF00
00FE00
00FE00
0FFFE0
0FFFE0
0FFFE0
007C00
00FC00
00FE00
00FE00
01FF00
07FFC0
07FFC0
ENDCHAR
STARTCHAR 04B1
ENCODING 1201
SWIDTH 540 0
DWIDTH 21 0
BBX 21 28 0 -10
BITMAP
FFE3F8
7FE3F8
7FE3F8
3F80E0
1F80E0
0FC0C0
0FC1C0
07E180
07E380
03E380
03F300
03F700
01FE00
01FE00
00FC00
00FC00
0FFFE0
0FFFC0
00FC00
00FC00
00FC00
00FC00
00FC00
00FC00
00FE00
03FF80
03FF80
030180
ENDCHAR
STARTCHAR 04B2
ENCODING 1202
SWIDTH 720 0
DWIDTH 28 0
BBX 26 33 1 -7
BITMAP
7FF0FF00
7FF0FF00
3FE03E00
1FE03C00
0FE07800
07F07000
07F0E000
03F8E000
01FDC000
01FF8000
00FF8000
007F0000
007F0000
003F8000
007F8000
00FFC000
00EFE000
01CFE000
0387F000
0387F000
0703F800
0F01FC00
1E01FE00
7F03FF00
FF87FFC0
FF87FFC0
000003C0
000003C0
000003C0
000003C0
000003C0
000003C0
000003C0
ENDCHAR
STARTCHAR 04B3
ENCODING 1203
SWIDTH 565 0
DWIDTH 22 0
BBX 21 25 1 -7
BITMAP
FFEFF0
FFE7E0
7FC7E0
1FC380
1FC700
0FE700
07EE00
03FC00
03FC00
03FC00
03FE00
077F00
0F3F00
1E3F80
1C1FC0
7E3FE0
FE7FF8
FF7FF8
000078
000078
000078
000078
000078
000078
000078
ENDCHAR
STARTCHAR 04B4
ENCODING 1204
SWIDTH 1028 0
DWIDTH 40 0
BBX 38 33 1 -7
BITMAP
7FFFFCFFE0
7FFFFCFFE0
7C7E7C3F80
F07E3C3F00
F07E1C3F00
E07E1C3F00
E07E1C3F00
007E003F00
007E003F00
007E003F00
007E003F00
007E003F00
007E003F00
007E003F00
007E003F00
007E003F00
007E003F00
007E003F00
007E003F00
007E003F00
007E003F00
007E003F00
007E003F80
00FFC1FF80
03FFFFFFFC
03FFFFFFFC
000000007C
000000007C
0000000078
0000000078
0000000078
0000000038
0000000038
ENDCHAR
STARTCHAR 04B5
ENCODING 1205
SWIDTH 822 0
DWIDTH 32 0
BBX 32 25 0 -7
BITMAP
7FFFEFFC
7FFFEFFC
7FFFEFF8
70F8E3F0
70F8E3F0
F0F8E3F0
00F803F0
00F803F0
00F803F0
00F803F0
00F803F0
00F803F0
00F803F0
00FC03F0
00FC03F0
01FC07F0
03FFFFFF
03FFFFFF
0000000F
0000000F
0000000F
0000000F
0000000F
0000000F
0000000F
ENDCHAR
STARTCHAR 04B6
ENCODING 1206
SWIDTH 771 0
DWIDTH 30 0
BBX 28 33 1 -7
BITMAP
FFE1FFC0
FFE1FFC0
3FC07F00
1F807E00
1F807E00
1F807E00
1F807E00
1F807E00
1F807E00
1F807E00
0F807E00
0FC07E00
0FE07E00
07FFFE00
03FFFE00
00FE7E00
00007E00
00007E00
00007E00
00007E00
00007E00
00007E00
00007F00
0001FF00
0007FFF0
0007FFF0
000000F0
000000F0
000000F0
000000F0
000000F0
000000F0
000000F0
ENDCHAR
STARTCHAR 04B7
ENCODING 1207
SWIDTH 617 0
DWIDTH 24 0
BBX 24 25 0 -7
BITMAP
FFCFFC
7FCFFC
7F87F8
3F83F0
1F03F0
1F03F0
1F03F0
1F83F0
1F83F0
0FFFF0
07FFF0
00F3F0
0003F0
0003F0
0003F0
000FF0
001FFF
001FFF
00000F
00000F
00000F
00000F
00000F
00000F
00000F
ENDCHAR
STARTCHAR 04B8
ENCODING 1208
SWIDTH 771 0
DWIDTH 30 0
BBX 28 26 1 0
BITMAP
FFF0FFF0
FFF0FFE0
3FC03FC0
1F801F80
1F801F80
1F801F80
1F841F80
1F871F80
1F871F80
0F871F80
0FC71F80
0FE71F80
07FFFF80
03FFFF80
007F9F80
00071F80
00071F80
00071F80
00071F80
00071F80
00001F80
00001F80
00003F80
0000FFC0
0001FFE0
0001FFF0
ENDCHAR
STARTCHAR 04B9
ENCODING 1209
SWIDTH 642 0
DWIDTH 25 0
BBX 23 18 1 0
BITMAP
FFC7FE
FFC7FE
FF83FE
3F01F8
3E21F8
3E39F8
3F39F8
3F39F8
1FFFF8
0FFFF8
00F9F8
0039F8
0039F8
0039F8
0001F8
0003FC
000FFE
000FFE
ENDCHAR
STARTCHAR 04BA
ENCODING 1210
SWIDTH 720 0
DWIDTH 28 0
BBX 25 26 2 0
BITMAP
FFF00000
FFF00000
3FC00000
3F800000
3F000000
3F000000
3F000000
3F000000
3F000000
3F000000
3F7FC000
3FFFF000
3FFFF800
3F01FC00
3F00FC00
3F00FC00
3F007C00
3F007C00
3F007E00
3F007E00
3F007E00
3F007E00
3F807E00
7FC0FF00
FFE3FF80
FFE3FF80
ENDCHAR
STARTCHAR 04BB
ENCODING 1211
SWIDTH 642 0
DWIDTH 25 0
BBX 23 28 1 0
BITMAP
030000
FF0000
FF0000
FF0000
3F0000
1F0000
1F0000
1F0000
1F0000
1F0000
1F0F80
1F3FE0
1F7FF0
1FFFF0
1F03F8
1F01F8
1F01F8
1F01F8
1F01F8
1F01F8
1F01F8
1F01F8
1F01F8
1F81F8
1F81F8
3FC3FC
FFE7FE
FFE7FE
ENDCHAR
STARTCHAR 04BC
ENCODING 1212
SWIDTH 822 0
DWIDTH 32 0
BBX 30 26 1 0
BITMAP
0003FF00
000FFF80
001F07C0
003E03E0
107C03F0
38FC01F0
78F801F8
F9F800F8
F1F800F8
F1F800F8
F9F800FC
7FFFFFFC
3FFFFFF8
03FFFFF8
03F80000
01F80000
01F80000
01F80000
01FC0000
00FC0000
00FE0018
007F0038
007F80F8
003FFFF0
000FFFC0
0003FF00
ENDCHAR
STARTCHAR 04BD
ENCODING 1213
SWIDTH 642 0
DWIDTH 25 0
BBX 22 18 2 0
BITMAP
003FC0
007FE0
31F9F0
71F0F8
F3E0FC
E3E07C
F7E07C
F7E07C
7FFFFC
3FFFFC
07E000
07E000
03E000
03F000
03F80C
01FFFC
00FFF8
003FE0
ENDCHAR
STARTCHAR 04BE
ENCODING 1214
SWIDTH 822 0
DWIDTH 32 0
BBX 30 33 1 -7
BITMAP
0003FF00
000FFF80
001F07C0
003E03E0
107C03F0
38FC01F0
78F801F8
F9F800F8
F1F800F8
F1F800F8
F9F800FC
7FFFFFFC
3FFFFFF8
03FFFFF8
03F80000
01F80000
01F80000
01F80000
01FC0000
00FC0000
00FE0018
007F0038
007F80F8
003FFFF0
000FFFC0
0003FF00
00007800
00007800
00007800
00007800
00003800
00003800
00003800
ENDCHAR
STARTCHAR 04BF
ENCODING 1215
SWIDTH 642 0
DWIDTH 25 0
BBX 22 25 2 -7
BITMAP
003FC0
007FE0
31F9F0
71F0F8
F3E0FC
E3E07C
F7E07C
F7E07C
7FFFFC
3FFFFC
07E000
07E000
03E000
03F000
03F80C
01FFFC
00FFF8
003FE0
000780
000780
000700
000700
000700
000700
000700
ENDCHAR
STARTCHAR 04C0
ENCODING 1216
SWIDTH 360 0
DWIDTH 14 0
BBX 11 26 2 0
BITMAP
FFE0
FFE0
3F80
3F80
3F00
3F00
1F00
1F00
1F00
1F00
1F00
1F00
1F00
1F00
1F00
1F00
1F00
1F00
1F00
1F00
3F00
3F00
3F80
7FC0
FFE0
FFE0
ENDCHAR
STARTCHAR 04C1
ENCODING 1217
SWIDTH 1028 0
DWIDTH 40 0
BBX 40 34 0 1
BITMAP
000F80F000
000F80F000
0007C1F000
0007F7E000
0001FFC000
00003C0000
0000000000
0000000000
7FE1FFC3FE
3FE1FFC3FE
0FC0FF01F0
03C07E01C0
01C07E0380
00E07E0780
00707E0F00
00387E0E00
003C7E1C00
001C7E3800
001E7E7800
003F7EFC00
003F7EFE00
007F7E7E00
007E7E7F00
00FE7E3F00
00FC7E3F80
01FC7E1F80
03F87E0FC0
03F07E0FE0
07F07E07E0
0FE07E07F0
1FE07E03F8
7FC0FF83FE
FFC1FFC1FF
FF81FFC1FF
ENDCHAR
STARTCHAR 04C2
ENCODING 1218
SWIDTH 874 0
DWIDTH 34 0
BBX 32 27 1 0
BITMAP
00F00F00
00F80F00
00F81F00
007C1E00
003FFE00
001FF800
0007C000
00000000
00000000
7F9FF9FF
7F9FF9FE
7F0FF8FE
0F07E070
0707E0E0
0387E1C0
01C7E380
00E7E700
01F7EF80
01FFFF80
03F7EFC0
07F7E7E0
07E7E7E0
0FC7E3F0
1F87E1F8
FF8FF1FF
FF1FF8FF
FE1FF87F
ENDCHAR
STARTCHAR 04C3
ENCODING 1219
SWIDTH 694 0
DWIDTH 27 0
BBX 24 37 2 -10
BITMAP
000008
FFE07E
FFE0FE
3F80FE
3F81FE
3F038E
3F038E
1F0700
1F0700
1F0E00
1F1C00
1F3C00
1FF800
1FFF80
1F7FE0
1F03F8
1F01FC
1F00FE
1F007E
1F007F
1F007F
3F003F
3F003F
3F803F
7FC03F
FFE03F
FFE03E
00003E
00007E
00007C
0000F8
0001F8
0001F0
0007E0
000F80
000F00
000400
ENDCHAR
STARTCHAR 04C4
ENCODING 1220
SWIDTH 565 0
DWIDTH 22 0
BBX 20 28 1 -10
BITMAP
FFC1F0
FFC3F0
7FC7F0
3F07F0
3F0E70
1F1C00
1F1800
1F7000
1FFC00
1FFF80
1F0FC0
1F07E0
1F03F0
1F03F0
3F81F0
3F81F0
FFC1F0
FFC1F0
0001F0
0001F0
0003E0
0003E0
0007C0
000F80
001F00
003E00
003C00
001000
ENDCHAR
STARTCHAR 04C5
ENCODING 1221
SWIDTH 745 0
DWIDTH 29 0
BBX 27 33 1 -7
BITMAP
0FFFFF80
0FFFFF80
01C0FE00
01C0FC00
00C0FC00
00C0FC00
01C0FC00
01C0FC00
01C0FC00
01C0FC00
01C0FC00
01C0FC00
0180FC00
0180FC00
0180FC00
0380FC00
0380FC00
0380FC00
0380FC00
0700FC00
0F00FC00
FF00FC00
FF00FC00
FE01FE00
FE07FFC0
FC07FFE0
000007C0
000007C0
00000780
00000F80
00000F00
00000E00
00000600
ENDCHAR
STARTCHAR 04C6
ENCODING 1222
SWIDTH 617 0
DWIDTH 24 0
BBX 23 25 0 -7
BITMAP
0FFFF8
0FFFF8
0783F8
0183F0
0183E0
0183E0
0183E0
0183E0
0383E0
0383E0
0303E0
0303E0
0703E0
0F03E0
7E07E0
FE07F0
FC1FFE
781FFE
00003E
00003E
00003C
000078
000078
0000F0
000060
ENDCHAR
STARTCHAR 04C7
ENCODING 1223
SWIDTH 745 0
DWIDTH 29 0
BBX 27 36 2 -10
BITMAP
FFE1FFE0
FFE1FFC0
3F807F80
3F803F00
3F003F00
3F003F00
1F003F00
1F003F00
1F003F00
1F003F00
1F003F00
1FFFFF00
1FFFFF00
1FFFFF00
1F003F00
1F003F00
1F003F00
1F003F00
1F003F00
1F003F00
3F003F00
3F003F00
3F803F00
7FC03F00
FFE03F00
FFE03F00
00003E00
00003E00
00003E00
00007C00
00007C00
0000F800
0001F000
0001E000
0001C000
00010000
ENDCHAR
STARTCHAR 04C8
ENCODING 1224
SWIDTH 642 0
DWIDTH 25 0
BBX 23 28 1 -10
BITMAP
FFC7FE
FFC7FE
7FC7FC
3F01F8
1F01F0
1F01F0
1F01F0
1F01F0
1FFFF0
1FFFF0
1F01F0
1F01F0
1F01F0
1F01F0
1F01F0
3F81F0
FFC1F0
FFC1F0
0001F0
0001F0
0003E0
0003E0
0003C0
0007C0
000F80
001F00
000E00
000800
ENDCHAR
STARTCHAR 04C9
ENCODING 1225
SWIDTH 822 0
DWIDTH 32 0
BBX 28 33 2 -7
BITMAP
FFE1FFE0
FFE1FFC0
3F807F80
3F803F00
3F003F00
3F003F00
1F003F00
1F003F00
1F003F00
1F003F00
1F003F00
1FFFFF00
1FFFFF00
1FFFFF00
1F003F00
1F003F00
1F003F00
1F003F00
1F003F00
1F003F00
3F003F00
3F003F00
3F803F00
7FC07F80
FFE1FFF0
FFE1FFF0
000001F0
000001F0
000001E0
000003E0
000003C0
00000780
00000100
ENDCHAR
STARTCHAR 04CA
ENCODING 1226
SWIDTH 668 0
DWIDTH 26 0
BBX 25 25 1 -7
BITMAP
FFC7FE00
FFC7FE00
7FC3FC00
3F01F800
1F01F800
1F01F800
1F01F800
1F01F800
1FFFF800
1FFFF800
1F01F800
1F01F800
1F01F800
1F01F800
1F01F800
3F83FC00
FFC7FF00
FFC7FF80
00000F80
00000F00
00001F00
00001E00
00003C00
00003800
00001800
ENDCHAR
STARTCHAR 04CB
ENCODING 1227
SWIDTH 720 0
DWIDTH 28 0
BBX 26 33 1 -7
BITMAP
FFE1FFC0
FFE1FFC0
3FC07F00
1F807E00
1F807E00
1F807E00
1F807E00
1F807E00
1F807E00
1F807E00
0F807E00
0FC07E00
0FE07E00
07FFFE00
03FFFE00
00FE7E00
00007E00
00007E00
00007E00
00007E00
00007E00
00007E00
00007F00
0001FF00
000FFFC0
000FFFC0
000F0000
000F0000
000F0000
000F0000
000F0000
000F0000
000F0000
ENDCHAR
ENDFONT
